<?xml version="1.0" encoding="utf-8"?>
<!-- Generator: Adobe Illustrator 24.2.3, SVG Export Plug-In . SVG Version: 6.00 Build 0)  -->
<svg version="1.2" baseProfile="tiny" xmlns="http://www.w3.org/2000/svg" xmlns:xlink="http://www.w3.org/1999/xlink" x="0px"
	 y="0px" viewBox="270.51 118.02 300.56 351.63" overflow="visible" xml:space="preserve">
<g id="Background">
</g>
<g id="Arizona">
	<path fill="#FFFFFF" stroke="#333333" stroke-width="2" stroke-linecap="round" stroke-linejoin="round" d="M504.48,136.45
		c-8.84-0.01-17.68,0-26.52-0.02c-8.46-0.02-16.91-0.01-25.37-0.02c-9.18-0.01-18.37,0-27.55-0.02c-8.33-0.02-16.65,0-24.98-0.02
		c-9.18-0.02-18.37-0.01-27.55-0.02c-8.45-0.01-16.91-0.01-25.36-0.02c-8.84-0.02-17.68-0.02-26.52-0.02
		c-0.03,6.6-0.02,13.19-0.03,19.79c-0.02,8.67-0.03,17.33-0.05,26l-0.04,0.56l-0.11,0.57c-0.61,0.83-1.22,1.66-1.83,2.49
		c-0.62,2.17-1.24,4.33-1.87,6.5l-1.64,0.94l-2.31,0.37l-1.22-0.07l-1.08-0.48l-0.88-0.76l-0.59-0.73l-0.44-0.71l-1.06-2.36
		l-0.35-0.56l-0.45-0.58l-0.52-0.53l-0.42-0.25l-0.43-0.16l-0.31-0.03l-0.33,0.01l-0.32,0.06l-0.28,0.09l-0.25,0.11l-1.21,0.73
		l-0.27,0.1l-0.32,0.05h-0.35l-0.37-0.04l-0.63-0.21l-0.49-0.32l-0.4-0.32l-0.25-0.15l-0.18-0.07l-2.52-0.75l-0.44-0.04l-0.4,0.1
		l-0.73,0.3l-2.73,0.71l-1.53,0.96l-1.58,0.74l-0.21,0.19l-0.18,0.19l-0.33,0.47l-0.15,0.26l-0.07,0.49l0,0.65l0.16,1.34l-0.03,0.66
		l-0.21,0.63l-0.8,0.82l0.08,1.61l0.49,1.54l0.69,1.34l1.86,2.42l0.3,0.52l0.1,0.67l-0.18,0.64l-0.83,1.48l-0.25,0.86l-0.05,3.21
		l0.14,1.58l0.23,1.17l1.65,4.2l0.31,0.94l-0.36,1.25l0.29,2.5l-1,2.8l0.8,2.31l0.86,2.76l1.5,3.01l0.46,1.36l-0.06,1.55l0.12,1.47
		l0.61,2.74l0.23,2.31l-0.03,1.22l-0.44,2.28l-0.2,0.18l-0.55,0.28l-0.66,0.14h-0.64l-0.47,0.23l-0.16,0.77l0.22,0.53l0.88,1.03
		l0.19,0.79l-0.18,0.55l-1.11,1.45l0.45,1.86c0.19,2.59,0.39,5.18,0.58,7.78l0.33,0.68l0.74,0.26l0.67,0.35l0.54,0.78l0.38,0.92
		l0.18,0.7l0.09,1.6l0.6,1.08l0.99,0.62l1.28,0.2l3.08,6.31l0.21,0.24l0.16,0.25l0.06,0.46l-0.06,1.35l0.06,0.37l0.57,0.93
		l0.62,0.49l0.51,0.56l0.23,1.16l0.08,0.04l0.47,0.57l-0.21,0.84l-0.26,0.84l0,0.04l0.05,0.54l0.15,0.68l0.19,0.37l0.25,0.27
		l0.3,0.09l0.61,0.03l0.23,0.03l0.19,0.07l0.19,0.15l0.37,0.41l0.23,0.2l0.94,0.61l0.24,0.21l0.7,0.83l3.93,2.87l0.81,0.43
		l0.46,0.39l0.55,0.61l1.5,0.99l0.01,0.76l0.28,1.2l-0.39,0.77l-1.49,1.14l-1.58,1.56l-1.49,1.93l-0.92,0.25l-4.81,3.42l-1.71,0.55
		l-0.76,0.79l-0.49,1.06l-0.39,2.41l-0.55,1.09l-0.74,0.92l-0.78,0.77l-1.87,1.24l-0.73,0.78l-0.29,1.26l0.15,0.67l0.39,0.63
		l0.92,1.08l0.06,0.5l-0.38,0.52l-0.86,0.7l0.09,0.86l0.01,1.44l0.17,1.36l0.58,0.62l0.16,0.29l0.05,0.67l-0.05,0.66l-0.16,0.31
		l-0.25,0.28l0.2,0.62l0.51,1.03l-0.31,0.83l-0.55,0.64l-0.52,0.81l-0.23,1.38l0.03,1.21l-0.04,0.64l-0.15,0.26l-0.42,0.34v0.75
		l0.26,1.23l-0.17,0.75l-0.15,0.38l-0.64,0.84l-0.93,0.94l-0.48,0.58l-0.45,1.37l-1.74,3.29l-0.84,0.64l-1.16,0.35l-2.31,0.16
		l-0.45,0.3l0.21,0.65l0.48,0.71l0.38,0.44l0.28,0.62l-0.18,0.47l-0.57,0.61l-0.45,1.57l0.1,0.83l1.47,1.68l0.32,0.76l0.48,3.24
		l-0.25,2.42l-0.71,2.1l-0.16,1.95l1.41,1.97l1.86,0.74l4.28,0.31l1.64,0.9l1.32,1.91l0.18,0.71l-0.02,0.54l-0.1,0.54l-0.06,0.7
		l0.74,3.57l-0.13,1.21l-0.54,0.72l-1.75,1.22l-0.61,0.73l-0.18,0.98l0.04,1.03l-0.05,1.01l-0.46,0.83l-1.99,0.46l-4.93-1.01
		l-1.79,1.31c-0.18,0.7-0.35,1.4-0.53,2.1l-0.39,0.97l-0.55,0.93l-0.01,0.02l-0.36,0.4l-1.07,0.92l0,0.02l-0.25,0.37l-0.75,1.48
		l0.4,1.14l-0.06,1.22l-0.66,2.27h0l-0.59,0.61h0l0.25,0.1c0.58,0.21,1.17,0.42,1.75,0.63c7.96,2.91,15.92,5.82,23.88,8.71
		c9.21,3.36,18.42,6.71,27.64,10.06c8.4,3.06,16.81,6.1,25.22,9.15c7.32,2.66,14.64,5.3,21.96,7.95c9.01,3.26,18.02,6.52,27.03,9.78
		c8.92,3.22,17.84,6.45,26.76,9.67c7.53,2.72,14.99,5.61,22.49,8.41l2.87,0.35h67.05c8.43,0,16.86-0.01,25.3-0.01v-5.53
		c0-8.43,0.02-16.87,0.02-25.3V320.11c0-8.77,0.01-17.55,0.01-26.32v-78.65c0-8.97,0.01-17.95,0.01-26.92v-51.73
		c-8.32,0-16.64,0-24.96-0.02C522.15,136.45,513.32,136.45,504.48,136.45z"/>
</g>
<g id="copyright">
</g>
</svg>
