<?xml version="1.0" encoding="utf-8"?>
<!-- Generator: Adobe Illustrator 24.2.3, SVG Export Plug-In . SVG Version: 6.00 Build 0)  -->
<svg version="1.2" baseProfile="tiny" xmlns="http://www.w3.org/2000/svg" xmlns:xlink="http://www.w3.org/1999/xlink" x="0px"
	 y="0px" viewBox="256.28 117.19 324 360" overflow="visible" xml:space="preserve">
<g id="Background">
</g>
<g id="California">
	<path fill="#FFFFFF" stroke="#333333" stroke-width="2" stroke-linecap="round" stroke-linejoin="round" d="M414.18,442.54
		l-0.9-0.36l-0.14-0.13l-0.46-0.32l-0.27,0.23l-0.32,0.15l-0.36,0.02l-0.4-0.18l0.33,1.01l0.7,0.74l0.94,0.46l1.07,0.16l0.94-0.32
		l-0.25-0.71L414.18,442.54z M412.01,416.85l0.29-0.39l0.04-0.52l-0.11-0.05l-0.76-0.6l-0.23-0.1l-0.33-0.02l-0.43,0.25l-1.12,0.97
		l-0.23,0.09l-0.32,0.07l-2.51-1.14l-0.58-0.06l-1.22,0.07l-0.5-0.11l-1.56-0.83l-0.77-0.04l-0.23,0.04l-0.19,0.13l-0.29,0.24
		l-0.17,0.24l0.16,0.1l0.49,0.1l0.38,0.27l0.32,0.38l0.3,0.43l-0.38,0.89l0.72,0.68l1.18,0.43l1.02,0.13l6.36-1.3L412.01,416.85z
		 M426.88,434.81v-0.02l-0.17,0.11l-0.31,0.08l-0.09,0.08l0.07,0.13l0.12,0.3l0.1,0.18v-0.01l0.02,0.03l0.29-0.59l-0.01-0.27
		L426.88,434.81z M398.01,417.33l-0.33-0.79l0.04-0.89l-0.45,0.38l-0.5,0.21l-1.73,0.1l-0.34,0.13l-0.32,0.18l-0.44,0.17l-0.63-0.01
		l-1.21-0.24l-0.54,0.25l0.54,0.5l0.66,0.77l0.55,0.8l0.23,0.64l0.26,0.36l0.62,0.43l0.7,0.28l0.51-0.1l0.3-0.24l0.28-0.01
		l0.33,0.08l0.47,0.05l0.3-0.08l1.51-1.01l0.37-0.38l0.2-0.53l0.06-0.84l-0.84,0.22L398.01,417.33z M389.83,415.72l-0.27-0.18
		l-0.31-0.14l-0.34-0.14l-0.2-0.25l-0.18-0.3l-0.3-0.26l-0.12,0.65l-0.38,0.23l-0.87,0.07l-0.54,0.39l-0.07,0.37l0.23,0.09
		l0.38-0.38l0.83,0.37l0.76,0.14l1.77-0.03l-0.16-0.35L389.83,415.72z M416.36,416.89l-0.41-0.07l-0.24-0.14l-0.35-0.1l-0.29,0.02
		l-0.07,0.08l0.08,0.11l0.49,0.23l0.27-0.03l0.4,0.05l0.39-0.09l-0.04-0.11L416.36,416.89z M568.04,406.31l0-0.46l-0.92-0.6
		l-0.34-0.37l-0.28-0.24l-0.49-0.26l-2.4-1.75l-0.43-0.51l-0.15-0.13l-0.57-0.37l-0.14-0.12l-0.23-0.25l-0.12-0.09l-0.11-0.04
		l-0.14-0.02l-0.38-0.01l-0.19-0.05l-0.15-0.16l-0.11-0.23l-0.09-0.41l-0.04-0.33l0-0.03l0.16-0.52l0.13-0.51l-0.29-0.35l-0.05-0.02
		l-0.14-0.71l-0.31-0.34l-0.38-0.3l-0.34-0.57l-0.04-0.23l0.04-0.82l-0.04-0.28l-0.09-0.15l-0.13-0.15l-1.88-3.86l-0.78-0.12
		l-0.61-0.38l-0.36-0.66l-0.05-0.98l-0.11-0.43l-0.23-0.56l-0.33-0.48l-0.41-0.21l-0.46-0.16l-0.2-0.42
		c-0.11-1.45-0.23-2.89-0.33-4.34c-6.52-6.09-13.07-12.15-19.5-18.33c-6.32-6.07-12.62-12.15-18.92-18.23
		c-6.35-6.13-12.69-12.28-19-18.44c-0.34-0.34-0.69-0.67-1.03-1.01c-6.52-6.07-13.02-12.16-19.52-18.25
		c-6.14-5.75-12.26-11.52-18.38-17.3c-1.44-1.36-2.88-2.72-4.31-4.08c-6.72-5.92-13.44-11.84-20.15-17.77
		c-6.69-5.91-13.36-11.84-20.03-17.77c-4.59-4.08-9.16-8.17-13.74-12.26c-0.07-8.85-0.01-17.71-0.01-26.56
		c0-8.24-0.01-16.48-0.01-24.72c0-9.18,0-18.37,0-27.56c0-9.08,0-18.16-0.01-27.25c0-2.35,0-4.71,0-7.06H277.53l0.33,0.69l0.12,0.4
		l0.04,0.42l-0.13,3.55l-0.21,0.66l-0.71,1.47l-0.79,1.05v0.24l0.97,0.4l1.45,1.05l1.15,1.28l0.09,1.09l-0.04,0.59l0.38,0.93
		l0.33,0.85l0.24,0.38l0.11,0.21l-0.03,1.02l0.02,0.36l0.18,0.38l0.24,0.29l0.28,0.22l0.3,0.16l-0.39,0.68l0.17,1.21l0.47,2.32
		l-0.08,1.15l-0.57,2.2l-0.25,2l-0.64,2.6l-0.53,1.33l-0.34,1.43l-0.46,0.56l-0.07,0.63l0.04,0.7l0.14,0.48l-0.05,0.53l0.93,1.5
		l0.29,0.8l-0.04,0.88l-1.73,5.64l-1.27,2.05l-0.3,0.82l0.53-0.29l0.48-0.67l1.29-2.31l0.16-0.12l1.17,0.14l0.32-0.14l0.27,0.21
		l0.12,0.05l-0.47,0.86l-0.53,0.32l-0.63,0.13l-0.76,0.28l-0.39,0.49l-0.74,1.52l-0.32,0.32l-0.05,1.51l-0.27,0.73l-0.66-0.31
		l-0.41-0.39l0.01-0.13l0.17-0.76l0.1-0.29l-0.87,1.17l-0.49,0.91l-0.39,1.17l0.06,0.11l0.11,0.17l0.05,0.16l-0.12,0.07l-0.11,0.03
		l-0.09,0.09l-0.07,0.13l-0.07,0.42l-0.8,1.5l-0.23,0.56c-0.18,0.67-0.36,1.35-0.54,2.02l-0.06,0.63l-0.13,0.57l-0.27,0.63
		l-0.19,0.61l0.09,0.51l0.43,0.78l0.86,2.28l0.19,0.95l-0.34,1.74l0.08,0.89l0.46,0.42l0.42,0.2l3.83,3.45l1.58,0.96l0.55,0.52
		l1.12,1.66l0.07,0.26l0.08,0.85l0.13,0.32l0.22,0.13l0.7,0.25l0.27,0.14l0.91,0.87l4.12,6.06l0.15,0.62l0.14,1.64l0.29,0.85
		l0.22,0.47l0.18,0.21l0.33,0.13l0.17,0.31l0.12,0.38l0.17,0.34l0.18,0.61l-0.08,2.6l0.81,2.17l-0.11,0.35l-0.42,0.35l-0.32,0.82
		l-0.34,1.64l-0.29,2.57l-0.44,1.31l0.54,1.32l-0.03,0.67l0.26,0.26l0.22,0.5l0.31,0.98l0.34,1.68l0.29,0.79l0.47,0.33l1.08,2.55
		l0.04,0.38l-0.04,1.24l0.06,0.38l0.28,0.74l0.06,0.39l-0.12,0.93l-0.31,0.47l-0.39,0.37l-0.38,0.64l0.12,1.1l0.82,1.24l2.02,2.21
		l1.53,1.25l0.26,0.37l0.26,0.55l0.6,0.57l1.1,0.78l0.89,0.9l4.86,6.55l0.97,0.87l3.48,1.83l0.86,0.92l0.73,2.16l0.71,0.72
		l-0.03,1.82l0.34,0.56l-0.02-0.24l0.02-0.75l1.67,1.14l0.52,0.59l0.12,0.29l0.14,0.69l0.11,0.3l0.8,0.99l1.36,2.22l1.16,1.38
		l0.46,0.77l0.19,0.87l-0.51-0.72l-0.73-0.67l-0.66-0.75l-0.29-0.97l-0.3-0.6l-1.5-1.56l-0.57-0.47l0.87,2.15l0.09,1l-0.95,3.59
		l-0.8,1.44l-0.19,0.56l0.77,0.05l0.21-0.05l0.22-0.13l0.04-0.09l0.01-0.1l0.32-0.48l0.17-0.32l0.23-0.31l0.4-0.31l-0.2-0.12
		l-0.13-0.14l-0.28-0.49l0.24-0.08l0.2-0.14l0.18-0.21l0.17-0.3l0.51,1.11l0.81,0.69l1.85,0.92l0.16,0.14l0.38,0.3l0.31,0.43
		l0.27,0.99l0.34,0.3l0.7,0.36l0.36,0.33l0.72,1.02l0.36,0.19l0.3-0.25l0.15-0.48l-0.11-0.56l1.61,1.34l0.85,0.93l0.98,0.71
		l0.41,0.39l0.52,0.38l0.69,0.21l0.65-0.06l0.4-0.39l-0.04-0.65l-0.34-0.51l-0.19-0.44l0.39-0.41l0.23,0.55l0.37,0.2l0.27-0.17
		l-0.07-0.58l-0.32-0.51l-0.89-0.75l-0.37-0.47l0.19-0.09l0.24-0.27l0.16-0.14l-0.29-0.37l0.03-0.41l0.28-0.33l0.82-0.29l-0.28-0.33
		l-0.77-0.51l-0.22-0.71l-0.02-2.08l-0.16-0.97l1.12-0.03l0.76-0.19l0.56-0.52l0.51-1.01l3.05,1.74l0.5,0.63l0.13,0.33l0.32,0.28
		l0.42,0.18l0.93,0.19l1.46,0.65l0.57-0.01l0.38-0.09l0.32-0.23l1.02-0.95l0.18-0.24l0.13-0.3l0.19-0.73l0.09-0.23l0.3-0.24
		l0.5-0.28l0.55-0.21l0.42-0.02l0.5,0.37l0.03,0.48l-0.53,1.17l1.31,0.4l1.44,0.1l-0.22,0.43l-0.14,0.16l-0.23,0.14l0.36,0.13
		l0.48-0.02l0.5-0.13l0.43-0.2l0.04-0.38l0.34-0.06l1.01,0.17l0.4-0.03l1.09-0.22l0.59-0.32l0.62-0.75l0.87-1.44h0.18l-0.13,0.86
		l-0.27,0.68l-0.41,0.54l-0.55,0.43l-0.3,0.1l-0.33,0.06l-0.32,0.11l-0.24,0.25l-0.1,0.33l0.03,0.32l0.14,0.23l0.22,0.09l1.29-0.21
		l0.67-0.26l0.29-0.39l0.02-0.49l0.07-0.27l0.41-0.49l0.2-0.12l0.18,0.05l0.19,0.12l0.22,0.06l0.14-0.06l0.22-0.33l0.14-0.08
		l0.67-0.01l0.51,0.13l0.41,0.25l1.96,1.67l0.5,0.18l0.31,0.27l0.49,0.61l0.39,0.6v0.27l-0.48-0.2l-0.59-0.47l-0.52-0.59l-0.27-0.49
		l-0.5,0.1l-0.66-0.31l-1.02-0.79l-0.12-0.25l-0.05-0.3l-0.11-0.27l-0.3-0.18l-0.3,0.03l-0.24,0.17l-0.19,0.19l-0.15,0.1l-0.66-0.02
		l-0.3,0.1l-0.13,0.3l-0.02,0.31l-0.06,0.37l-0.09,0.32l-0.12,0.13l-0.27,0.05l-0.29,0.13l-0.23,0.2l-0.1,0.25l0.14,0.09l0.86,0.28
		l-0.58,0.3l-0.6-0.06l-1.17-0.46l-3.49-0.37l-1.39-0.47l-3.51-0.43l-0.65,0.2l-1.33,0.87l-0.68,0.2l-0.57-0.2l-1.08-0.87l-0.62-0.2
		l-0.65,0.11l-0.44,0.3l-1.36,1.38l-0.3,0.15l-0.39,0.05l-0.3-0.08l-0.29-0.13l-0.22,0.01l-0.22,0.83l-0.34,0.57l-0.45,0.44
		l-0.46,0.12l0.76,1.25l1.15,0.53l0.98,0.7l0.27,1.73l-0.4,1.36l-0.01,0.79l0.52,0.35l0.6,0.09l1.49,0.56l0.56,0.33l-1.18,0.5
		l0.16,0.04l0.43,0.22l-0.19,0.54l0.25,0.1l0.74-0.14l0.36,0.23l0.18,0.29l0.55,1.41l1.22,4.19l0.38,0.76l0.45,0.53h0.7l0.19,0.06
		l0.13,0.16l0.18,0.3l0.04,0.17l-0.04,0.25l-0.01,0.21l0.11,0.09l0.22,0.03l0.47,0.24l-0.41,0.36l-0.58,0.15l-0.63-0.05l-0.56-0.23
		l-0.34-0.44l-0.31-0.63l-0.33-0.47l-0.4,0.04l-0.31-0.25l-0.31-0.32l-0.32-0.19l-0.62,0.28l-0.16-0.27l-0.12-0.42l-0.14-0.31
		l-0.41-0.26l-0.32-0.04l-0.2-0.16l-0.07-0.64l-0.2-0.13l-0.95,0.16l-0.31-0.03l-0.49-0.71l-0.21-0.19l-0.24-0.08l-0.51-0.03
		l-0.25-0.11l-0.36-0.35l-0.07-0.26l-0.02-0.31l-0.22-0.44l-0.02-0.36l0.19-2.3l0.08-0.33l0.2-0.19l0.44-0.17l-0.45,0.01l-0.14-0.18
		l0-0.29l-0.02-0.29l-0.39-1.49l-0.28-0.37l-0.61-0.12l-1.23,0.04l-0.6,0.15l-0.43,0.3l-0.49,1.43l0.18,1.57l0.38,1.56l0.12,1.41
		l-0.18,0.65l-0.5,1.08l-0.1,0.86l0.18,1.61l0.34,0.32l0.36,0.06l0.36-0.01l0.33,0.12l0.44,0.65l0.3,1.56l0.34,0.65l0.39,0.59
		l0.28,0.74l0.17,0.79l0.08,0.73l-0.14,1.56l-0.3,1.42l-0.03,1.34l0.66,1.33l0.86,0.71l0.38,0.46l0.16,0.69l0.3,0.42l1.84,1.42
		l1.63,2.13l0.89,0.88l2.2,1.35l0.57,0.23l0.64,0.09l0.67-0.14l0.63-0.24l0.57-0.04l0.48,0.42l0.96-0.61l0.84-0.08l0.79,0.44
		l0.78,0.98l1.67,3.2l0.69,0.98l-0.59,2.2l0.25,0.13l0.24,0.05l0.25-0.05l0.26-0.13l0.11,0.26l0.03,0.24l-0.04,0.23l-0.1,0.25
		l-0.68-0.21l-0.43-0.04l-0.22,0.36l-0.15,1.73l-0.24,0.73l-0.34,0.67l-0.41,0.54l-0.58,0.32l-0.47-0.27l-0.46-0.45l-0.57-0.2
		l-0.46,0.26l-0.39,0.59l-0.53,1.34l0.48,0.16l0.38,0.28l0.33,0.18l0.28,0.26l0.12,0.48l-0.13,0.32l-0.55,0.08l-0.13,0.31l0.09,0.63
		l0.71,1.71l0.3,1.52l0.07,1.53l0.05,0.29l0.36,1.04l0.09,0.43l0.02,0.25l0.06,0.21l0.21,0.33l0.3,0.25l0.32,0.14l0.25,0.22
		l0.1,0.49l0.13,0.36l0.31,0.36l0.36,0.27l0.87,0.24l2.76,1.86l0.84,0.92l1.45,2.44l0.48,1.3l0.35,0.63l0.45,0.27l0.68,0.09
		l0.57,0.25l0.47,0.38l0.36,0.47l0.29,0.55l0.25,0.67l0.18,0.75l0.07,0.8l0.17,0.71l0.41,0.52l0.99,0.88l0.69,1.01l0.38,0.46
		l1.04,0.54l0.34,0.81l0.3,1.54l1.1,2.15l0.61,0.1l1.66,0.88l1.03,0.18l0.84,0.9l0.86,1.69l1,1.16l0.82,1.1l0.79,0.76l0.83,0.57
		l1.95,0.31l0.73,0.34l0.34,0.43l0.2,0.51l0.25,0.96l0.22,0.39l0.57,0.76l0.21,0.51l-0.46,0.29l-0.42,0.07l-0.17-0.23l0.26-0.59
		l-0.21-0.22l-0.79,2.28l-0.05,1.27l0.08,0.57l0.28,0.55l0.74,0.67l1.72,0.7l0.75,0.54l0.13-0.17l0.49-0.17l0.6-0.09l0.45,0.06
		l0.24,0.18l0.55,0.56l0.25,0.13l0.5,0.19l0.23,0.17l0.26,1.08l0.14,1.22l-0.09,1.36l-0.19,1.38l-0.87,2.2l-0.11,0.81l0.13,0.3
		l0.85,0.75l0.22,0.27l0.17,0.27l0.12,0.31l0.07,0.38l-0.04,0.81l-0.44,1.38l-0.11,0.8l0.37,0.52l0.3,0.62l0.22,0.66l-0.09,0.91
		l-0.25,0.63l-0.25,0.48l-0.19,0.56l-0.29,1.11l-0.26,0.57l0.18,0.4l0.36,0.36l0.74,0.23l0.86,0.24l0.68-0.02l1.06,0.87l0.83,1.17
		l0.68,1.35l1.24,0.04l2.72-0.6l4.29-0.27l1.39,0.12l1.21,0.49l1.47-0.44l1.68,0.59l2.95,1.49l0.53-0.1l0.64-0.26l0.63-0.16
		l0.47,0.2l0.38,0.31l0.66,0.4l0.71,0.32l0.52,0.06l0.34-0.24l0.24-0.32l0.27-0.28l1.43-0.32l0.63,0.19l0.7-0.02l0.35,0.03
		l0.32,0.14l0.65,0.57l1.84,0.83l1.04,0.31l3.47,3.09l0.39,0.18l0.68-0.02l0.32,0.07l0.29,0.18l0.11,0.3l0,0.37l0.09,0.32l0.38,0.21
		l-0.15,0.41l0.1,0.46l0.25,0.49l0.3,0.43l0.11,0.22l0.09,0.43l0.1,0.17l0.13,0.1l0.28,0.06l0.17,0.11l1.28,1.16l0.75,0.42
		l0.91,0.05l-0.42-0.1l-0.25-0.09l-0.2,0.04l-0.14-0.3l0.96,0.18l2.4,1.47l2.88,0.83l1.43,0.15l1.13,0.48l0.52,0.49l0.52-0.31
		l0.58-0.25l4.18-0.49l0.41,0.03l0.29,0.14l0.22,0.03l0.32-0.14l0.44-0.25l0.72,0.16l0.86,0.58l0.9,0.8l1.1,1.71l0.67,1.59
		l0.59,1.28l0.18,0.62l0.05,0.52l-0.04,1.13l-0.23,0.47l-0.4,0.48l-0.13,0.57l0.58,0.76l0.19,0.11l0.3,0.1l0.33,0.02l0.27-0.14
		l0.32-0.08l0.29,0.31l0.28,0.4l0.29,0.2l0.29,0.08l0.33,0.14l0.34,0.09l0.32-0.08l0.15-0.21l0.02-0.28l-0.01-0.32l0.2-1.03
		l0.16-0.21l0.38-0.08l0.22-0.09l0.25-0.14l0.26-0.06l0.71,0.52l0.47,0.02l0.58-0.1l0.78,0.06l0.54,0.24l3.92,3.91l1.01,0.8
		l3.42,1.75l1.38,1.11l1.19,1.54l0.58,0.34l1.28,0.78l0.47,0.35l1.67,1.77l2.66,1.88l4.17,5.68l1.53,3.25l0.56,1.75l0.07,0.63
		l0.26,0.42l0.75,3.46l-0.01,0.55l-0.28,0.68l-0.34,0.36l-0.23,0.36l0.04,0.73l0.72,1.1l0.09,0.49l-0.03,0.71l-0.21,1.51l0.06,0.35
		l0.28,0.61l0.12,0.43l0.13-0.3l0.15-1.08l0.29-0.38l0.38-0.18h0.19l0.51,0.12l0.5,0.26l0.64,0.29l0.32,0.29l0.47,0.67l0.4,0.78
		l0.11,0.6l-0.22,0.29l-0.34-0.08l-0.22-0.45l-0.42-0.67l-0.32-0.63l-0.35-0.31l-0.06-0.45l-0.54-0.22h-0.42l-0.28,0.37l-0.22,0.34
		h0.82l0.63,0.45l0.48,0.79l0.51,1.02l0.09,0.86l-0.09,0.79l0.17,0.97l0.21,0.25h0.01c8.82-0.78,17.64-1.58,26.45-2.36
		c8.82-0.78,17.64-1.57,26.45-2.36c5.32-0.48,10.65-0.97,15.97-1.43l0.02,0.04l0.11-0.43l1.09-0.8l3.01,0.62l1.22-0.28l0.28-0.51
		l0.03-0.61l-0.02-0.63l0.11-0.59l0.37-0.45l1.07-0.74l0.33-0.44l0.08-0.74l-0.46-2.18l0.04-0.43l0.07-0.33l0.01-0.33l-0.12-0.43
		l-0.8-1.17l-1-0.55l-2.61-0.19l-1.13-0.45l-0.86-1.21l0.1-1.19l0.44-1.28l0.15-1.48l-0.29-1.98l-0.2-0.46l-0.9-1.03l-0.06-0.51
		l0.28-0.96l0.34-0.37l0.11-0.29l-0.17-0.37l-0.23-0.27l-0.3-0.43l-0.13-0.4l0.27-0.18l1.41-0.1l0.71-0.21l0.52-0.39l1.07-2.01
		l0.27-0.84l0.29-0.36l0.57-0.57l0.39-0.51l0.09-0.23l0.11-0.46l-0.16-0.75v-0.46l0.26-0.21l0.09-0.16l0.03-0.39l-0.02-0.74
		l0.14-0.84l0.31-0.49l0.34-0.39l0.19-0.51l-0.31-0.63l-0.12-0.38l0.15-0.17l0.1-0.19l0.03-0.4l-0.03-0.41l-0.1-0.18l-0.36-0.38
		l-0.11-0.83l0-0.88l-0.05-0.53l0.52-0.43l0.23-0.32l-0.04-0.3l-0.56-0.66l-0.23-0.38l-0.1-0.41l0.18-0.77l0.45-0.47l1.14-0.75
		l0.47-0.47l0.45-0.56l0.34-0.67l0.24-1.47l0.3-0.65l0.46-0.48l1.04-0.33l2.94-2.09l0.56-0.15l0.91-1.18l0.96-0.95l0.91-0.7
		l0.24-0.47L568.04,406.31z M445.97,437.64l-2.47-0.96l-0.47-0.11l-1.91-1.18l-0.77-0.2l-0.68,0.09l-0.23,0.48l0.33,0.45l0.66,0.37
		l0.74,0.25l0.55,0.08l0.76,0.2l0.27,0.5l0.06,1.44l0.16,0.76l0.26,0.6l0.41,0.39l0.63,0.14l0.28-0.07l0.72-0.35l0.28-0.07l0.4,0.1
		l0.98,0.6l0.57,0.09l0.45-0.18l0.12-0.47l-1.7-2.51L445.97,437.64z M444.68,456.15l-1.08-1.4l-1.38-1.05l-0.58-0.62l-0.42-0.91
		l-0.17-0.24l-0.2-0.34l-0.16-0.37l-0.07-0.32l-0.13-0.3l-0.32-0.09l-0.39-0.06l-0.35-0.16l-0.05,0.79l0.44,0.89l0.54,0.84
		l0.52,1.28l1.09,1.53l0.52,1.2l0.63,0.55l0.72,0.42l0.54,0.23l0.29,0.02l0.21-0.08l0.18-0.11l0.21-0.06l0.79,0.02l0.36-0.06
		l0.33-0.19l-1.34-1.03L444.68,456.15z M312.57,286.3l-0.15,0.19l0.06,0.1l-0.02,0.07l0.02-0.07l0.01,0.02l-0.02,0.07l0.11-0.35
		l-0.03,0.03L312.57,286.3z M328.89,280.15l-0.04,0.11l-0.13-0.01l-0.07,0.16l0.02,0.3l0.01,0.01l0,0.01l0.18,0.09l0.23-0.06
		l0.16-0.44l-0.02-0.01l0-0.01L328.89,280.15z M330.48,281.61l0.11,0.44l0.02,0.02h0l0.35,0.4l0.02-0.12l-0.02-0.01l0-0.01
		l-0.18-0.09l0.06-0.6l-0.02-0.01l0-0.02L330.48,281.61z"/>
</g>
<g id="copyright">
</g>
</svg>
