<svg id="Layer_1" data-name="Layer 1" xmlns="http://www.w3.org/2000/svg" xmlns:xlink="http://www.w3.org/1999/xlink" viewBox="0 0 86.48 86.44"><defs><style>.cls-1{fill:none;}.cls-2{fill-rule:evenodd;fill:url(#linear-gradient);}.cls-3{fill:#fff;}.cls-4{clip-path:url(#clip-path);}</style><linearGradient id="linear-gradient" x1="43.24" x2="43.24" y2="86.44" gradientUnits="userSpaceOnUse"><stop offset="0" stop-color="#00c244"/><stop offset="1" stop-color="#00d64b"/></linearGradient><clipPath id="clip-path" transform="translate(-22.8 -18.8)"><rect class="cls-1" x="22.8" y="18.8" width="86.4" height="86.4"/></clipPath><symbol id="RGB_Dollar" data-name="RGB Dollar" viewBox="0 0 86.48 86.44"><path class="cls-2" d="M56.28,86.44c8.72,0,13,0,17.72-1.48A18.31,18.31,0,0,0,85,74c1.48-4.67,1.48-9,1.48-17.68V30.16c0-8.67,0-13-1.48-17.68a18.31,18.31,0,0,0-11-11C69.33,0,65,0,56.32,0H30.12c-8.67,0-13,0-17.68,1.48a18.31,18.31,0,0,0-11,11C0,17.15,0,21.44,0,30.16V56.32C0,65,0,69.32,1.48,74a18.31,18.31,0,0,0,11,11c4.63,1.44,9,1.44,17.64,1.44Z"/><path class="cls-3" d="M45.4,58.11A18,18,0,0,0,57,53.85a1.77,1.77,0,0,1,2.43,0l3.34,3.35a1.72,1.72,0,0,1,0,2.42l-.1.09a26.51,26.51,0,0,1-8.93,5l1,4.93a1.74,1.74,0,0,1-1.35,2,1.47,1.47,0,0,1-.36,0H46.61a1.75,1.75,0,0,1-1.71-1.37L44,66c-8.56-.42-15.82-4.66-15.82-13.35,0-7.51,6-10.74,12.34-13,6-2.23,9.18-3.06,9.18-6.2s-3.17-5.12-7.84-5.12A17.27,17.27,0,0,0,29.67,33.1a1.73,1.73,0,0,1-2.44,0l-3.58-3.5a1.73,1.73,0,0,1,0-2.45l0,0A23.79,23.79,0,0,1,34,21.44l-1-4.57a1.78,1.78,0,0,1,1.38-2.1,1.17,1.17,0,0,1,.32,0h6.45a1.75,1.75,0,0,1,1.72,1.38l.93,4.33c10.26.63,16.53,6.15,16.53,14.23,0,7.44-6.25,10.58-13.84,13.14-4.34,1.63-8.09,2.7-8.09,5.92S41.9,58.11,45.4,58.11Z"/></symbol></defs><g class="cls-4"><use width="86.48" height="86.44" transform="matrix(1, 0, 0, -1, 0, 86.44)" xlink:href="#RGB_Dollar"/></g></svg>