<?xml version="1.0" encoding="utf-8"?>
<!-- Generator: Adobe Illustrator 24.2.3, SVG Export Plug-In . SVG Version: 6.00 Build 0)  -->
<svg version="1.2" baseProfile="tiny" xmlns="http://www.w3.org/2000/svg" xmlns:xlink="http://www.w3.org/1999/xlink" x="0px"
	 y="0px" viewBox="339.23 182.88 159.16 225.09" overflow="visible" xml:space="preserve">
<g id="Sea">
</g>
<g id="Land">
</g>
<g id="United_States">
</g>
<g id="Washington_x2C__D.C.">
</g>
<g id="text">
	<g>
		<polygon fill="none" stroke="#000000" stroke-width="2" stroke-linecap="round" stroke-linejoin="round" points="346.52,259.81 
			350.59,264.98 379.81,289.34 386.84,298.57 386.84,298.65 417.71,317.5 422.96,364.84 422.48,397.35 490.34,317.03 405.21,195.56 
					"/>
		<g>
			<path fill="#E83D3D" d="M438.26,298.97c-2.75,0-4.98,2.25-5,5.04c0.01,0.98,0.3,1.89,0.79,2.65l3.82,5.35
				c0.11,0.19,0.25,0.29,0.39,0.29l0,0c0.14,0,0.29-0.1,0.39-0.29l3.82-5.35c0.49-0.77,0.78-1.68,0.79-2.66
				C443.23,301.23,441.01,298.97,438.26,298.97z"/>
			<path fill="#FFFFFF" d="M440.26,303.97c0,1.1-0.9,2-2,2c-1.1,0-2-0.9-2-2c0-1.1,0.9-2,2-2
				C439.36,301.97,440.26,302.87,440.26,303.97z"/>
		</g>
	</g>
</g>
<g id="copyright">
</g>
</svg>
