<svg xmlns="http://www.w3.org/2000/svg" viewBox="0 0 316.28 303.1"><defs><style>.cls-1{fill:#fff;stroke:#333;stroke-linecap:round;stroke-linejoin:round;stroke-width:2px;}</style></defs><g id="Florida"><path class="cls-1" d="M263.37,292.59l-.31,0-.16.15.12.31.13.16.38.25.31.42.08-.22-.2-.66Zm-3.88,2.16.11.14.29.19.16-.36-.29-.17Zm1.88-51.57-.47.31v.22l1.09.43.3-.07.3-.32-.16-.31-.47-.1-.23.07-.17.09-.1-.2ZM261,291.51l-1.21-.95-.29-.05-.12-.07-.12-.16,2.7,4.18.06,1.33.9-.68-.6-1.76ZM259.76,243l.45.54.14.15.15.06v-.13l.11-.13.15-.2.24-.17.42-.05.27-.13-.11-.28-.29-.22-.27-.14-.74-.58-.28-.28-.71-.35-.45.39,0,.45.06.26v1l.27,0,.32-.31Zm-1.45-.76.12-.3-.12-.31-.11-.13-.08-.38-.29-.69-.38-.31-.64.12-.18.1-.36.08-.55.28-.12.49.19.26.13.12v.18l0,0,.07-.3,0-.18V241l.21-.16.19.15.12.16.64.05.23.32.12.25.17.26.28.29Zm.22,51.37-.3,0-.09.14h.14l0,.08L258,294l.05.3.47.41.09.19h.22l.09-.44-.11-.5ZM266,294l-.51.61.07.08.39-.21.33-.31-.07-.19Zm23.91-19.32.57.33-.15-.27Zm-1.36-1.52.22.35.07-.36Zm1.33.71-.17-.11-.06.45.13-.05.15-.05ZM272.09,292l-.83.38,1.31,0,.45.26.21.66.21-.6.26-.42.36-.3,1-.39.12-.13,0-.31-.88.13Zm15.67-12.79,0,.29.27-.23Zm-30.64,14.24-.13-.15-.31-.24-.31-.15-.25,0-.19-.12-.14,0-.17.47,0,.59.16.38.1.1.11.08.19.05.17-.11.21-.06.25.09.23.23.17.32.12-.19-.07-.82Zm31.06-8.2-.35.18-.25.25-.1.28.19,0,.63-.41.3-.22.47-.54-.06-.21Zm-2.95,1.62-.25.24-.11-.07v-.32l.07-.43-1.82,1.3-.4.49,1.48-.1.67-.19.35-.31.21-.28.05-.13v-.2Zm-9.77,4.91,3-1.29.59-.54.51-.09.17-.09.17-.15v-.28l-1.29.28Zm11.15-14.18.28.45,0-.22-.15-.39ZM248.18,239.9l.11.22.11.3.24.12.53.07.22-.25.49-.87-.15-.47-.52-.19-.51.08-.41,0-.39,0-.09.42.08.26.1.11ZM226,204l-.05-1.09-.26-.23-.13-.07h-.2l.52,2.13.35.92.56,1-.16-1ZM130.21,59l-1,.62-1.62.85-.31.39,2.27-.49.92-.51.4-.92-.29-.1ZM210.3,171.7l-1-1.82-.4-.34-.68-.33.18.57.49.78.29.35.34.71,1.73,2,.71.55-.15-.69ZM225.49,200l-.21-1-.44-1.05-.2-.31-.12,0-.24.27.39.84.13,2.21.34,1,.3-1ZM193.66,90.35l-.21-.28-.28-.2-.31.25,0,.65.34.19.52-.25.3-.11-.14-.07ZM124.87,62.61l-.54.18-.19.08-.15.22-.17.21-.32.09-.42.07-.11.17,0,.21-.13.19-8.68,4.18-1.8.45-.91.06L110.31,68l-.66-.16,1.06.73.9.28,2.39,0,.86-.26,2.48-1.43.86-.73,4.06-1.74,2.42-1.9.93-.37v-.19l.33-.32.23-.1v-.35l-.52.28Zm174.85,88.44,1.17,3.4.76,1.33.09.4.09.56.36.92.2,1.38.29.64.37.6.36.76,1.68,6.91.52,1.45.06.59.12.25.56.45.12.22.16.66,2.48,5.46.44,1.78.83,1,.58,1.3-.17-1.06-7-18.73-.14-.72-.07-1-.18-.95-.58-1.71-1.65-2.88-.83-1.88-.31-1.87-.13-.17-.1-.09-.07-.14v-.22l-.31.09-.11.09-.14.15ZM45.93,30.92l-1.4.36L44.25,31l-1,.41L38.9,32l-1.78-.06-.63.08-1.12.43-.37.16-1,.32-2.9,0-2.39.84L24,34.5l-3.31.07-.75.28,2.25.29,27.71-3.53.44.21.46.07.41-.07.34-.21-3.9-.51Zm64,35,.23-.23-.09-.51L110,65.1l-.51,0-.54-.2-1-.15-.58.5-.77.06L104.94,65l.42.36.82.33.43.24.28.32.28.43.31.39.36.16.87.32h.48l.21-.47.09-.43.22-.42Zm122.9,147.84-.78.07-1.35-.3-.79-.34-.63-.49-.48-.7-.35-.94-.11-.5-.16-.44-.21-.36-.36-.28.18,1.4.38,1.42.29.68.37.49.45.37,2.47,1.44.62.14.7-.23,1-.87.77-.17-1.7-.92ZM250,297.29l-1.11.31-.48,0-.38-.33h-.26l-.19.27-.09.25.05.23.23.22v.28l-.41.46-.18.14,3.1-.88-.18-.76Zm-3.26,1.26-.17-.16-.22-.13h-.25l-.83.73-.31.15-.44,0-.43-.14-.35.09-.17.7,1.23-.17.61-.18.39-.27.17-.27.13-.33.17.26,0,0,0-.14,0-.1.1.23.11.19.14.12.23.06-.06-.34Zm44.53-22.63.18-.12-.11-.26-.2.12Zm-36.79,17.43-.13,0h-.12l-.07-.07,0-.22h-.25l-.28.94.41,0,.28.1.06.17-.22.26v.33l.74-.06.43.24.13.44-.19.6h-.25l-.22-.53-.53-.35-1.21-.34.25.31.25.22.6.38-.3.39-.14.08-.09.14-.25.18-.9.44-.4-.24-.47.17-.8.68v.3l2.91-.83,1.4-.58,1-.73v-.33l-1.4-1.63Zm.31-54.26-.27-.32-.51-.05-.11.39.1.26.19.2.26.14,0,.4-.09.68.12.18.37-.78.12-.35-.09-.29-.21-.23-.08-.13,0,0Zm-23.87-35.36-.79-.82-.82-.3h-.55l.53,1.33.77,1.44.54,1.39-.17,1.13.53.88.61,2.23.54.92.55.2,0-.8-.29-2.32-.32-.67-.63-1-.48-1,.4-1.63Zm.21,93.71-.51-.16-.46.11-.1.13.22,0h.22l.28.16.34.19.32.63.05.25.11-.44-.08-.48Zm-.37,1.83,0,.12.41-.12.21-.17-.2,0Zm41.61-34.47.33.26.39.24.11-.43.09-.21,0-.19-.11-.34-.34-.06-.46.11-.16,0,.08-.1-.24-.07-.24.24Zm-64-162.65.29.07.14-.09,0-.1-.15,0-.14-.1-.21-.09h-.23l-.14.1.07.07h.13Zm-5.16-9.64v-.22l-.19-.12h-.19l-.22.1-.07.34.14.17.27-.08Zm4.31,14.68.08.26.16.16,0,.18-.16.24,0,.12.19,0h.43l.34-.29v-.48l-.26-.35-.33-.17-.29,0Zm-1.33-3.66-.07.25.19.11v-.12Zm-.48,3.22-.15.08,0,.14.13-.06Zm3.55,11.48.12-.06,0-.11-.17-.31-.37,0,.21.14.13.2v.08ZM207,110.1l.17,0,.17-.1,0-.09-.21,0L207,110Zm-.28-7-.12,0,0,.22.17-.16.11.09,0,.1.28-.3-.17-.15-.17,0,.11.12,0,0Zm-.5,2.44.08.13.34-.17.17,0,.11.06.18.06.13-.09-.13-.09-.37-.11-.34.08Zm1.59-2.22.49-.1.39,0,.17,0v-.09l-.16-.15-.2-.09h-.2l-.26.06-.26.17Zm84.81,13.75-.68-1.38-.57,0-.5.22-.91.67-.86.52-.24.32-.26.76-.86,0-.32,1.25.1,1.51.37.73.35,3.73.2.85.59,1,1.45,4.41.61,1.26-.07-.68-.3-.75-.36-.91-.08-.54,0-.43.19-.83.26-5.65.34-1.75,1.27-2.87Zm-83-14.49-.4-.17-.26.11.42.29,0,.22.06.22v.23l.09.23.29.22.1-.14,0-.14-.07-.11v-.63Zm81.85,31.32.11.49.06.56h.3l-.12-.42-.68-1.49ZM209,114.24l.14.1.11,0,0-.12,0-.17-.05-.18-.65-.06-.06.06.19.06Zm-.75-1.42-.09-.31-.08.1Zm.46-1.79-.16-.17,0,.21.11.06Zm.67-2.45-.31-.07-.34.13.1.21.73-.18Zm-1,.73-.23-.06-.24.1v.17l.15.08-.11.06-.16,0-.15,0,0,.15.59.22v.18l.16.12h.18l.06,0,.22-.34,0-.55-.28-.12ZM273.61,265.8l.15.59.32.53.32.12.29-.19.13-.29.36-.53-.12-.49-.19-.08-.5-.11-.53.07Zm22.19,4.94-.14,0-.06.17-.19.06-.12.17h0l.29-.06Zm2.34,3.6-.12-.62-.17.44-.3.23-.06.18-.1.05-.09.17.09.14.52-.56Zm11.43-17.22-.12.22-.65,2.6-.35.73-.55.44.12.05h.09l.06.06.58-.54.55-.95.39-1,.16-1,.07-.19.07-.36-.06-.23Zm1.27-10.5-.17.24-.23.21-.32.2v.28l.18,0,.11.07.11.09.16.09-.43.41-.07.47.26.36.52,0,.19-.29.08-2.51H311ZM293.5,272.11l.15-.32-.28-.17-.3-.12-.17.21.14.19ZM291,274.36l-.2.06v.12l.17.18.06.25.11.06.08.15.1-.2v-.32l-.13-.17Zm-11.5-6.31.14.28.08.65.07,0,.16-.28.08-.38-.21-.58-.26-.28-.24.27,0,.34.08.05Zm26.29-4.1-1.1,1.6-.54.34-1.3.32-.26.28.14.51.33.24.3.3.09.65-.38.94-1.51,1.62-.78,2-1.84-.38-.25.79.57-.23.47.17.23.42-.15.53-.32-.16h-.14V274l.19.33-.36.54-.44.23-.87.12.14.57-.26.54-1,1.05-.58,1-.31.23-.67.07-.22.26-.47,1.57-.48.19-.61.14-.38.24.21.5h.8l.92-.92,1.51-2,1.27-1.1.31-.46.37-1,.27-.48.45.14.44-.26,3.32-3.27v-.28l-.18-.69.51-1.09,1.33-1.92,1.19-1.54.21-.45.09-.35.2-.52.26-.52.28-.29.17-.1.16-.13.13-.17.13-.25-.89-.36Zm-13.67,18.23-1.29,1.57.41-.16.86-.87.34-.53v-.1l0-.16Zm-19.69-18.74-.24.12-.13.21.3.1,1.44.1.05-.13-.65-.11Zm2.4,1.79.37-.29-.1-.17-.71-.19-.22.07-.09.24.11.27.19.18ZM316.19,202l-.24-1.42-.54-.71v-.34l.63-.66v-1.22L315,193.26l-.27-.47-.38-.3-.91-.26-.51-.24v-.28l.48-.23.48-.06.42-.14.29-.5-.06-.54-.77-1.66-.84-2.47-1-2-.12-.67-.27-.72-1.14-.58-.27-.59-1.54-1.73-.32,0-.92.3L307,180l-.65-.41-.28-.08-1-1.21-.24-.38.54,0,.35.19.25.25.28.23.91.47,1.63.41.47.41.36.92,0-.71-6-14.56-1.44-6.94-13.07-29-.32-1.09-1.2-2.45-.76-2.64-.37-.94-1-4.46-.16-1.9-.16-.9-1.26-2.46.31-.28v-.35l-.46-1.12L283,106.8l.8.35,1.36,1.26,1.75.65.12.81-.31.94-.35.7-.3-.29-.3.66-.16.89v.92l.17.68.58.67.74.35,2.6.44h.36l.49-.15,0-.16-.05-.67,0-.18h.27l.23.13.2.17.13.06.81-.06.56.2.36.45.25.7.3,1.83,0,1.84-1.22,5.83-.09,7.94.39,1.94,1.21,3.66,2.41,4.39.39,1.6,1.21,1.42.17.33.13.42,1,1.91,0-2-3.28-5-.86-2-.13-.73-.59-1.32-.87-4.68-.19-2.53.11-1-.31-.31.3-.59,0-4.52.13-.24.33-.16.31-.35.22-.38.1-.25.37-.08.72-.84.51-1-.62-.91-1-3L292,113.25l-2.16-3.06-2.56-4.74-5.5-8.76-.22-.88-.36-.84-.71-.53-.52-.53.23-.81-3.77-7-2.66-7.37-2.45-5.48-1.81-3.37-.26-.86-.18-1L269,67.1l-.18-.88L267.61,64l-.57-2.8-.41-.42-.26-.5L266.14,58l-.21-.68.31-.35-.41-.18-.27-.26-.07-.35.16-.45-.22-.07-.38-.19-.23-.07.24-1.48-1.38-5.41L263.43,45l-.18-.9-.88-1.62-.36-.85-1.32-5.14,0-1.94.27-2.1-.13-.44-.29-.32-.29-.25-.12-.26.14-1.52-.14-.6-.21-.44-.19-.17-.2-.11-.24-.25-.19-.37-.27-.72-.25-.38-1.11-.92,0-.19-.7-.26-.31-.67-.06-.83.1-.83,0-1.07.08-.39.36-.16.39.15.31.37.21.47.07.47,0,1.1.11.86.34.66.65.48-.16-1.36.16-4,.3-1.26.07-.81-.21-.34-.15-.11,0-.22-.07-.22-.31-.11-.31.05-.57.23-.25.05-1-.39,0-.37-.3-.07-.74-.21-1.32.4h-.39L252,16.7l-.41-.19-.55-.34h-.29l-.42.06-.45,0-2-.59-.6-.27-.41-.25-.27-.25-.39-.28-.58-.16-.37,0-.37.05-3.72-1.54-.55-.31-.31-.24-.6-.38-.37-.09h-.56l-.57,0-.31,0-.35.1-.21.18-.1.19-.07.3v.1l0,.31,0,.23-.13.22-.18.15-.36.06-.34,0-.43-.13-.2.05-.12.17-.08.5-.06.26-.12.23-.49.48-.12.18-.08.21-.06.21,0,.46.14,1.17,0,.27-.05.31-.28,1.07,0,.26,0,.56.08.37.13.44.19.41.79,1.12.18.35.06.23.05.47v.55L235,27l-.82,2.94-.1.61,0,.29.09,1.36,0,.29-.08.37-.16.19-.22.1-1.11.31h-.18l-.21,0-.76-.24-.27,0-1.9.22-.38,0-.29-.09-.22-.15-.15-.17-.24-.4-.61-1.75-.08-.42v-.23l0-.27.11-.56.2-.69,0-.25,0-.24,0-.22-.06-.21-.2-.42-.17-.3-1-1.25L226,25.3l0-.2v-.19l.07-.18.17-.3.12-.3V24l-.09-.07-1.68-.1L223,23.7l-1.91-.14-2.3-.16-2.67-.17-3-.21-3.29-.23-3.55-.24-3.79-.26-4-.27-4.18-.29-4.33-.3-4.43-.3-4.52-.31-4.56-.32-4.59-.31-4.59-.31-4.54-.32-4.47-.3L154,19l-4.24-.29-4.07-.29-3.88-.26-3.66-.24-3.41-.24-3.12-.22-2.79-.19-2.46-.17-2.08-.14-1.68-.11-1.23-.09-.75,0-.27,0L119,16.57l-.36.05-1.82-1.93-.61-3.11,0-2-.3-1.11-.56-1.12L115,7l-.33-1.42-.23-.52-.25-.25-.71-.51-.18-.21,0-.59.08-.16H7.8L7.54,4l.07,2.22-.06.23L6.7,8.29l-.15.48-.06.29,0,.29.06.37.17.39.41.64.47.59,2,1.94.22.35.85,1.56.57.81.58.46,3.28,2,.32.3.15.17.05.47,0,.69-.27,1.65L14.92,23l-.7,1.26-.15.41-.05.2.09.76.76,2.25,0,.05.68.4.29.23.35.14.82-.09.35.09.35.46.2.65,0,.56-.37.26-1,.22-.76.59-1.19,1.44v.32l.49.36,0,.46-.31.49-.46.36-.5.12-1,0-.5.19.72.25.7.36L12.27,36l-.47.14-.36.25-.25.28-.28.24-.47.2v.34l.44-.2.89-.25.34.11.7-.41,5.8-1.22.91-.41-.15-.86.41-.14,1-.16.35-.19.16-.46-.13-1.16.1-.45.76-.47.93-.08.79-.28.33-1.1.17.14,0,0,.08.11h.25l1-1.82.16-.58-.18-.83-.75-1.19L24.66,25l-.14-1.51.14-.5.6-.09.46.28.22.49.29.41.7.1-.08.22-.1.56-.09.21.9.12.34.68.14.83.27.62-.23.65-.07.78.23.54.63,0,.41-.51.28-1.62.51-1.1L31,23.54l.22-.34,0-.47-.38-.83.87.5.44,1,.42.63.77-.51.23.29.05.15,0,.21-1.4.62-.59.51-.24.68.06.46.2.22.31.08h.4l.18.21.56.91.36.2.69.07.91.24.85.42.49.56-.06.51-.59-.2L35,29.23,34.47,29l-2.65,2.17-.74.14-2.23,0L26.4,32l-1.53.72-.34.08-.25.21-.17.52,2.05-.26,4.06-1.14,6.33-.86,2.29,0,1.16-.2.9-.45.87.36,3.31-.36,3.18.19.47-.34,0-.72,0-.2,1,.14.51-.15.51-.69.36-.16.53,0,.53-.18.48-.24.42-.32.09-.35-.21-1.18,0-.56.34.62.4.45L54,27l.28-.52.3-.24.39-.1,1,0-.93,1.26-.18.7.56.6.72.1.56-.35.51-.46.58-.23.79-.09,1.78-.47.78-.1,1.73.3.82-.06.66-.6.5,1.26.53.45.72-.16,1.06-.53,0,.79-.29.22-.21.22.23.71L68.12,31l0,.25.32.35,0,.65-.4.35-.72-.55-.41-.23-2-.57-1.11-.87L63.26,30,62.7,30l-.52.28.1.34.49.26.63.11.19.13-.12.3-.26.33L63,31.9l-1.84-.46-.45-.4-.3-.53L60.19,30l0,.05,0-.07-.19,0-.23.48-.22.65-.3.56-.5.24L56,31.28l-3.28-.1L52.06,31l0,.14v.13l-.05.08L53,32l4.9.56,7,1.93,5.18,1.59,4.73,2.48,3.5,1.73,4.9,3.6,1,.25-.31-.45-.25-.3.32-.09.52.55.32-.68-.7-.63-.74-.46-.33-.58.62-.89-.51-.51-.38-.53-.46-.42L81.57,39l-.88.15-.54.24h-.46l-.63-.53L78.77,38l.42-.62.74-.42.68-.19,1.29-.15.47-.34.47-.83.49,1,.53.76.37.69v.81l.49.16.28-.38.29-.51.46-.27.57-.2.6-.37.47-.06.19.63.72-.49,1-1.7.4-.37.41.23.36.56L91,37.07,90,37l-1.59,1.9-1-.39-.62.1-1.71,2.14-.87.5.33.47.28.32.34.25,1.42.7.39.31.31.55.7-.2.94.38.89.59.55.48.09-.24.11-.19.07-.21v-.32l.76.3.63-.21.64-.32.77-.06v.29l-.59.5-.16.72.29.42.73-.35.16.69-.08,1.59.36.79.62.29.4-.39.49-1.06.37-.2,0,.1v.25l.17.2.33,0,.66,0,.28.14.19.51-.48.24-.65.18-.33.36-.65.37-1.44-.59L92.7,47.85l-.65-1-.71-.69-2.66-.82,0-.87-2.48-.44-.32.1.35.54,2,2,.54.25L94,51.23l-.81,0-1-.61-.84-.86L91,49h-.32l.1.43.11.32L91,50l.21.28,1.19,1,4.68,2.19.67.55.73.76.58.86.25.87.28.67,1.31,1.7.38,1-.18,3.29,0,.54.14.19-.29.44-.47.43-.38.22-.57,0-.31-.19-1.07-1.63-.45-1-.29-1.06-.1-1.07.1-3.23-.1-.46-.62,1,.12,2.4.78,3.93.38.68.67.7.81.38,1.55-.7.9,0,1,.16.87,0,4.76-1.56,1.65-.07,3.24.35.54-.31.82-1.26,1-.15.71-1.19.54-.31.63-.23.53-.44.54-.25.66.31-1.21,2-.19.38.2.82.46-.16.59-.51.55-.3.8-.17.65-.39,1-.75.62-.19,1.1-.14.51-.28,2.06-2,1.23-.87,2-.56,1.69-1.39,2.23-1.29.45.48.67-.06.77-.26.79-.16,1.69.16,1.53.5v.29l-.17.17-.39.5,1.16-.7.53-1.08-.29-1-1.27-.44-2.51-.33-.38-.24,0-.52-.15-.45-.66,0,.52-.73.61.19.79.53,1.38.41,1,.43.57.1.09-.19-.81-1-.27-.43-.12.17-.3.31-.11.19-.18-.43-.12-.24.11-.37.06-.11,0-.09-.15-.39.3-.35.16.15.11.07.26.13v-.75l.26-.38,1.46-.81.48-.1,1.29.09.06-.22.24-.49.34-.53.36-.33H144l.2.11.13.12,0,.07h.84l.24-.11.24-.43.26-.09.24,0,.11.12.07.12.12.06.32.28.17.57.22.41.41-.17.84-.54,2.94-.26,1.31-.55.8-.07,3,2.45,3.84,2.44,1.83.79,1-.2.87,1,.5.41.71.18.51.27,1.78,1.36.38.46.35.59,1.53,1.62.35,1,.18.25.39.23.38.29.17.48.22,1.12,0,.48.25.78.61.91.74.81.66.57,1.4.64.27.22.48.47.35.26.83.34.81.13.7.22.48.59.17,1-.06,1.08-.27.94-.43.53.24.45.19.68.05.66-.2.43,1,.77.54.27.4-.06,2.07,2.45,1.12.91,1-.17.84.71.7.76,1.25,1.71.7,1.38.11.08.06,1,.09.46.15.3.38.43.65.41.74.31.63.13.57.25.38.59.27.66.3.41-.47.44,0,.42.32.31.59.12.21.26,0,.54.18.54.68.25.54,0,.27,0,.72-.27.61-.11,1.15,0,.47-.15.72.45.91.38.93,0,.82-.57.17.26.48.46.18.25.32-.22.82-.41v.94l.1.72.32.53.7.38-.87.53.46.79,1.52,1.21,0,.2v1.4l-.12.46-.2.48.23.37.48.22.48,0-.27.93.22.8,1.71,2.14.29.23.31.12.79.11.27.12.44.6.1.67-.3,2.24,0,.5.3,1.37-1-1.28-.65-.37-.57.71.11.41.81,1,.2.61.14.17h.27l.29.07.13.38v1.6l.09.45.12.33,0,.31-.34.46-.15.34,0,.41.12.39.15.32-.4.8-.15,4-.42,1.38-.09.55-.05,2.49-.88,1.55,0,.34v.29l-.48.54-1.47,3.89.29-.1.12-.06.16-.15.08.6-.33.65-.87,1.29-.32,1.3-.25.62-.54.6-.38-.26-.19.62,0,.9,0,.63.22,1.15.24.7.38.67-.37.4-.11.57-.06,1.22-.89,4.2-1.36,3.7-.21-.66.09-.81.3-.79.39-.6-.43.41-.45.65-.37.79-.15.84.08.89.39,1.31.08.61.57,1.08,2.49,2.45.57,1.51.12.76.32,1,.46.82.52.11,0-.58-.28-1-.6-1.57-.48-.84-2.43-2.64-.32-.64.15-.64.77.77,1.59,1.26.72.85.74,1.1.49.32.88.11.08.2-.05,1,.09.39.23.2.28.09h.75L210,157l.46-.68.14-.83-.29-.74.51-1.42.05-.29.12-.24.55-.7.17-.46v-.55l-.22-1-.06-.54,1.3-.79.36-.28-1.74.22-1.57-.62-1.52-.88-1.56-.64.65-.77,1.88-.53.5-.58h-1.5l-.38-.09v-.22l.24-.34,0-.2.2-.51,0-.36-.07-.32-.35-.73-.11-.4,1.65,1.61v-.63h.25l.34.49.51.43,1.13.62v.34l-.84.31v.35l1.28,0,1.07.24.73.59.26,1.18-.26,2.21.06,1.15.5.88.37.09,1.44.06.19-.46-.07-.47-.25-.65,0-1.68.17-.74.36-.54.84-.48.71.07.5.56.37,1.9.8,1.91.12,1.05-.33.7-1.32,1.48-.3.47-1.14.8-.19.31-.64,1.28-.29.19-.37.12-.32.24-.14.53-.12.36-1.13.9-.55,1-.29.95-.39.82-.88.59.17.44.1.17-.48.56.52-.22.65-.1-.25.55-.56.42-1.19.32-.64.33.6.13.49.18.44.27.42.37-.86.06-1.06-.54-1-.31-.71.79.25.28.28.21.3.05.29-.19h.25l0,.45-.08.41-.19.37-.29.32-.45-.46-1.07-.5-.43-.32-.21-.36-.63-1.51h-.28l.15.73.78,2.07.47.67.64.27,1.51.26,1.58,1.19.77.4.58.6.45,2.21.85,1.75,0,1.14h-.28l-.13-.28-.13-.13-.15-.08-.18-.16v1l.51.89.68.9.48,1h.3v-.62l.42.29.28.5.14.65v.77l-.22-.23-.14-.23-.19-.51.23,1,1,1.89.41,1.62,3.7,7.37.26.9.17.17.21.16.49.29-.19-.69-.54-1.07-.14-.72L222,192l1.19,3.89,1.22.83h.37l.29.06.58.21.32.2.39.37.28.08.24,0,.12-.11.07-.1.13,0,.2.09.38.46.14.08.25-.17.3-.33.24-.32,0-.16.35.49.14,1.29.36-.19.27-.61,0-.67-.36-2-.65-1.67-.22-.36-.25-.29-.57-1.4-.43-.51-.3.34-.45-.41-1.18-1.48-.48-.85-.12-.37.84.42.46.51.81,1.38.6.16.67-.35.41-.13-.14.78.74.87.45.39.19-.15.25-.43.5-.08.5-.16.17-.72.94.26.74-.15.7-.29,1.66-.34.88-.85.69-.21-.51,1.39-.23.33-.38.2-.9.19-2,1.22-.8.61-.05.59.82.71.56.27.3.42.1,1.11-.09,1-1,5.27,0,1,.19.7.71,1.62.21.82-.06,1.05-.21.67-.07.55.34.8.63.7h.51l.57-.34.81-.35v.64l.4-.2,1-.28.33-.16.17-.24,1.23-3.53.44-.73,1.34-1.43.78-.65.68-.28.77-.11,1-.58L245,202l-.18.55-.21.41-.31.32-.41.3-.43-.24-.45.2-.36.39-.16.42-1.78,1.78-.47.59.16,1.14-.76,1.24-1.09,1.06-1.11.75-.18.21-.18.18-.31.06-.29-.13-.28-.51H236l-.24.41-.11.67v.67l.1.44.25-.33.23.23.12,0,.55-.27,2.22,1.24H240l.19.12.18.21.27.13.2-.13.16-.39-.15-1.13v-.67l.28.7.81,1.44.29.67.21.89.07,2.82h-.28v-.3h-.27l.14.74,1.22,2.23,0,.15v.3l-.25,1.55.35,3.54.73,3.24h.3l0-.49v-.48l.1-.45.17-.42.69,3.24.65,1.15,1.16.91-.35.42.11.56.39.52.44.34.39.1.92-.12.61,0-.14.53-.31.61-.4.5-.37.22-.46-.24-.45-.47-.48-.3-.57.23.26,1.32.16.35.4.47.15.1.29,0H248l0-.31.23-.2.09-.1.15-.34.13-.25.28.39.41.22.48.09.51-.11.39-.25.31-.63.41-.33.23.54.39.36.46.17.34-.11.07.29.1.1v.14l-.17.33.33-.13.47-.4.17-.08.36.1.56.42.84.36.47.45.43.2.55-.58.42.38.53.74.47.4.5.21,1.2.21.53.22,1,.69,1,.87.77,1.2.31.35-1.07.81-.38.5.51.22.18.26.5,1.2.26.39.35.06,1.38.1,0,.81.15.51.33.36V250l.86,1.55.42,2,.16.43.48.19.92-.22.39.19.06.31-.16.35-.24.28-.76.51.46.89,1.32,1.49.59,1.73,0,.43.22.93.05.48.31.47,1.88,1.51,1.55.3.23.1.71.44,1.43.24.75.4,2.32,2.46.27.79-.4,1-.72.53-.88.24-.89,0-.72-.3v-.27l.23-.08.38-.19.23-.07v-.31l-3.12-1.32-.53-.37-.13,0-.71-1.37-.28-.36-.41-.41-.48-.33-.49-.09.25-.65-.76.6-.67,1.48-.44,1.76-.05,1.4.46,1.37.68,1.41,1.91,1.84.64.15,1.9-.46,1.64-.16,1.33-.29,1.56,0,.76-.14.94-1,.17-.06,1.15-.74.6.57,1.21.26-.14.36v.33l.36.14.19,0,.13-.13.15-.37.21.25.22.15.21.1.2.14.05-.21.07-.13.09-.12.09-.18.4.48.65.23.69,0,.49-.09.81-.78.53-.24.61.38h.26l.24-.38,0-.27-.14-.3-.07-.41.23-.15,1.49-.32-.08.19,0,0h-.06l-.13.1.64.22.37-.65.29-1,.39-.73.63-.2,1.64,0,.53-.08.15.29.05.14,0,.18-.36.08-.2.1-.1.17-.16.3.28.14.22.19.19.25.13.31.7-.45.8.11.62.56.13,1h.3l-.13-.9-.49-.71-.74-.41-.89-.08.51-.58.81-.39.63-.05v.68l.56.2.8,1.16.62.51v-.43l-.52-.5-.5-.67.12-.89,0-.49.7-.8.15-.4.07-.39.19-.34,1.85-2.1,1.48-1.29.06-.56-.3-.35-.52-.3-.33-.36.3-.84.33-.63-.16-.24-.29-.18-.18-.26-.13-1,.07-.83.36-.81.66-1,.26-.77,0-2.2.14-.87,1.19-1.17.85-1.92.07-1.09.14-.43.45-.4.39-.07h.4l.42-.17.61-.86,0-1.88.52-1.2.25-1.62,1.47-1.92.33,0,.13.6,0,1.17-.27,2v1.88h.27l.65-13.25-.65-1v-.34l.68-.51.38-1.36,1-6.67-.13-1,.25-.67.07-.76,0-1.55.09-.69.41-1.37.33-6.15.64-.09.23-1.31Zm-24.58,72.31.06-.44-.17-.55,0-.09-.15.14-.05.46.15.49Zm-13.93-6.16.25-.19.28-.05-.26-.33-.23,0v.07l0,.08,0,.05-.18.22Zm.75,1.27.38.12h.06l-.05-.34.32-.15.19-.13-.09-.07,0-.17-.28-.08-.23,0,.11.15-.11.2ZM210.92,163.65l-.11.14-.21.39.76-.32-.29-.17Zm.5.24.07-.09-.13.06ZM200.31,296.13l.05-.08,0-.17Zm-2-.28.18-.12-.13-.14Zm2.34.1v-.16l-.05.13Zm.59-.92v0l-.09.05,0,.06v0l.06,0,0-.09Zm-.46,1.1.07-.11-.08,0Z"/></g></svg>