<?xml version="1.0" encoding="utf-8"?>
<!-- Generator: Adobe Illustrator 24.2.3, SVG Export Plug-In . SVG Version: 6.00 Build 0)  -->
<svg version="1.2" baseProfile="tiny" xmlns="http://www.w3.org/2000/svg" xmlns:xlink="http://www.w3.org/1999/xlink" x="0px"
	 y="0px" viewBox="60 27 720 540" overflow="visible" xml:space="preserve">
<g id="Background">
</g>
<g id="Mexico">
	<path fill="none" stroke="#000000" stroke-width="2" d="M176.65,225.07l-0.13-0.39l-0.02-0.41l0.03-0.29l-0.05-0.26l-0.27-0.35
		l-0.43-0.65l-0.23-0.15l-0.38,0.13l-0.43,0.58l0.07,0.66l0.25,0.65l0.11,0.56l-0.32,0.72l-1.13,1.01l-0.39,0.72l0.51-0.14
		l0.48,0.05l0.41,0.19l0.58,0.54l0.41,0.29l0.38,0.19l0.17-0.06l0.08,0.08l0.17-0.02l0.17-0.08l0.08-0.11l0.12-0.98l-0.02-0.37
		l0.01-0.18l0.22-0.57l0.03-0.23l-0.08-0.42L176.65,225.07z M219.14,217.59l-0.83-0.45l-0.59-0.22l0.23,0.29l0.1,0.15l0.04,0.12
		l0.07,0.07l0.36,0.11l0.13,0.07l0.68,0.57l0.4,0.2l0.28-0.04l-0.18-0.38L219.14,217.59z M223.47,216.03l-0.3-0.05l-0.25-0.01
		l-0.16,0.22l0.1,0.71l0.15,0.22l0.36,0.04l0.32-0.16l0.17-0.31l0.02-0.38l-0.13-0.37L223.47,216.03z M121.4,210.03l-0.27-0.34
		l-0.79-0.6l-0.17-0.35l0.05-0.21l0.2-0.42l-0.01-0.17l-0.18-0.12l-0.27-0.02l-0.29,0.05l-0.24,0.1h0.13l-0.18,0.01l-0.39,0.1
		l-0.42,0.49l0.06,0.15l0.13,0.17l0.08,0.18l-0.19,0.39l0.06,0.21l0.14,0.19l0.15,0.15l0.14,0.1l0.31,0.14l0.11,0.07l0.1,0.14
		l0.1,0.27l0.09,0.13l0.12,0.27l0.18,0.89l0.18,0.36l0.04,0.17l0.02,0.22l-0.01,0.27l-0.06,0.2l-0.02,0.18l0.09,0.21l0.12-0.22
		l0.26-0.03l0.26,0.02l0.12-0.08l0.07-0.3l0.33-0.53l0.07-0.29l-0.12-1.67L121.4,210.03z M205.18,202.47l-0.2,0.37l-0.14,0.35
		l0.05,0.27l0.8,0.94l0.6,0.95l0.03,0.15l0,0.16l0.03,0.13l0.12,0.05l0.34,0.04l0.34,0.09l0.24,0.12l0.24,0.2l0.19,0.27l0.08,0.33
		l0.22,0.35l1.62,1.19l1.56,1.57l0.92,0.54l0.46,0.21l0.43,0.11l0.19-0.15l0.02-0.12l0.09-0.2l0-0.1l-0.05-0.1h-0.06l-0.07,0.02
		l-0.07-0.04l-0.16-0.17l-0.3-0.18l-0.15-0.15l-0.21-0.62l-0.04-0.07l-0.1-0.54l0.02-2.17l-0.04-0.26l-0.21-0.13l-1.27-0.07
		l-0.41,0.03l-0.33,0.13l-0.18-0.17l-0.26-0.11l-0.3-0.06l-0.3-0.02l-0.19-0.15l-0.01-0.33l0.13-0.52l0.21-0.35l0.03-0.13
		l-0.04-0.15l-0.17-0.27l-0.12-0.45l-0.2-0.29l-1.21-1.13l-0.4-0.3l-0.59-0.34l-0.09-0.08l-0.1-0.05l-0.16-0.02l-0.11,0.04
		l-0.14,0.16l-0.07,0.04l-0.24-0.13l-0.11-0.26l-0.1-0.18l-0.23,0.09l0.25,0.98l0,0.37L205.18,202.47z M273.13,297.63l-0.66-0.87
		l-0.64-1.12l-0.19-0.57l-0.48-0.45l-0.15-0.19l-0.16,0.46l0.14,0.55l0.24,0.55l0.25,1.08l0.31,0.57l0.4,0.48l0.41,0.36l0.13-0.13
		l0.15,0.13l0.2,0.1l0.21,0.02l0.17-0.12l-0.01-0.13l-0.24-0.44L273.13,297.63z M242.11,294.34l-0.31-0.14l-0.32,0.1l-0.25-0.25
		l-0.43-0.07l-0.49,0.06l-0.43,0.13l-0.13-0.1l-0.12,0.02l-0.08,0.12l-0.03,0.22l0.37,0.01l1.16-0.14l0.41,0.04l0.4,0.11l0.74,0.35
		l0.12-0.12l-0.29-0.11L242.11,294.34z M237.71,292.7l-0.22-0.17l-0.57-0.17l-0.2-0.22l-0.15-0.25l-0.15-0.19h0.26l-0.04-0.16
		l-0.08-0.14l-0.11-0.11l-0.14-0.07l0.01,0.13l-0.01,0.13l-0.52-0.13l-2.43,0.13l0.06,0.2l1.03,0.33l0.26,0.26l0.16,0.23l0.39,0.22
		l0.81,0.33l0.28,0.22l0.33,0.34l0.38,0.31l0.83,0.28l0.4,0.33l0.32,0.38l0.17,0.26l0.17-0.29l0.07-0.32l0.01-0.7l-0.98-0.8
		L237.71,292.7z M264.14,292.64l0.08-0.25l-0.06-0.15l-0.14-0.19l-0.18-0.16l-0.18-0.07l-0.36-0.27l-0.57-1l-0.37,0.06l-0.07,0.22
		l0.24,0.69l0.12,0.64l0.1,0.13l0.12,0.1l0.12,0.19l0.04,0.15v0.14l-0.05,0.15l-0.12,0.18l0.24,0.08l0.1,0.21l0.03,0.21l0.06,0.1
		l0.28-0.06l0.13-0.14l0.1-0.16l0.17-0.12l-0.09-0.25l0.1-0.21L264.14,292.64z M166.24,283.95l-0.02,0v0.02l0.01,0v0.01l0.02,0
		L166.24,283.95l0,0.01L166.24,283.95z M256.96,281.47l-0.06-0.04l0,0L256.96,281.47L256.96,281.47z M256.7,281.79l0.03,0.32
		l0.15,0.27l0.45,0.55l0.5,1.04l0.16,0.2l0.1,0.05l0.13,0.02l0.22,0.1l0.18,0.14l0.45,0.48l0.2,0.13l0.28,0.11l0.25-0.02l0.11-0.28
		l-0.79-2.41l-0.64-0.11l-0.57-0.26l-0.96-0.65l-0.01,0.02l-0.01,0l-0.03-0.05l-0.05-0.04L256.7,281.79z M256.89,281.41l-0.01-0.01
		l-0.02-0.01h-0.01l0.05,0.03v0L256.89,281.41z M232.46,290.64l-0.22-0.36l-0.26-0.29l-0.29-0.12l-0.46-0.15l-0.16-0.35l0.12-1.16
		l-0.02-0.22l-0.09-0.1l-0.26-0.43l-0.3-0.92l-0.1-0.08l-0.13-0.06l-0.14-0.08l-0.12-0.15l-0.05-0.35l0.3-2.47l0.09-0.1l0.13-0.1
		l0.11-0.13l0.05-0.22l-0.02-0.15l-0.05-0.19l-0.06-0.16l-0.07-0.07l-0.05-0.2l0.81-2.65l0.09-0.74l-0.17-0.59l-0.28,0.17
		l-0.03,0.22l0.19,0.6l-0.02,0.29l-0.19,0.56l-0.09,0.46l-0.53,1.65l-0.13,0.87l-0.9,2.72l-0.3,0.5l-0.36,0.46l-0.36,0.31l0.56,0.26
		l0.17,0.12v-0.13l0.11-0.15l0.1-0.07l0.11,0.03l0.08,0.05l0.09,0.02l0.19-0.01l0.14,0l0.2,0.06l0.14,0.08l0.14,0.03l0.26,0.26
		l0.14,0.14l0.15,0.18l0.03,0.6l-0.01,0.21l-0.05,0.16l-0.11,0.07l-0.24,0.02l-0.04,0.07l0.05,0.13l0.04,0.19l0.06,0.03l0.31,0.4
		l0.48,0.27l0.14,0.11l0.17,0.33l0.34,0.96l0.17,0.2l0.62,0.12l0.09-0.13l-0.15-0.48L232.46,290.64z M255,270.56l-0.25,0.37
		l-0.07,0.62l0.11,0.59l0.33,0.27l0.17-0.25l-0.03-0.58l-0.13-0.63L255,270.56z M249.79,265.67l0.23,0.1l0.29-0.09l-0.08-0.2
		l-0.45-0.41l-0.02-0.29l0.36-0.71l-0.04-0.28l-0.21-0.04l-0.62,0.19l-0.27-0.04l-0.19,0.1l-0.28,0.33l-0.09,0.07l-0.2,0.02
		l-0.09,0.07l-0.02,0.13l0.02,0.42l0.09,0.35l0.02,0.18l-0.06,0.14l-0.25,0.26l-0.31,1.61l-0.13,0.38l-0.05,0.24l0.11,0.21
		l0.33,0.29l0.48-1.73l0.74-1.6l-0.06-0.08l-0.02-0.06l-0.03-0.23l0.32,0.17L249.79,265.67z M213.01,252.9l-0.28-0.37l-0.21-0.28
		l-0.1-0.04l-0.12,0.03l-0.09,0.07l-0.06,0.06l-0.15-0.06l0.02-0.1l-0.15-0.09l-0.16-0.06l-0.16-0.03l-0.28,0.15l-0.24,0.12
		l-0.12,0.16l0.12,0.07l0.21,0.06l0.45,0.1l0.53,0.15l0.48,0.18l0.19,0.12l0.15,0.1h0.15l-0.01-0.13L213.01,252.9z M290.71,275.58
		l-0.23-0.1l-0.92-0.3l-0.33-0.06l-2.01-0.01l0.09,0.26l0.25,0.1l1.11-0.01l0.16,0.02l0.14,0.04l0.16,0.07l0.13,0.01l0.49,0.19
		l0.64,0.37l0.58,0.24l0.31-0.2l-0.23-0.15L290.71,275.58z M269.81,245.83l-0.48-0.29l-0.42,0.05l0.36,0.29l0.39,0.2l0.35,0.26
		l0.23,0.47h0.12l-0.16-0.51L269.81,245.83z M260.05,241.64l-0.18,0.02l-0.15-0.01l0.33,0.13V241.64z M259.41,241.52l-0.26-0.35
		l-0.14-0.48l-0.07-1.01l-0.15,0.27l-0.13,0.42l-0.03,0.43l0.12,0.3l0.35,0.25L259.41,241.52z M229.04,213.87l0.87-1.99l0.07-0.84
		l-0.21-0.75l-0.84-1.61l-0.01-0.1v-0.21l0.04-0.13l0.06-0.13l0-0.15l-0.16-0.21l-0.14-0.38l0.14-0.34l0.03-0.21l-0.46,0l-0.08,0.12
		l-0.09,0.08l-0.13,0.04l-0.89,0.02l-0.2,0.09l-0.21,0.47l-0.32,0.09l-0.77-0.04l-0.26,0.15l-0.21,0.21l-0.16,0.24l-0.12,0.24
		l-0.21,0.67l-0.15,0.75l-0.06,0.78l0.06,0.75l0.19,0.17l0.07,0.17l-0.09,0.22l-0.09,0.16l-0.07,0.18l-0.08,0.15l-0.11,0.06
		l-0.37,0.11l-0.3,0.26l-0.16,0.32l0.03,0.29l0.25,0.24l0.41,0.24l0.43,0.19l0.32,0.08l0.17,0.07l0.44,0.32l0.19,0.1l0.62,0.12
		l0.61,0.43l0.08,0.11l0.41-0.06l0.19,0.06l0.31,0.15l0.35-0.07l0.76-0.38v-0.11l-0.16-0.09l-0.08-0.11l-0.02-0.14l0-0.17
		L229.04,213.87z M184.15,161.11l-0.55-0.09l-0.22,0.83l0.64,0.74l0.84,0.37l0.39-0.27l0.11,0.15l0.17,0.13l0.21,0.08h0.24
		l-0.3-0.56l-0.73-0.77L184.15,161.11z M488.23,324.06l-0.12,0.16l-0.27,0.28l-0.11,0.2l0.46-0.18l0.39-0.52l0.21-0.58l-0.07-0.34
		l-0.17,0.22L488.23,324.06z M183.78,402.42l-0.41,0.22v0.21l0.3,0.11l0.62-0.08l0.12,0.01l0.12-0.01l0.12-0.09l0.06-0.09l0.05-0.13
		l0.01-0.12l-0.07-0.05H183.78z M252.77,394.53l-0.25-0.1l0.09-0.39l-0.28-0.39l-0.43-0.31l-0.37-0.13l-0.68,0.59l-0.26,0.35
		l-0.16,0.41l-0.08,0.32l-0.02,0.12l0.79,0.32l0.26,0.15l0.25,0.2l0.27,0.26l0.33-0.18l0.35,0.01l0.32-0.02l0.23-0.31v-0.32
		l-0.15-0.32L252.77,394.53z M255.04,384.7l-0.16-0.1v0.25l-0.09,0.18l-0.24,0.39l-0.06,0.16l0,0.18l0.05,0.13l0.06,0.06l0.03-0.04
		l0.08-0.19l0.2-0.18l0.46-0.32l-0.2-0.36L255.04,384.7z M337.63,348.85h-0.21l-0.26,0.06l-0.36-0.12l-0.44,0.3l0.26,0.65l0.6,0.54
		l0.58-0.03l-0.01-0.99l0.01-0.11L337.63,348.85z M335.21,345.84l-0.2-0.01l-0.67,0.25l-0.23-0.2l-0.41-0.12l-0.46-0.06l-0.38,0.01
		l-0.35,0.38l-0.29,0.4l-0.06,0.38l0.35,0.32l0.34,0.07l1.25,0.05l0.25-0.04l0.12-0.06l0.26-0.25l0.59-0.37l0.13-0.13l-0.19-0.51
		L335.21,345.84z M329.68,342.52L329.68,342.52l0.02-0.01l0.01-0.01l-0.03-0.11V342.52z M332.33,345.03l-0.02-0.12l-0.09-0.06
		l-0.07-0.04l-0.04-0.06l0.01-0.14l0.09-0.24l0.4-0.49l-0.38-0.17l-0.3-0.35l-0.14-0.43l0.08-0.41l-0.64-0.24l-0.53-0.12l-0.5,0.05
		l-0.51,0.29l0.09,0.38l0.11,1.18l0.09,0.37l0.23,0.33l0.32,0.27l1.09,0.6l0.27,0l0.1-0.34l0.07-0.08l0.14-0.08L332.33,345.03z
		 M329.8,341.04l-0.16-0.16l-0.19-0.46l-0.14-0.23l-0.06,0.17l-0.08,0.1l-0.11,0.06l-0.14,0.05l0.06,0.21l0.04,0.5l0.08,0.2
		l0.18,0.06l0.21-0.12l0.18-0.2L329.8,341.04z M595.92,397.14l0.54-0.09l0.55-0.23l0.94-0.54l-0.36,0.62l0.61-0.12l0.52-0.41
		l0.71-0.94l0.26,0.02l0.62-0.24l0.35-0.03l-0.16,0.06l-0.14,0.08l-0.11,0.1l-0.08,0.13l0.24-0.03l0.21-0.09l0.39-0.25l0.06,0.07
		l0.08,0.06l0-0.26l-0.05-0.19l-0.09-0.15l-0.12-0.14l-0.3,0.03l-0.8,0.35l-0.84,0.24l-0.26,0.12l-1.41,0.87l-0.5,0.11l-0.79,0.32
		l-0.2,0.12l-0.27,0.27l-0.08,0.12l0.13,0.04H595.92z M491.18,340.79l-0.16-0.35l-0.07-0.39l-0.1-0.35l-0.26-0.25l0.1,0.71l0.28,0.8
		l0.42,0.6l0.53,0.09l0.15-0.21l-0.23-0.22L491.18,340.79z M666.61,405.05l-0.05,0l-0.06-0.01l-0.01,0.03l0.03,0.08l-0.01,0.04
		l-0.06-0.04l-0.07,0.11l-0.03,0.21l0.29-0.15l0.01,0.02v0l0.03-0.07l0.01-0.09l-0.01-0.07L666.61,405.05z M676.32,400.21
		l-0.11,0.45l-0.09,0.18l-0.18,0.23l-0.3,0.35l-0.07,0.14h0.11l0.7-0.93l0.22-0.63l-0.17-0.78L676.32,400.21z M676.44,399.23
		L676.44,399.23L676.44,399.23L676.44,399.23L676.44,399.23z M676.56,398.92l-0.07,0.15l-0.05,0.15l0.38-0.62l-0.15,0.16
		L676.56,398.92z M677.55,395.53l0.19,1.47l-0.08,0.5l0.23-0.4l0.03-0.45l-0.13-0.86L677.55,395.53z M687.01,362.19h-0.08
		l-0.04,0.07l-0.12,0.26l-0.28,0.21l-0.32,0.11l-0.22-0.05l-0.39,0.23l-0.24,0.05l-0.16-0.03l-0.45-0.17l-0.2-0.04l-0.06-0.03
		l-0.09-0.06l-0.11-0.04l-0.15,0l-0.15,0.08l-0.28,0.24l-0.13,0.05l-0.56,0.73l-0.71,1.26l-0.21,0.7l-0.06,0.75l0.07,0.41l0.24,0.76
		l0.06,0.36l0.12,0.17l0.29-0.13l0.94-0.83l0.17-0.19l0.07-0.13l0.07-0.18l0.17-0.12l0.17-0.09l0.08-0.1l0.09-0.3l0.45-0.81
		l0.21-0.29l0.55-0.43l0.29-0.29l0.23-0.58l0.64-1.04l0.21-0.26l0.03-0.06l-0.04-0.13L687.01,362.19z M687.27,350.58l-0.2-0.43
		l-0.06-0.38l-0.14,0.26l0.18,0.54l0.35,0.54l0.35,0.25L687.27,350.58z M684.62,357.54l0-0.19l0.43-0.94l0.32-0.96l0.04-0.21
		l0.02-0.39l0.04-0.15l0.08-0.13l0.11-0.08l0.28-0.09l0.11-0.07l0.09-0.04l0.08,0.02l0.06-0.01l0.02-0.14l-0.02-0.09l-0.09-0.17
		l-0.02-0.11l0.23-0.49l0.08-0.13l0.38-0.81l0.07-0.09l0.06-0.1l0.05-0.17l-0.89,0.1l-0.43-0.83l-0.14-1.16l-0.01-0.87l0.04-0.21
		l0.16-0.45l0.04-0.28l-0.04-0.22l-0.28-0.91l-0.2-0.08l-0.46-0.01l-0.38-0.12l-0.17,0.02l-0.07,0.22l-0.19-0.06l-0.16-0.08
		l-0.12-0.12l-0.08-0.36l-0.08-0.15l-0.12-0.14l-0.08-0.18l-0.96-1.31l-0.51-0.48l-0.3-0.17l-1.22-0.38l-0.41,0.07l-1.97,0.92
		l-0.51,0.14l-0.37-0.08l-0.17-0.07l-0.56-0.09l-0.43-0.02l-0.13,0.02l-0.13,0.09l-0.18,0.19l-0.55,0.43l-0.03,0.24l0.07,0.16
		l0.14,0.05l0.18-0.07l-0.07-0.03l-0.02,0l-0.01-0.01l-0.03-0.08l0.36-0.12l0.47-0.35l0.29-0.14l0.01,0.12l0.1,0.25l0.12-0.12
		l0.35,0.13l0.43,0.1h0.43l0.33-0.17l0.29-0.24l0.39-0.21l0.44-0.12l0.41,0.01l0.26,0.09l0.06,0.09l-0.04,0.1l-0.03,0.15l0.04,0.14
		l0.08,0.15l0.04,0.16l-0.09,0.17l-0.13,0.16l-0.24,0.35l-0.19,0.16l-1.29,0.53l-0.34,0.04l-0.28-0.14l-0.3-0.11l-1.11,0.04
		l-1.03-0.32l-0.39-0.04l-0.79,0.1l-0.33-0.03l-0.17-0.21h0.11l0.06,0.1l0.09,0.02l0.11-0.04l0.12-0.07l-0.23-0.03l-0.13-0.11
		l-0.07-0.13l-0.06-0.07l-0.16-0.03l-0.49,0.02l-0.02,0h-0.01l-0.41-0.04l-1-0.34l-1.21-0.15l-0.09,0.09l0.29,0.18l0.36,0.09
		l0.76,0.03l-0.3,0.13l-0.29-0.01l-0.58-0.12H669l-0.58-0.07l-0.6-0.18l-0.55-0.28l-0.43-0.33l0.38,0.11l1.26,0.21l0.27,0.12
		l0.17,0.1l0.22,0.04l0.22-0.02l0.18-0.06l0.15-0.12l-0.06-0.06l-1.08-0.29l-1.58-0.21l-0.75-0.2l-1.12-0.45l-0.42-0.05h-1.54
		l-0.79-0.2l-0.26-0.03l-0.17,0.03l-0.39,0.16l-0.49,0.08l-0.4,0.13l-0.36,0.2l-0.08,0.15l0.14-0.02l0.72-0.15l0.62-0.32l0.42-0.01
		l0.43,0.09l0.36,0.13l-1.16-0.03l-0.26,0.1l-0.24,0.16l-0.33,0.1l-0.99,0.1l-0.58,0.17l-0.32,0.04l-0.32-0.06l-0.62-0.25l-0.3-0.06
		h-1.41l-0.35,0.09l-0.66,0.29l-0.35,0.1l-1.12,0.12l-0.35,0.14l-1.12,0.97l-0.63,0.39l-2.18,0.48l-0.64,0.25l-0.34,0.08l-0.79,0.08
		l-1.19,0.33l-1.54,0.24l-0.12,0.04l-0.38,0.16l-0.17,0.05l-0.19-0.01l-0.43-0.12l-0.71,0.08l-1.47,0.4l-3.41,0.32l-2.5,0.42h-1.43
		l-1.95,0.31l-1.8,0.62l-0.32,0.06l-0.31,0.11l-1.09,0.75l-0.95,0.33l-0.55,0.06l-0.21,0.06l-0.39,0.17l-0.62,0.49l-1.18,0.41
		l-0.37,0.28l-2.02,1.18l-0.31,0.28l-0.19,0.3l-0.84,2.44l-0.01,0.02l-0.27,0.79l-0.36,0.45v0.12l0.44-0.18l0.35-0.42l0.23-0.51
		l0.05-0.25l0.01-0.02l0.03-0.15l0.04-0.14l0.32-0.66l0.25-0.98h0.13l-0.05,0.6l-0.45,1.03l-0.1,0.45l-0.12,0.52l-0.04,0.06
		l-0.22,0.36l-1,1.11l-0.18,0.48l-0.14,1.73l-0.41,1.52l0.01,0.78l0.27,1.47l-0.02,0.72l-0.23,1.01l-0.03,0.4l0.05,1l-0.17,0.9
		l-0.01,1.37l-0.05,0.36l0,0.16l0.05,0.21l0.54,0.97l0.08,0.32l-0.02,0.32l-0.08,0.25l-0.15,0.25l-0.73,0.94l-1.61,1.14l-1.03,0.94
		l-0.35,0.52l-0.34,0.75l-0.12,0.42l0.02,0.3l0.06,0.29l0.04,0.4l-0.04,0.37l-0.17,0.75l-0.29,3.48l-0.22,0.59l-0.48,0.61
		l-0.61,0.47l-0.59,0.19l-0.37,0.25l-1.42,1.71l-1.4,0.89l-0.82,0.29l-0.37,0.18l-1.47,1.28l-4.53,1.86l-0.34,0.24l-0.71,0.76
		l-0.18,0.25l-0.41,0.47l0.04,0.13l0.35,0.04l0.35-0.02l0.22-0.06l0.41-0.27l0.09,0.09l0.17-0.09l-0.04-0.42l0.46-0.38l1.17-0.57
		l1.17-0.89l0.42-0.09l-0.28,0.37l-0.49,0.45l-0.55,0.38l-0.84,0.27l-0.41,0.29l-0.36,0.4l-0.25,0.43l0.35,0.13l0.51,0.63l0.37,0.1
		l0.12-0.07l0.06-0.12l0.07-0.11l0.18-0.05l0.22,0.02l0.15,0.06l0.3,0.27l0.36,0.54l-0.01,0.56l-0.58,1.36l0.25-0.15l0.86-0.22
		l0.45-0.22l0.24-0.03l0.31,0.12l-0.27,0.18l-0.7,0.2l-0.14,0.19l-0.13,0.1l-0.3,0.01l-0.6-0.05l-0.1,0.12l-0.3,0.56l-0.16,0.19
		l-0.22,0.14l-0.3,0.14l-0.32,0.06l-0.28-0.1l-0.52,0.29l-1.02,0.36l-0.42,0.22l-0.14,0.12l-0.4,0.44l-0.09,0.18l0.09,0.09l0.47-0.2
		l0.19-0.01l0.03-0.13l0.07-0.14l0.03-0.1h0.12l0.02,0.24l0.13,0.54l-0.04,0.21l-0.16,0.12l-0.17-0.06l-0.12-0.18l-0.03-0.26
		l-0.31,0.16l-0.42,0.11l-0.87,0.11l-0.45-0.04l-0.82-0.2l-0.34,0.1l-0.53-0.22l-1.1-0.28l-0.45-0.23l-0.13,0.28l0.16,0.24
		l0.26,0.22l0.19,0.24l-0.21,0.02l-0.2-0.03l-0.18-0.09l-0.15-0.15l0.12,0.35l0.17,0.28l0.07,0.26l-0.17,0.29l-0.22-0.05l-0.35-0.25
		l-0.33-0.31l-0.14-0.24l0.11-0.27l0.45-0.52l0.05-0.25l-0.2-0.21l-0.71-0.2l-0.32-0.2l0.08,0l0.02-0.03l-0.01-0.05l0.02-0.05
		l0.26,0.12l-0.07-0.22l-0.18-0.18l-0.24-0.13l-0.24-0.09l0.23-0.37l-0.44,0.16l-0.23-0.06l-0.2-0.16l-0.36-0.17l0.11,0.57
		l0.38,0.36l0.5,0.29l0.48,0.36l-0.33-0.07l-0.36-0.16l-0.28-0.21l-0.12-0.23l-0.11-0.08l-0.24,0.03l-0.4,0.12l-0.23-0.05
		l-0.18-0.08l-0.32-0.25l-0.29,0.17l-0.09,0.07l0.04-0.19l0.08-0.16l0.11-0.14l0.15-0.12l-0.07-0.1l-0.02-0.08l-0.01-0.08
		l-0.03-0.11l0.19,0.15l0.22,0.06l0.23-0.01l0.23-0.06V398l-0.26-0.02l-0.11-0.09l0.06-0.1l0.25-0.05l0.16,0.03l0.09,0.05l0.08-0.01
		l0.35-0.28l0.11-0.04l0.13,0.01l0.1,0.15l-0.06,0.21l-0.03,0.19l0.18,0.08l0.49-0.01l0.22-0.04l0.21-0.09l-0.05,0.13l-0.08,0.12
		l0.21-0.04l0.18-0.15l0.11-0.2v-0.21l-0.12-0.12l-0.97-0.61l-0.65-1.01l-0.54-0.23l-0.48,0.05l-3.1,0.75l-1.9,0.17l-2.3-0.04
		l-1.15,0.27l-0.3,0.07l-1.58,0.63l-0.39,0.06l-0.82-0.05l-0.44,0.03l-0.26,0.13l0.05,0.23l0.44,0.83l0.11,0.37l-0.13,0.75
		l-0.01,0.38l0.14,0.28l-0.12,0.5l-0.24-0.48l-0.14-1.74L580,398.3l-0.08-0.12l-0.17-0.02l-0.17,0.08l-0.08,0.19l-0.14,0.24
		l-0.32,0.29l-1.77,1.2l-0.72,0.32l-0.76,0.23l-2.94,0.13l-0.37,0.09l-0.28,0.16l-0.03,0.15l0.38,0.07l0.4,0.13l0.13,0.29
		l-0.12,0.26l-0.36,0.06l0.13,0.11l-0.12,0.12l-0.26,0.38h-0.12l0.03-0.25l0.2-0.34l0.02-0.27l-0.16,0.12l-0.27,0.14l-0.28,0.1
		l-0.17,0.01l-0.12-0.16l-0.03-0.41l-0.09-0.15l0.18-0.09l0.13-0.14l0.18-0.27v-0.11l-2.69,0.09l-2.5-0.07l-1.93,0.22l-0.8,0.17
		l-3.33,1.2l-0.2,0.16l-0.16,0.19l-0.34,0.11l-0.34,0.16l-0.15,0.34l0.2-0.18l0.2-0.04l0.21-0.01l0.19-0.09l0.62-0.42l0.79-0.12
		l0.11-0.08l0.16-0.2l0.11-0.09l1.28-0.39l0.2-0.15l0.1-0.11l0.23-0.11l0.25-0.08l0.15-0.02l0.07,0.08l0.18,0.41l-0.26,0.59
		l-0.21,0.2l-1.16,0.21l-0.37-0.06l-0.12-0.33l-0.22,0.16l-0.26,0.12l-0.26,0.04l-0.24-0.06l-0.1,0.08l-0.22,0.12l-0.11,0.1
		l-0.08,0.16l0.06,0.12l0.09,0.12l0,0.17l-0.15,0.2l-0.25,0.15l-0.3,0.09l-1.44,0.19l-0.19-0.09l0.06-0.25l0.15-0.19l0.16-0.16
		l0.12-0.19l-2,0.62l-0.34,0.18l-0.29,0.25l-1.38,0.29l-0.48,0.21l-0.42,0.23l-0.04,0.01l-1.26,0.32l-2.64,0.38l-0.61,0.23
		l-0.39,0.04l-0.51,0.12l-0.51,0.05l-0.6-0.24l-0.55-0.05l-0.23-0.1l-0.57-0.4l-0.1-0.03l-0.85-1.71l-0.44-0.51l-1.17-1.09
		l-0.37-0.58l-0.55-1.37l-0.32-0.51l-0.38-0.21l-0.84-0.08l-0.3-0.14l-2.34-0.35l-0.39-0.16l-0.16-0.24l-0.09-0.37l-0.23-0.26
		l-1.56-0.98l-0.63-0.53l-0.3-0.15l-0.33-0.06l-1.2-0.02l-1.6,0.12l-2.34-0.07l-1.59-0.26l-1.45-0.53l-1.23-0.88l0.08,0.77l0.97,0.5
		l1.18,0.39l0.71,0.44l-0.3,0.25l-0.38-0.21l-0.4-0.35l-0.33-0.18l-0.4-0.07l-1.89-0.54l-0.16-0.01l-0.19,0.03l-0.06,0.07
		l-0.01,0.08l-0.06,0.07l-0.42,0.2l-0.21,0.04l-0.29,0.01l-0.18-0.12l-0.2-0.26l-0.08-0.26l0.2-0.12l0.27,0.05l0.48,0.2l0.31,0.01
		v-0.13l-0.78-0.5l-0.4-0.34l-0.18-0.33l-0.33-0.1l-0.64-0.28l-0.4-0.33l0.38-0.21l0.41,0.1l0.63,0.61l0.99,0.27l0.84,0.63
		l0.45,0.23l0.03-0.48l-0.03-0.13l-0.22-0.19l-0.38-0.15l-0.4-0.1l-0.29-0.04l-0.36-0.12l-0.42-0.28l-0.64-0.59l-0.36-0.46
		l-0.33-0.56l-0.26-0.66l-0.25-1.26l-0.12-0.22l-0.25-0.05l-0.47,0.01l-0.44-0.09l-0.36-0.23l-0.29-0.32l-0.2-0.34l-0.26-0.91
		l-0.17-0.26l-0.12-0.33l-0.06-0.42l-0.17-0.25l-0.46,0.19l-0.26-0.16l-1.49-1.21l-0.42-0.24l-0.21-0.32l-0.15-0.39l-0.12-0.68
		l-0.26-0.59l-0.03-0.25l-0.01,0.03v-0.12l0.01,0.1l0.19-0.44l-0.09-0.35l-0.61-0.67l-0.19-0.31l-0.61-2.1l-0.2-1.58l-0.63-1.72
		l-0.29-0.56l-0.96-1.09l-1.17-1.73l-1.18-1.33l-0.63-1.03l-0.15-0.16l-0.2-0.07l-0.1-0.06l-0.19-0.15l-0.18-0.18l-0.23-0.51
		l-0.34-0.35l-1.1-0.89l-1.24-1.4l-0.49-0.44l-0.26-0.31l-0.26-0.7l-0.35-0.28l-0.73-0.38l-0.61-0.52l-2.09-2.38l-0.86-1.65
		l0.18-0.23l0.09-0.08l0.1-0.06l-0.17-0.31l-0.18-0.6l-1.27-2.11l-1.26-2.28l-1.06-2.7l-0.13-0.66l-0.14-0.24l-0.28-0.1l-0.02-0.2
		l-1.21-2.31l-0.07-0.37l0.18-0.74l0.02-0.33l-0.2-0.22l-0.28,0.2l-0.26,0.1l-0.27-0.02l-0.29-0.15l-0.28-0.27l-1.44-2.43l-0.27-0.7
		l-0.28-1.54l-0.36-1.19l-0.08-1.5l-0.12-0.73l-0.44-0.98l-0.13-0.35l-0.16-0.2l-0.3-0.65l-0.07-0.41l0.25,0.58l1.47,2.5l0.48,0.31
		l0.2,0.41l0.3,1.21l0.01,0.22l0.09,0.18l0.41,0.31l0.83,1.16l0.97,0.94l0.26,0.43l0.87,0.73l0.71,0.45l0.36,0.29l0.16,0.3
		l-0.02,0.32l-0.05,0.28l-0.11,0.27l-0.19,0.29l-0.18-0.14l-0.33,0.07l-0.37,0.18l-0.28,0.2l-0.3,0.32l0.01,0.13l0.14,0.12
		l0.14,0.57l0.44,0.9l0.24,1.24h0.13l0.12-0.82l0.11-0.41l0.19-0.32l0.2-0.25l0.5-0.8l0.1-0.3l0.16-0.78l0.26-0.74l0.05-0.74
		l-0.47-0.76l-1.28-0.79l-0.2-0.26l-0.19-0.08l-0.99-0.85l-0.33-0.18l-1.83-2.03l-2.7-4.67l-0.19-0.64l-0.05-2.19l-0.14-0.36
		l-0.31-0.82l-0.11-0.18l-0.07-0.2l-0.16-0.9l-0.08-0.25l0.04-0.52l-0.54-1.82l0.36-1.46l0.01-0.5l-0.03-0.28l-0.05-0.18l-0.1-0.01
		l-0.18,0.23l-0.06,0.24l0.07,0.55l-0.01,0.19l-0.15,0.17l-0.21,0.1h-0.22l-0.16-0.15l-0.04-0.26l0.07-0.27l0.62-1.31l-0.04-0.36
		l-0.35-0.37l0.48,0.13l0.12-0.02l0.09-0.12l-0.01-0.25l0.06-0.13l0.6-0.59l0.13-0.26l0.55-1.86l0.19-0.2l0.02,0.29l-0.02,1.04
		l0.21-2.2l-0.47-5.17l0.19-3.24l0.29-1.72l0.35-3.64l-0.2-0.64l-0.16,0.53l-0.09,1.18l-0.12,0.49h-0.12l0.12-1.65l-0.09-0.45
		l-0.25-0.2l-0.39-0.04l-0.5,0.01v-0.11l1.28,0.12l0.32-0.12l0.15-0.31l0.15-3.64l0.09-0.74l0.07-0.62l1.02-7.75l3.45-11.91
		l2.5-3.78l1.04-1.97l0.65-1.53l0.48-1.12l0.22-0.72l0.21-0.31l0.16-0.34l0.02-0.83l0.13-0.36l-0.18-0.7l0.51-2.46l-1.2,0.09
		l-0.86-0.05l-0.24,0.05h0l-0.05,0.29l-0.23,0.2l-0.1,0.08v0l-0.42,0.12l-0.31-0.2l-0.41,0.27h0l-0.07,0.1l0.05,0.33l0.13,0.41
		l-0.01,0.35v0l-0.36,0.15l-0.18-0.05l-0.07-0.12l-0.06-0.13l-0.12-0.09l-0.14,0l-0.03,0.08l-0.01,0.11v0l-0.07,0.07l-0.38-0.06
		l-0.19-0.26l-0.1-0.28l-0.12-0.13l-0.38-0.01l-0.31-0.05l-0.28-0.11l-0.32-0.2l-0.81-0.75l-0.52-0.21l-0.19-0.24l-0.15-0.29
		l-0.17-0.24l-0.34-0.24l-0.33-0.15l-0.35-0.07l-1.57-0.09l-0.24-0.06l-0.04-0.28l-0.35-0.09l-1.37,0l-1.14,0.12l-1.03-0.13
		l-0.25,0.01l-0.56,0.27l-0.38,0.12l-0.17-0.08l-0.14-0.44l-0.36-0.07l-0.85,0.2l-0.62-0.03l-0.68-0.18l-1.39-0.65l-0.17-0.17
		l-0.42-0.57l-0.11-0.12l-0.48-0.01l-0.21-0.06v-0.18l0.14-0.37l-0.5-0.13l-0.56-0.3l-0.5-0.15l-0.05,0.06l-0.23,0.27l0,0
		l-0.37-0.41l-0.51-0.19l-0.57-0.13l-0.52-0.25l-1.06,0.37l-0.23-0.04l-0.2-0.11l-0.37-0.32l-0.15-0.04l-0.16-0.02l-0.04-0.09
		l0.23-0.24l-0.17-0.16l-0.21-0.08l-0.23-0.02l-0.25,0.02l0.07-0.3l-0.19-0.22l-0.62-0.35l-0.27-0.3l-0.1-0.07l-0.16-0.01
		l-0.12,0.07l-0.14,0.04l-0.2-0.1v0l-0.11,0.11v0l-0.15,0.03l-0.17-0.04l-0.17-0.11l-0.41,0.08l-0.66-0.44l-0.28,0.25l-0.16-0.28
		l-0.16-0.1l-0.43-0.01l-0.31,0.11l-0.12,0.02l-0.11-0.03l-0.12-0.16l-0.09-0.05l-0.36-0.01l-0.33,0.04l-0.34-0.05l-0.38-0.28
		l-0.05-0.2l0.12-0.23l0.16-0.23l0.08-0.2l-0.04-0.23l-0.21-0.5l-0.21-0.24l-0.46-0.1l-0.43-0.16l-0.12-0.42l-0.13-0.89l-0.05-0.29
		l-0.72-1.9l-0.23-0.86l-0.25-0.78l-0.26-0.31l-0.3-0.28l-0.26-0.3l-0.57-0.63l-0.2-0.24l-0.72-0.52l-0.17-0.15l-0.08-0.2l0-0.37
		l-0.04-0.2l-0.12-0.14l-0.14-0.03l-0.16-0.01l-0.16-0.05l-0.27-0.2l-0.07-0.1l-0.32-0.4l0.35-0.59l0.04-0.16l-0.03-0.16l-0.08-0.13
		l-0.08-0.1l-0.04-0.08l0.04-0.36l0.26-0.78l0.07-0.34l-0.04-0.35l-0.13-0.32l-0.19-0.3l-0.26-0.27l-0.05-0.03l-0.21-0.09
		l-0.04-0.06l-0.04-0.15l-0.03-0.05l-0.12-0.07l-0.51-0.18l0.12-0.19v0l0.01-0.01l0.29-0.29l0.06-0.17l0.02-0.19l0.09-0.23
		l0.05-0.36l0.16-0.41l0.05-0.21l-0.01-0.67l0.01-0.08l-0.06-0.25l-0.07-0.15l-0.14-0.07l-0.28-0.02l-0.1-0.08l-0.01-0.19l0.05-0.41
		v-0.72l-0.14-0.27l-0.36-0.29l-0.36-0.16l-0.31-0.09l-0.11-0.08l-0.22-0.35l-0.18-0.08l-0.22,0.05l-0.38,0.19l-0.2,0.01l-0.07-0.08
		l-0.18-0.31l-0.11-0.1l-0.64,0l-0.1-0.07l-0.08-0.12l-0.23-0.32l-0.13-0.08l-0.06-0.18l-0.04-0.21l-0.07-0.15l-0.12-0.07
		l-0.32-0.09l-0.17-0.08l-0.22-0.23l-0.15-0.24l-0.2-0.16l-0.03-0.03l-0.45-0.08v-0.1l-0.21-0.2l-0.24-0.18l-0.09-0.02l-0.03-0.17
		l0.05-0.39l-0.03-0.17l-0.14-0.16l-0.17-0.08l-0.14-0.1l-0.05-0.2l0.15-0.28l0.07-0.18l-0.04-0.08l-0.28-0.12l-0.31-0.27
		l-0.28-0.33l-0.18-0.27l0.21-0.26l-0.22-0.13l-0.38-0.08l-0.26-0.09l-0.26-0.28l-0.17-0.23l-0.12-0.24l-0.12-0.3l0.01-0.12
		l0.06-0.12l0-0.09l-0.13-0.04l-0.25-0.19l-0.24-0.24l-0.05-0.13l-0.02-0.24l-0.13-0.39l-0.33-0.3l-1.76-0.79l-0.29-0.05l-0.15-0.11
		l-0.07-0.24l-0.03-0.25l-0.05-0.15l-0.12-0.04l-0.5-0.08l-0.31-0.19l-0.31-0.3l-0.17-0.35l0.12-0.33l-0.01-0.29l-0.28-0.4
		l-0.51-0.6l-0.16-0.63l-0.08-0.66l-0.07-0.1l-0.14-0.11l-0.13-0.14l-0.02-0.2l0.09-0.13v0l0.52-0.24l0,0l-0.74-0.26l-0.36-0.22
		l-0.25-0.36l-0.01-0.2l0.03-0.43l-0.08-0.17l-0.18-0.13l-0.42-0.18l-0.2-0.13l0.02-0.31l-0.65-0.76l-0.23-0.4l-0.45-1.73l-0.1-0.18
		l-0.08-0.09l-0.09-0.18l-0.07-0.1l-0.12-0.06l-0.26-0.01l-0.12-0.06l-0.06-0.13l0.11-0.22l-0.06-0.14l-0.1-0.06l-0.27-0.12
		l-0.05-0.07l-0.1-0.29l-0.22-0.19l-0.21-0.14l-0.1-0.12l-0.01-0.23l-0.03-0.19l-0.07-0.15l-0.13-0.11l0.16-0.38l-0.07-0.37
		l-0.35-0.71l-0.16-1.04l-0.14-0.24l-0.16-0.06l-0.23-0.03l-0.2-0.05l-0.09-0.12l-0.05-0.1l-0.95-0.69l-0.14-0.24l0.14-0.38
		l-0.38-0.62l-0.24-0.26l-0.36-0.24l-0.86-0.36l-0.14-0.1l-0.35-0.4l-0.42-0.33l-1.3-0.53l-0.2-0.11l-0.17-0.14l-0.14-0.17
		l-0.11-0.19l-0.07-0.25l-0.07-0.51l-0.14-0.31l-0.54-0.17l-1.2-0.33l-0.52-0.25l-0.34-0.38l-0.16-0.1l-0.19-0.05l-0.2-0.02
		l-0.18-0.16l-0.06-0.25l0.16-0.53l-0.02-0.47l-0.27-0.22l-0.45,0.05l-0.45,0.22l-0.31,0.25l-0.2-0.07l0.02-0.27l0.15-0.38
		l0.03-0.28l-0.16-0.09l-0.48,0l-0.23-0.1l-0.15-0.13l-0.12-0.17l-0.22-0.43l-0.12-0.32l-0.29-0.4l-0.12-0.22l-0.05-0.23l0.08-0.23
		l-0.16,0.07l-0.18,0.05l-0.2,0.02l-0.2-0.02l-0.17-0.09l-0.12-0.23l-0.15-0.05l-0.35,0.11l-0.28,0.21l-0.29,0.14l-0.38-0.09
		l0.06-0.15l0.16-0.31l0.03-0.09l-0.06-0.17l-0.13-0.12l-0.13-0.04l-0.06,0.08l-0.07,0.34l-0.2,0.18l-0.28,0.09l-0.93,0.11
		l-2.91-0.36l-0.15-0.1l-0.05-0.19l-0.12,0l-0.21,0.12h-0.6l-0.36-0.1l-0.18-0.03l-0.15,0.07l-0.12,0.1l-0.15,0.06l-0.17,0.03
		l-0.17,0.01l-0.23-0.11l-0.26-0.19l-0.27-0.07l-0.28,0.23l-0.48-0.1l-1.7,0.16l-0.65-0.24l-0.21-0.16l-0.84-0.39l-0.65-0.05
		l-0.25-0.11l-0.09-0.33l-0.32,0.07l-0.23-0.15l-0.24-0.2l-0.34-0.08l-0.17,0.09v0L407,195.7v0l-0.21,0.07l-0.22,0.04l-0.13,0.11v0
		l-0.07,0.18l-0.04,0.48l-0.06,0.18l-0.43,0.55l-0.03,0.06v0l-1.96-0.13l-0.14,0.04l-0.15,0.22v0l-0.18,0.13l0,0l-0.03,0.04v0
		l-0.06,0.04l-0.12,0.02l-0.09-0.04l-0.08-0.18l-0.07-0.03l-0.33,0.11l-0.64,0.31l-0.31,0.06l-0.67-0.01l-0.13,0.01l-0.13,0.12v0
		l-0.05,0.13l-0.02,0.16l-0.06,0.2l-0.52,0.81l-0.08,0.25l0,0l-0.08,0.02l-0.29,0.49v0.04l-0.17,0.3l-0.11,0.11l-0.21,0.09l0,0
		l0.1,0.23l-0.04,0.06l0,0l-0.16,0.07l0,0l0.09,0.24l-0.1,0.14v0l-0.16,0.11v0l-0.57,1.32l-0.12,0.17l-0.09,0.17l-0.04,0.24
		l0.04,0.2l0.07,0.2l0,0.21l-0.17,0.24l-0.02,0.1l0.13,0.26l0.01,0.07v0l-0.16,0.08l-0.13,0.01l-0.11,0l-0.09,0.03l-0.21,0.15l0,0
		l-0.11,0.13l-0.04,0.19l0,0.33l-0.25,0.7l0,0.22l0.13,0.17l0.44,0.25l0.16,0.2v0l-0.2,0.08l-0.49,0.08l-0.81,0.54v0l-0.09,0.15l0,0
		l-0.4-0.19l-0.12,0.1l-0.21,0.18v0l-0.49,0.9l-0.15,0.19v0l-0.15,0.1l-0.72,0.34l-0.15,0.11v0l-0.09,0.17l-0.1,0.32l0,0l-0.07-0.04
		l-0.16,0.04l0,0l-0.08,0.62l-0.24,0.48v0l-0.45,0.2l-0.7-0.09l-0.98-0.24l-1.08,0.02l-0.26-0.14l0.07-0.26l0.03-0.11l-0.26,0.08
		l-0.1,0.06l-0.22-0.31l-0.16,0.03l-0.16,0.17v0l-0.21,0.11l-0.26-0.09l-0.5-0.42l-0.16-0.1l-0.22-0.06l-0.77-0.38l-0.92-0.8
		l-0.11-0.15l-0.04-0.13l-0.06-0.11l-0.15-0.11l-0.14-0.03l-0.48,0.03l-1.58-0.34l-0.53-0.26l-0.84-0.63l-0.17-0.07l-0.21-0.05
		l-0.13-0.1l0.15-0.4l-0.08-0.18l-0.17-0.13l-0.19-0.05l-1.26-0.07l-1.15-0.21l-1.63-0.49l-0.69-0.34l-0.86-0.84l-0.61-0.27
		l-0.4-0.29l-0.59-0.58l-0.32-0.64l-0.12-0.09l-0.15-0.06l-0.43-0.28l-0.29-0.32l-0.46-0.11l-0.5,0.01l-0.32,0.15l-0.19-0.24
		l-1.46-0.81l-0.13-0.05l-0.11-0.07l-0.08-0.15l-0.06-0.17l-0.06-0.11l-0.25-0.22l-0.85-0.52l-0.26-0.24l-0.07-0.18l0-0.18
		l-0.03-0.26l-0.12-0.26l-0.32-0.52l-0.16-0.75l-0.24-0.27l-0.32-0.22l-0.33-0.33l-0.07-0.15l-0.25-0.83l-0.33-0.36l-0.08-0.18
		l-0.05-0.08l-0.23-0.25l-0.07-0.1l-0.03-0.18l0.04-0.28l-0.01-0.16l-0.33-0.99l-0.04-0.43l0.06-0.36l0.25-0.64l0.07-0.41l0.03-0.65
		l-0.05-0.4l-0.26-0.28l-0.35-0.64l-0.17-0.15l-0.32-0.14l-0.13-0.08l-0.22-0.36l-0.22-0.49l-0.26-0.44l-0.34-0.19l-0.09-0.08
		l-0.04-0.18l-0.02-0.2l-0.04-0.15l-0.11-0.12l-0.24-0.12l-0.13-0.13l-0.15-0.2l-0.03-0.1l0.03-0.12l0.02-0.27l-0.04-0.18
		l-0.18-0.24l-0.04-0.2l0.03-0.12l0.1-0.2l0.01-0.11l-0.07-0.09l-0.3-0.15l-0.04-0.18l-0.03-0.38l-0.05-0.18l-0.21-0.32l-0.54-0.54
		l-0.11-0.2l-0.12-0.06l-0.57-0.07l-0.18-0.05l-0.11-0.16l-0.05-0.19l-0.02-0.2l-0.05-0.18l-0.23-0.27l-0.35-0.24l-0.39-0.17
		l-0.33-0.06l-0.34-0.13l-0.83-0.86l-0.12,0.13v0l-0.23-0.23l-0.08-0.04l-0.06,0.03l-0.03-0.19l-0.08-0.11l-0.13-0.05l-0.19-0.01
		l-0.18-0.06l-0.18-0.26l-0.13-0.06l-0.11-0.02l-0.2-0.06l-0.07,0.02l-0.12,0.14v0l-0.07,0.04l-0.09,0l-0.19-0.07l-0.12-0.1
		l-0.09-0.11l-0.11-0.09l-1.03-0.44l-0.53-0.12l-0.22-0.16l-0.71-0.77l-1.45-0.97l-0.61-0.63l-0.45-0.19l-0.17-0.25l-0.23-0.64
		l-0.22-0.35l-0.27-0.19l-0.32-0.15l-0.36-0.24l-0.43-0.43l-0.13-0.07l-0.31-0.1l-1.36-0.76l-0.17-0.23l-0.12-0.33l-1.38-1.39
		l-0.33-0.23l-0.3-0.09l0-0.06l-0.21-0.13l-0.35-0.17l-0.12-0.16l-0.13-0.3l-0.12-0.16l-0.23-0.17l-0.78-0.47l-0.29-0.09l-0.45-0.04
		l-0.34-0.11l-0.61-0.32l-0.75-0.19l-0.42-0.15l-0.18-0.22l-0.63-0.31l-0.11-0.12l-0.04-0.09l-0.02-0.11l-0.07-0.18l-0.17-0.27
		l-0.76-0.77l-0.21-0.31l-0.46-1.23l-0.34-0.6l-0.49-0.64l-0.6-0.51l-0.67-0.22l-0.79,0.06l-0.35-0.07l-0.24-0.2l-0.2-0.06l-0.75,0
		h-0.46l-0.47,0l-0.46,0l-0.47,0l-0.46,0l-0.46,0l-0.46,0l-0.47,0l-0.46,0l-0.47,0h-0.46l-0.46,0l-0.46,0l-0.46,0l-0.47,0l-0.46,0
		l-0.47,0l-0.46,0l-0.47,0l-0.46,0l-0.47,0l-0.46,0l-0.47,0l-0.46,0l-0.46,0l-0.46,0h-0.47l-0.46,0l-0.46,0l-0.47,0l-0.46,0l-0.47,0
		h-0.46l-0.47,0l-0.46,0l-0.47,0l-0.46,0l-0.47,0l-0.46,0l-0.47,0l-0.46,0l-0.46,0l-0.47,0l-0.46,0l-0.47,0l-0.46,0l-0.47,0l-0.46,0
		l-0.47,0l-0.46,0h-0.47l-0.46,0l-0.47,0l-0.46,0l-0.47,0l-0.46,0l-0.47,0l-0.46,0l-0.46,0l-0.47,0l-0.46,0l-0.47,0l-0.46,0l-0.47,0
		v3.92l0,0.13v4.04l-0.77,0H283.9l-0.77,0l-0.77,0h-10.74l-0.77,0l-0.77,0h-18.67l-1.09-0.11l-0.49-0.16l-0.92-0.3l-0.93-0.3
		l-0.92-0.3l-0.92-0.3l-0.92-0.3l-0.92-0.3l-0.92-0.3l-0.92-0.3l-7.35-2.27l-7.35-2.27l-7.35-2.27l-7.35-2.27l-7.35-2.27l-7.35-2.27
		l-7.35-2.27l-7.35-2.27l-0.66-0.2l-0.03-0.01l-0.06-0.02l0,0l0.22-0.2l0.25-0.73l0.02-0.39l-0.15-0.37l0.28-0.48l0.1-0.13l0,0
		l0.41-0.3l0.14-0.13v0l0.21-0.3l0.15-0.31l0.13-0.45l-0.01-0.02l-0.72,0.05l-1.32,0.1l-1.32,0.1l-1.32,0.1l-1.32,0.1l-1.32,0.1
		l-1.32,0.1l-1.32,0.1l-1.32,0.1l-1.32,0.1l-1.32,0.1l-1.32,0.1l-1.32,0.1l-1.32,0.1l-1.32,0.1l-1.32,0.1l-1.32,0.1l-1.32,0.1
		l-2.64,0.2l-1.32,0.1l-1.32,0.1l-1.32,0.1l-1.32,0.1l-1.32,0.1l-1.32,0.1l-1.32,0.1l-1.32,0.1l-1.32,0.1l-1.32,0.1l-1.32,0.1
		l-1.32,0.1l-1.32,0.1l0,0l0,0l-0.06,0.12l0.01,0.23l0.03,0.37l-0.04,0.36l0.05,0.31l0.2,0.3l0.33,0.59l0.27,0.64l0.87,1.66
		l0.27,0.21l0.78,0.15l0.33,0.17l0.27,0.24l0.19,0.26l0.31,0.74l0.33,0.83l0.15,1.13l0.06,0.62l0.18,0.39l0.42,0.48l0.69,0.14
		l0.61,0.02l0.21,0.23l0.03,0.55l0.23,0.33l0.32,0.13l0.38,0.09l0.28,0.21l0.24,0.25l0.26,0.19l0.73,0.19l0.27,0.19l0.1,0.43
		l-0.03,0.41l-0.36,0.5l-0.17,0.35l-0.24,0.33l-0.32,0.19l-0.31-0.06l-0.54-0.31l-0.43-0.07l0.05,0.14l0.56,0.47l0.15,0.1l0.27,0.1
		l0.12,0.1l0.24,0.34l0.13,0.34l-0.14,0.48l-0.11,0.29l-0.04,0.27l0.35,0.39l-0.42-0.01l-0.24,0.05l0.07-0.01l-0.07,0.21l0.1,0.25
		l0.42,0.26l0.09,0.17l0.68,0.48l0.13,0.18l0.04,0.13l0.06,0.11l0.19,0.12l0.24,0.08l0.35,0.27l0.24,0.09l0.16,0.12l0.29,0.31
		l0.11,0.06l0.19,0.22l0.9,1.2l1.91,2.16l0.58,1.28l-0.02,1.59l-0.28,0.78l-0.1,0.45l0.07,0.31l0.33,0.16l0.75,0.01l0.33,0.13
		l0.42,0.54l0.14,0.24l0.31,0.39l0.17,0.14l2.22,1.27l0.18,0.19l0.05,0.34l0.32,0.96l0.1,1.85l-0.19,2.79l0.12,0.71l0.34,0.67
		l0.36,0.33l0.09-0.21l-0.09-0.39l-0.17-0.21l-0.15-0.07l-0.01-0.15l0.09-0.17l0.14-0.11l0.19-0.03l0.2,0.03l0.19,0.06l0.15,0.07
		l-0.03-0.3l-0.13-0.22l-0.17-0.21l-0.16-0.27l0.3,0.08l0.32,0.24l0.26,0.29l0.12,0.25l-0.06,0.26l-0.19,0.21l-0.5,0.4l0.76,0.02
		l0.67,0.1l0.57,0.25l0.46,0.48l0.3,0.55l0.25,0.7l0.16,0.79l0.02,0.8l-0.11,0.59l-0.02,0.21l0.04,0.15l0.17,0.24l0.04,0.1
		l0.07,1.14l-0.07,0.4l-0.37,1.26l0.07,0.21l0.81,0.04l0.33,0.11l0.28,0.22l0.15,0.26l0.23,0.64l0.18,0.27l0.12,0.33l-0.06,0.42
		l-0.11,0.43l-0.02,0.35l0.17,0.3l1.28,0.92l0.72,0.28l0.29,0.22l0.29,0.63l0.21,0.33l0.3,0.14l0.47-0.01l0.28,0.02l0.26,0.14
		l0.4,0.34l1.25,0.77l1.32,0.54l1.18,0.65l0.81,1.1l1.49,0.18l2.37,0.74l0.28,0.11l1.39,1.51l0.12,0.29l0.13,0.16l1.79,1.15
		l0.24,0.11l0.15,0.09l0.07,0.22l0.09,0.43l0.13,0.19l0.14,0.16l0.16,0.14l0.19,0.12l0.74,0.26l0.51,0.15l0.14,0.25l0.09,0.31
		l0.18,0.3l0.1,0.28l-0.13,0.26v0.13l0.23,0.19l0.2,0.21l0.2,0.13l0.23-0.03l0.1,0.19l0.31,0.4l0.12,0.24l0.04,0.17l0.12,0
		l0.13-0.08l0.25-0.05l0.46,0.06l0.47,0.18l0.33,0.43l0.17,0.25l0.33,0.05l0.13,0.25l0.03,0.4l0.08,0.32l0.35,0.2l0.16,0.32
		l0.27,0.15l0.11,0.35l0.07,0.36l0.01,0.23l0.77,0.32l0.43,0.38l0.16,0.25l-0.16,0.11l-0.07,0.04l0.14,0.08l0.36,0.13l0.17,0.03
		l0.49-0.03l0.43-0.01l0.16,0.07l0.16,0.19l0.27,0.5l0.06,0.28v0.21l-0.07,0.25l0.04,0.18l0.1,0.09h0.28l0.31,0.01l0.25,0.18
		l0.18,0.19l0.06,0.16l0.1,0.15l0.16,0.1l0.09,0.21l0.02,0.22l0.07,0.19l0.13,0.16l0.15,0.28l-0.04,0.64l-0.09,0.22l-0.4,1.16
		l-0.36,0.79l-0.24,0.39l-0.15,0.19l-0.06,0.13l0.04,0.16l0.13,0.15l0.16,0.04l0.16-0.07h0.19l0.15,0.13l0.09,0.28l0.06,0.21
		l0.07,0.1l0.07,0.12l-0.15,0.09l-0.15,0.16l-0.15,0.34l-0.19,0.39l-0.24,0.25l-0.15,0.1l-0.04,0.13l-0.02,0.18l-0.13,0.09
		l-0.13,0.12l-0.1,0.22l-0.37,0.39l-0.55,0.71l-0.38,0.41l0.84,0l-0.62,0h-0.22l-0.08,0.08l-0.28,0.27l-0.12,0.22l-0.36,0.28
		l-0.15,0.15l-0.09,0.27l-0.03,0.3l-0.04,0.21l0.07,0.15l0.18,0.02l0.16-0.16l0.15-0.19l0.34-0.13l0.21,0.03l0.19-0.09l0.13-0.1
		l0.15-0.04l0.07-0.13l0.02-0.13l0.16-0.09l0.12,0.03l0.15,0.07l-0.02,0.15l-0.07,0.12l0.07,0.12l0.1,0.09l0.16,0.06l0.07,0.06
		l-0.03,0.1l-0.12,0.06l-0.13,0.07l0.03,0.06l0.09,0.01l0.16,0.03l0.07,0.07l-0.06,0.21l-0.21,0.24l-0.28,0.34l-0.09,0.19
		l-0.12,0.13l-0.03,0.19l0.03,0.22l0.02,0.27l0.19,0.25l0.15,0.16l0.13,0.18l0.06,0.24l0.03,0.21l0.16,0.13l0.12,0.16l0.15,0.09
		l0.22,0.03l0.24-0.07l0.21-0.13l0.13-0.1h0.18l0.12,0.07l0.07,0.01l0.01-0.12l0.03-0.1h0.13l0.06-0.12l-0.07-0.21l-0.12-0.16
		l-0.15-0.09l0.02-0.19l-0.15-0.27l-0.07-0.16l0.04-0.07l0.13,0.04l0.16,0.16l0.09,0.15l0.15,0.28l0.21,0.33l0.07,0.03l0.1-0.01
		l0.22-0.03l0.16,0.02l0.12-0.12l0.07-0.02l0.13,0.09l0.03,0.13l0.09,0.04l0.18,0.03l0.27,0.12l0.07,0.1l0.19,0.03l0.19,0.13
		l0.07,0.16l-0.06,0.24l-0.24,0.16l-0.09,0.16l-0.12,0.16l-0.13,0.18l-0.06,0.07l-0.27,0.01l-0.47-0.07l-0.31-0.12l-0.15-0.1
		l-0.01-0.15l-0.16-0.06l-0.22,0.06l-0.07-0.09l-0.03-0.12l-0.12-0.06l-0.21,0.04l-0.15,0.03l-0.09,0.07l0.03,0.1l0.12,0.01
		l0.12-0.06l0.03,0.06l0.06,0.06l0.04,0.12l0.13-0.07l0.12,0.1l-0.07,0.27l-0.16,0.21l-0.31,0.22l-0.01,0.12l-0.13,0.15l-0.21,0.12
		l-0.16,0.1l-0.04-0.15l0.04-0.19h-0.16l-0.15-0.09l0.01-0.18l-0.12-0.13l-0.18-0.25l-0.27-0.22l-0.46-0.18l-0.34-0.22l-0.5-0.09
		l-0.3-0.16l-0.39-0.37l-0.37-0.16l-0.4-0.52l-0.13-0.27l0.07-0.18l0.12-0.22l0.1-0.28l0.09-0.28l-0.07-0.34l-0.04-0.15l-0.01-0.13
		l-0.1-0.07l-0.22-0.04h-0.16l-0.16,0.09l-0.19,0.12l-0.36,0.22l-0.36,0.21l-0.16,0.19l-0.19,0.19l-0.5,0.31l-0.55,0.21l-0.3,0.1
		l-0.32,0.06l-0.32,0.04l-2.75-0.08l-0.36-0.09l-0.28-0.14l-0.35-0.26l-0.29-0.13l-0.32-0.04l-0.44,0.01l-0.43-0.05l-0.7-0.26
		l-0.3-0.06l-1.07-0.04l-1.12,0.14l-0.32-0.07l-0.73-0.47l-0.25,0.05l-0.09,0.26l0.08,0.38l0.07,0.05l0.13,0.05l0.12,0.08l0.05,0.12
		l0,0.2l0.02,0.09l0.16,0.23l0.05,0.18l0.02,0.4l0.15,0.32l0.35,0.11l0.37-0.02l0.23-0.08l0.24,0.21l0.41,0.63l0.28,0.13l0.22-0.08
		l0.09-0.16l0.1-0.14l0.25,0l0.19,0.09l0.15,0.15l0.1,0.19l0.06,0.21l-0.1,0.03l-0.17,0.07l-0.1,0.02l0.21,0.19l0.91,0.3l0.36,0.25
		l0.07,0.14l0.17,0.54l0.06,0.1l0.25,0.29l0.06,0.1l0.18,0.21l0.41,0.16l0.77,0.19l1.01,0.53l0.28,0.08l0.12,0.08l0.56,0.52
		l0.46,0.27l0.16,0.13l0.45,0.55l0.23,0.6l0.13,0.69l0.04,0.78l0.02,0.73l0.09,0.22l0.22,0.09l0.44,0.02l0.14,0.07l0.02,0.16
		l-0.01,0.2l0.04,0.18l0.08,0.09l0.4,0.29l0.35-0.11l0.56,0.13l0.58,0.25l0.42,0.27l0.18,0.02l0.58-0.25l0.29-0.07l0.27,0.01
		l0.25,0.06l0.46,0.17l0.63,0.29l0.59,0.32l0.37,0.13l0.16,0.1l0.39,0.75l0.17,0.25l0.88,1.07l0.2,0.1l0.18-0.08l0.14-0.14l0.1-0.07
		l1.09-0.08l0.38,0.05l0.7,0.25l0.57,0.38l0.56,0.38l0.58,1.3l0.3,0.57l0.06,0.27l0.16,0.25l1.07,0.55l0.88,0.85l0.29,0.12
		l0.82-0.05l0.28-0.14l-0.06-0.29l0.28-0.21l0.28-0.29l0.3-0.26l0.36-0.1v-0.13l0.02-0.2l0.4-0.12l0.53,0.01l0.39,0.2l-0.04,0.01
		l0.59-0.07l0.44,0.17l1.18,0.76l0.24,0.11l0.09-0.19l-0.07-0.27l0.01-0.21l-0.03-0.15l0.01-0.15v-0.16l0.1-0.24l0.24-0.22
		l0.22,0.14l0.77-0.77l0.06-0.18l0-1.12l0.12-0.41l0.28-0.14l0.32,0.08l0.26,0.27l0.09,0.31l0.03,0.93l-0.12,0.19l-0.1,0.33
		l-0.16,0.19l-0.25,0.13l-0.16,0.22l-0.21,0.22l-0.15,0.1l-0.27,0.16l-0.15,0.13l-0.34,0.01l-0.12,0.09l0.12,0.1l0.03,0.25l0.1,0.21
		l0.15,0.19l0.18,0.1l0.24-0.09l0.01-0.13l-0.07-0.16l0.19-0.04l0.27-0.04l0.06-0.22l0.06-0.21l0.25-0.1l0.24-0.07l0.15,0.01
		l0.16,0.07l-0.12,0.09l-0.27,0.13l-0.04,0.21v0.22l0.1,0.19l0.19,0.3l0.19,0.24l0.22,0.15l0.28,0.34l0.19,0.27l0.24,0.33l0.12,0.12
		l0.02,0.19l-0.07,0.19l0.07,0.3l0.12,0.22l0.2,0.15l0.37,0.48l0.26,0.26l0.3,0.11l0.35-0.02l0.1,0.02l0.06,0.06l0.03,0.08
		l0.01,0.08l0.01,0.04l0.81,0.49l0.18,0.05l0.31,0.21l0.34,0.32l0.59,0.38l0.11,0.18l0.13,0.12l0.24,0.15l0.28,0.27l0.26,0.02
		l0.51,0.28l0.38,0.27l0.64,0.96l0.23,0.06l0.77-0.03l0.3,0.03l0.08,0.06l0.21,0.13l0.08,0.13l0.23,0.13l0.19,0.03l0.24-0.15
		l0.1,0.18l-0.02,0.26l-0.02,0.07l1.05,0.67l0.3-0.06l0.16-0.18l0.13-0.18l0.22-0.09l0.18,0.04l0.72,0.37l0.42,0.36l0.64,0.76
		l0.4,0.85l0.15,0.52l0.07,0.58l0.36,0.15l0.45,0.13l0.46,0.24l0.33,0.36l0.11,0.3l0.3,0.38l0.44,0.28l1.01,3.63l0.13,0.67
		l-0.03,3.01l-0.08,0.41l-0.01,0.18l0.09,0.1l0.18-0.01l0.1-0.12l0.09-0.36l0.05-0.79l-0.13-1.56l0.22-0.73l0.13,0.63l-0.02,2.06
		l0.04,0.33l0.18,0.69l0.02,0.33l-0.07,0.27l-0.09,0.22l-0.04,0.19l0.08,0.18l-0.01,0.11l0.01,3.02l-0.05,0.32l-0.13,0.21
		l-0.37,0.33l-0.32,0.44l-0.17,0.48l-0.03,2.25l-0.14,0.6l-0.4,0.34l0.04,0.08l0.06,0.22l0.04,0.08l-0.24,0.05l-0.06,0.13l0.06,0.37
		l-0.04,0.22l-0.18,0.28l-0.04,0.13l0.03,0.24l0.08,0.04l0.14-0.06l0.19-0.04l0.05-0.09l0.13-0.44l0.14-0.32l-0.01-0.4l0.07-0.17
		l0.09-0.11l0.18-0.29l0.03-0.1l0-0.22l0.02-0.13l0.09-0.06l0.21-0.02l0.06,0.09l0.02,0.2l-0.01,0.38l0.04,0.2l0.18,0.24l0.03,0.12
		l-0.07,0.13l-0.24,0.15l-0.07,0.08l-0.01,0.15l0.06,0.09l0.07,0.07l0.12,0.4l-0.1,0.13l-0.32,0.27l-0.19-0.11l0.13,0.5l0.11,0.05
		l0.13,0.02l0.1,0.11l0.04,0.19l-0.04,0.54l0.06,0.33l0.11,0.25l0.18,0.2l0.26,0.19l-0.19,0.03l-0.13,0.1l-0.09,0.16l-0.06,0.21
		l0.34-0.11l0.23-0.27l0.13-0.36l0.04-0.37l-0.09-0.56l0.06-0.23l0.28-0.19l0.1,0.19l0.01,0.17l-0.08,0.15l-0.17,0.11l0.32,0.9
		l0.24,0.29l0.3-0.33l0.08,0.17l0.12,0.1l0.14,0.03l0.16-0.05l-0.1-0.08l-0.18-0.2l-0.1-0.08l0.29-0.2l0.1-0.05l-0.38-0.33
		l-0.15-0.41l-0.07-0.47l-0.15-0.52l0.23,0.16l0.2,0.33l0.14,0.38l0.05,0.3l0.11,0.27l0.27,0.35l0.36,0.33l0.36,0.21h-0.37
		l0.18,0.25l0.79,0.75l0.58,0.3l0.13,0.11l0.24,0.31l0.16,1.5l0.16,0.55l-0.13,0.11l0.07,0.05l0.03,0.05l0.03,0.13l0.09-0.15
		l0.17-0.08l0.22-0.03l0.25,0.02l-0.28-0.28l-0.11-0.15l-0.08-0.17l1.06,0.16l0.5-0.03l0.4-0.26l-0.19-0.13l0-0.19l0.16-0.12
		l0.28,0.07l0.15,0.16l0.09,0.22l0.13,0.48l0.45,0.95l0.36,0.53l0.41,0.37l0.76,0.26l0.23,0.11l0.18,0.14l0.86,0.89l0.48,0.37
		l0.56,0.29l0.64,0.16v0.12l-1.34-0.5l-0.39-0.24l-0.11,0.12l3.57,1.81l0.56,0.47l1.66,0.61l0.21,0.32l0.48,0.26l0.9,0.36l1.07,0.79
		l0.59,0.59l0.56,0.39l0.24,0.32l0.48,0.97l0.19,0.13l0.35,0.07l0.41,0.16l0.67,0.38l1.18,1.04l1.83,2.03l1.16,0.88l0.56,0.29
		l2.71,0.92l0.29,0.18l1.2,0.98l0.26,0.34l0.92,2.31l0.43,0.63l0.61,0.45l0.27,0.27l0.11,0.34l0.05,0.38l0.67,1.9l0.38,2.21
		l0.43,1.17l0.06,0.37l0.06,0.17l0.43,0.63l0.25,0.49l0.22,0.2l0.54,0.34l0.29,0.26l0.14,0.06l0.23,0.02l0.42-0.02l0.22-0.08
		l0.25-0.2l0.15-0.08l0.8-0.13l0.15-0.04l0.25-0.18l0.47-0.16l0.32-0.28l0.3-0.33l0.3-0.25l0.75-0.34l0.25-0.25l0.1-0.45l0.15-0.28
		l0.33-0.27l2.5-1.27l0.47-0.34l0.57-0.6l0.21-0.3l0.09-0.26l0.05-0.09l0.23-0.29l0.08-0.17l0.02-0.18l-0.03-0.38l0.01-0.18
		l0.07-0.07l0.14-0.22l0.09-0.23l-0.19-0.2l0.23-0.97l0.15-0.33l0.06-0.3l-0.2-0.28l0.16-0.34l0.01-0.32l-0.11-0.29l-0.17-0.26
		l-0.68-0.69l-0.12-0.21l-0.08-0.41l-0.11-0.2l-0.27-0.21l-0.61-0.23l-0.3-0.22l-0.24-0.13l-1.85-0.46l-0.39-0.15l-0.16-0.24
		l-0.05-0.36l-0.19-0.63l-0.01-0.41l0.08-0.77l-0.09-0.3l-0.29-0.36l-0.34-0.29l-0.84-0.51l-0.04-0.08l-0.07-0.23l-0.07-0.05
		l-0.12-0.01l-0.09-0.03l-0.07-0.06l-0.09-0.08l-0.11-0.16l-0.06-0.18l-0.03-0.4l0.06-0.35l0.16-0.43l0.2-0.4l0.19-0.24l-0.33-0.42
		l-0.1-0.06l-0.06-0.06l-0.04-0.11l-0.06-0.07l-0.09,0.04l-0.25,0.16l-0.88,0.37l-0.29,0.03l-0.76-0.22l-0.41-0.48l-0.22-0.63
		l-0.07-0.7l-0.08-0.19l-0.19-0.21l-0.4-0.36l-0.32-0.21l-0.63-0.22l-1.5-0.72l-0.14-0.24l-0.09-0.32l-0.21-0.25l-0.43-0.34
		l-0.16-0.26L265.4,295l-0.16-0.17l-0.39-0.07l-0.2,0l-0.4,0.05l-0.39,0.17l-0.09,0.07l-0.09,0.32l-0.04,0.96l0.6,1.14l-0.07,0.77
		l-0.11,0.11l-0.35,0.22l-0.1,0.04l-0.16,0.08l-0.08,0.21l-0.05,0.23l-0.07,0.16l-0.4,0.21l-0.34-0.09l-0.26-0.28l-0.3-0.77
		l0.01-0.17l0.19-0.07l0.54,0.18l0.11,0.24l0.27-0.06l0.32-0.16l0.3-0.23l-0.1-0.19l-0.35,0.01l-0.95,0.02l-0.92-0.19l-0.58-0.07
		l-0.24-0.02l-0.22-0.08l-0.49-0.25l-0.21-0.05l-0.3-0.15l-0.7-0.97l-0.12-0.25l-0.29-0.16l-0.33-0.39l-0.54-0.81l-0.3-0.7
		l0.15-0.91l-0.23-0.6l-0.29-0.45l-0.36-0.95l0.01-0.89l0.04-0.82l0.23-0.71l0.47-0.58l0.2-0.3l0.08-0.41l0.03-1.09l-0.03-0.32
		l-0.12-0.57l-0.01-0.23l-0.06-0.17l-0.12-0.12l-0.12-0.09l-0.06-0.1l-0.09-0.38l-0.2-0.31l-0.25-0.29l-0.22-0.33l-0.07-0.22
		l-0.02-0.18l-0.05-0.18l-0.17-0.21l-0.15-0.12l-0.16-0.1l-0.15-0.06l-0.35-0.07l-0.2-0.11l-0.77-0.57l-0.75-1.11l-0.12-0.32
		l-0.07-0.45l-0.18-0.35l-0.21-0.3l-0.17-0.32l-0.03-0.14l0.03-0.53l-0.04-0.2l-0.29-0.59l-0.66-0.87l-0.17-0.3l-0.11-0.32
		l-0.07-0.36l0-1.39l-0.17-0.33l-0.46,0.13l-0.1-0.24l-0.3-0.1l-0.76-0.01l-0.3-0.15l-0.6-0.68l-0.22-0.15l-0.13-0.14l-0.35-0.68
		l-0.11-0.42l-0.17-0.36l-0.07-0.42l-0.1-0.04l-0.14,0.01l-0.17-0.1l-0.72-0.94l-0.06-0.14l-0.02-0.73l-0.03-0.17l-0.1-0.17
		l-0.03,0.05l-0.11,0.05l-0.13,0.03l-0.08-0.02l-0.04-0.08l-0.15-0.46l-0.06-0.56l-0.06-0.16l-0.19-0.32l-0.15-0.34l-0.05-0.34
		l0.11-0.34l0.33-0.34l-0.04-0.57l0.19-0.78l0.07-0.69l-0.41-0.3l-0.22-0.34l-0.83-2.11v-0.5l0.06-0.17l0.08-0.08l0.04-0.11
		l-0.05-0.26l-0.22-0.3l-0.32-0.23l-0.23-0.21l0.03-0.24l-0.63-0.51l-0.18-0.31l0.07-0.52l0.24-0.4l0.27-0.36l0.08-0.32l-0.34-0.27
		l-0.29,0.14l-0.38-0.08l-0.38-0.2l-0.3-0.22l-0.21-0.22l-0.11-0.23l-0.04-0.3l0.03-1.6l-0.04-0.38l-0.15-0.37l-0.24-0.13
		l-0.31-0.08l-0.37-0.22l-0.5-0.38l-0.53-0.57l-0.12-0.09l-0.68-0.36l-0.3-0.21l-0.13-0.24l-1.24-0.8l-0.57,0.19l0.17,0.72
		l0.21,0.69l0.1,0.96l0.26,0.84l0.15,0.17l0.34,0.1l0.31,0.33l0.58,0.58l0.63,0.56l0.17,0.33l0.01,0.21l-0.66,0.59l-0.33,0.06
		l-0.42-0.21l-0.2-0.23l-0.42-0.85l-0.26-0.3l-0.2-0.13l-0.44-0.2l-0.16-0.1l-0.08-0.13l-0.09-0.34l-0.07-0.16l-0.27-0.3l-0.28-0.2
		l-0.07-0.21l0.27-0.51l0.05-0.17l0.1-0.08l0.12-0.06l0.1-0.12l0.04-0.2l0-0.35l-0.06-0.19l-0.89-0.8l-0.27-0.31l-0.18-0.13
		l-0.35-0.17l-0.14-0.13l0.02-0.26l-0.04-0.16l-0.17-0.07l-0.32-0.2l-0.28-0.47l-0.18-0.54l-0.01-0.39l0.26-0.4l0.36-0.18l0.42-0.11
		l0.45-0.17l-0.1-0.26l-0.07-0.13l-0.09-0.11l-0.36-0.01l-1.28-0.42l-0.46-0.08l-0.1,0.03l-1.12-0.64l-0.25,0.03h-0.11l-0.22-0.18
		l-0.54-0.26l-0.23-0.18l-0.18-0.38l0.05-0.25l0.18-0.03l0.2,0.29l-0.08-0.48l-0.28-0.34l-0.35-0.33l-0.28-0.45l-0.06-0.12
		l-0.16-0.15l-0.21-0.14l-0.19-0.2l-0.03-0.18l0.01-0.25l-0.03-0.22l-0.13-0.09l-0.04-0.22l-0.07-0.99l-0.07-0.27l0.12-0.25
		l-0.49-0.96l-0.19-0.15l-0.37-0.04l-0.83-0.27l-0.34-0.17l-0.44-0.42l-0.28-0.22l-0.33-0.09l-0.06-0.05l-0.13-0.24l-0.1-0.08
		l-0.1,0l-0.06,0.12l-0.1,0.01l-0.57-0.07l-0.16-0.05l-0.24-0.16l-0.24-0.25l-0.19-0.3l-0.08-0.34l-0.17-0.25l-0.39-0.15l-0.45-0.12
		l-0.34-0.15l-0.16-0.21l-0.12-0.29l-0.07-0.34l-0.02-0.35l-0.14-0.27l-0.65-0.37l-0.21-0.28l0.03-0.23l-0.15-0.33l0-0.15
		l-0.11-0.16l-0.04-0.15l0.04-0.15l0.11-0.15l0.11-0.35l-0.14-0.73l0.24-0.25l-0.1-0.1l-0.1-0.1l-0.15-0.12l-0.28-0.01l-0.26-0.12
		l-0.12-0.23l0.03-0.25l0.07-0.26l0.01-0.25l-0.3-0.68l0.09-0.56l0.25-0.42l0.04-0.22l0.11-0.03l-0.18-0.6l-1.08-0.88l-0.24-0.65
		l0.21-1l0.1-0.65l-0.14-0.41l0.03-0.18l0.06-0.15l0.01-0.16l-0.1-0.09l-0.13,0.04l-0.1,0.06l-0.11-0.01l-0.15-0.06l0.12-0.12
		l-0.56-0.15l-1.81,0.01l-0.22-0.08l-1.13-0.71l-0.18-0.19l-0.09-0.25l-0.32-1.46l-0.08-0.3l-0.34-0.47l-0.08-0.34l-0.19-0.24
		l-0.33-0.79l-0.02-0.31l0.03-0.33l-0.03-0.28l-0.22-0.17l0.06-0.28l-0.15-0.24l-0.28-0.16l-0.32-0.06l-0.98,0.31l-0.18,0.15
		l-0.27,0.15l-0.31,0.08l-0.28-0.07l-0.08-0.16l-0.09-0.52l-0.09-0.18l0.15-0.22l0.08-0.22l-0.03-0.21l-0.2-0.22l0.12-0.19
		l-0.02-0.19l-0.13-0.15l-0.21-0.09l0.08-0.29l0.04-0.08l-0.4,0.13l-0.23,0.02l-0.1-0.09l-0.01-0.27l-0.04-0.08l-0.37,0.06
		l-0.48,0.19l-0.16,0.1l-0.09,0.17l0.03,0.15l0.08,0.14l0.08,0.29l0.04,0.07l-0.06,0.04l-0.26,0.04h-0.2l-0.48-0.11l-0.15-0.14
		l-0.53-0.98l0.23-0.09l-0.03-0.23l-0.13-0.29l-0.08-0.29l0.06-0.25l0.23-0.57l0.02-0.11l-0.31-0.87l-0.18-0.23l-0.2-0.12l-0.22-0.1
		l-0.25-0.16l-0.04-0.1l-0.03-0.29l-0.05-0.1l-0.12-0.05l-0.29-0.04l-0.15-0.09l-0.23-0.24l-0.09-0.16l0.01-0.94l-0.07-0.19
		l-0.19-0.25l-1.79-1.87l-2.82-2.2l-1.75-1.35l-0.63-0.2l-0.18-0.23l-0.15-0.28l-0.19-0.26l-2.29-2.21l-0.14-0.09l-0.45-0.08
		l-0.16-0.08l-0.11-0.08l-0.11-0.04l-0.22,0.06l-0.25,0.25l-0.2,0.06l-0.24-0.04l-0.17-0.13l-0.15-0.16l-0.19-0.16l-0.2-0.09
		l-0.16-0.03l-0.15-0.05l-0.17-0.13l-0.14-0.19l-0.05-0.16l0.01-0.25l-0.09-0.8l-0.12-0.39l-0.16-0.23l-0.34-0.1l-0.36-0.01
		l-0.28-0.09l-0.25-0.72l-0.33-0.22l-0.78-0.34l-0.14-0.22l-0.4-0.83l-0.02-0.18l-0.68-1.1l-0.15-0.09l-0.12-0.02l-0.08-0.07
		l-0.03-0.25l-0.28-0.58l-0.09-0.1l-0.09-0.14l-0.03-0.22l0.04-0.08l0.17-0.27l0.05-0.15l0.01-0.25l-0.11-0.34l-0.03-0.2l0.02-0.15
		l0.09-0.27l0.06-0.59l0.16-0.69l0.15-1.75l-0.04-0.25l-0.21-0.34l-0.09-0.2l-0.01-0.19l0.04-0.39l-0.02-0.18l-0.18-0.3l-0.47-0.43
		l-0.09-0.31l-0.13-1.11l0.13-1.96l-0.05-0.44l-0.33-0.97l-0.02-0.19l0.02-0.61l-0.04-0.19l-0.08-0.13l-0.08-0.09l-0.04-0.09
		l-0.2-0.19l-1.28-0.35l-0.33-0.22l-0.19-0.32l-0.01-0.37l0.22-0.39l0.01-0.28l-0.29-0.31l-0.38-0.31l-0.26-0.27l-0.16-0.56
		l-0.04-0.72l0.59-6.13l0.17-0.72l0.31-0.6l0.63-0.64l0.14-0.35l-0.22-0.42l-0.26-0.34l-0.15-0.37l-0.22-1.27l-0.13-0.22l-0.26-0.07
		l-0.47-0.01l-0.43-0.39l-0.24-0.32l-0.01-0.26l-0.18-0.22l-0.23-0.2l-0.27-0.17l-0.31-0.14l-0.47-0.08l-0.14-0.04l-0.18-0.11
		l-0.08-0.08l-0.26-0.41l-0.07-0.23l-0.01-0.2l0,0l0.05-0.05l0.05-0.04l0,0l0.15,0.1l0.06,0.21l0.03,0.21l0.06,0.1l0.11,0.04
		l0.26,0.17l0.18,0.04l0.23,0.02l0.22,0.06l0.4,0.17l0,0l1.04,0.64l0.37,0.09l0.22,0.12l0.46,0.56l0.24,0.2l0.18,0.05l0.63,0.06
		l0.21,0.06l0.36,0.26l0.17,0.06l0.06,0.07l0.33,0.31l0.16,0.1l0.17,0.03l1.32-0.02l0.32,0.09l2.68,2l0.34,0.07l1.57,0.74l0.17,0.15
		l0.07,0.21l0.09,0.13l0.2,0.08l0.23,0.07l0.17,0.08l0.33,0.27l0.33,0.2l0.75,0.33l1.47,0.4l0.84,0.07l0.76-0.11l0.18-0.11
		l0.07-0.12l0.08-0.1l0.22-0.04l0.17-0.06l0.18-0.15l0.14-0.18l0.14-0.4l0.15-0.05l0.07-0.04l-0.16-0.21l-0.03,0.03l-0.1,0.02
		l-0.13-0.04l-0.13-0.14l0.02-0.16l-0.01-0.98l0.05-0.23l0.27,0.14l0.08,0.7l0.33,0.28l0.24-0.02l0.24-0.06l0.5-0.18l0.17,0.32
		l0.45,0.18l0.98,0.24l2.64,1.18l0.32,0.35l0.13,0.55l0.08,1.35l0.15,0.5l-0.36,0.01l-0.12-0.01l0.3,0.23l2.28,0.87l0.27,0.04
		l0.71-0.04l2.9,0.75l1.03,0.12l-0.31-0.14l-0.25-0.07l-0.22-0.12l-0.21-0.28l0.26-0.04l0.29-0.11l0.23-0.02l0.2,0.5l0.24,0.22
		l0.53,0.32l0.51,0.39l0.27,0.16l0.27,0.06l0.23-0.09l-0.14-0.19l-0.29-0.21l-0.22-0.12l0.66-0.17l0.47,0.44l0.36,0.55l0.34,0.17
		l0.1,0.71l-0.1,0.97l-0.25,0.93l-0.37,0.6l-0.06-0.32l-0.25-0.51l-0.05-0.36l-0.05-0.16l-0.13-0.14l-0.16-0.04l-0.15,0.14
		l0.01,0.14l0.54,1.39l0.13,0.74l-0.05,0.75l-0.42,1.53l0.06,0.68l0.82,2.21l0.46,0.69l2.14,2.3l0.87,1.16l0.26,0.5l0.22,0.69
		l0.01,0.74l-0.38,0.64l0.19,0.1l0.08-0.06l0.05-0.11l0.07-0.05l0.13,0.05l0.22,0.16l0.06,0.03l0.26,0.1l0.24,0.23l0.55,0.84
		l0.11,0.48l-0.03,2.01l0.04,0.27l0.14,0.3l0.16,0.25l0.13,0.26l0.06,0.36l-0.35,0.91l-0.01,0.25l0.18,0.21l0.23,0.05l0.24-0.08
		l0.21-0.17l0.05,0.1l0.12,0.16l0.06,0.13l0.25-0.02l0.25,0.45l0.37,1.03l0.21,0.29l0.29,0.32l0.26,0.37l0.16,0.69l0.12,0.26
		l0.18,0.2l0.48,0.15l0.14,0.18l0.09,0.22l0.85,1.31l0.3,0.31l0.62,0.44l0.17,0.27l0.06,0.45l0.1,0.07l0.49,0.16l0.14,0.08
		l0.03,0.14l-0.03,0.59l-0.13,0.35l-0.4,0.7l-0.08,0.37l0.08,0.46l0.22,0.3l0.69,0.41l0.28,0.32l0.15,0.08l0.06-0.21l-0.05-0.14
		l-0.07-0.14l0-0.11l0.18-0.04l1.15-0.11l0.38,0.11l0.5,0.46l0.2,0.66l-0.09,0.75l-0.37,0.73l0.32,0.13l0.32,0.2l0.24,0.23l0.1,0.23
		l0.11,0.42l0.02,0.19l-0.04,0.16l-0.17,0.33l-0.05,0.19l0.07,0.34l0.32,0.85l0.04,0.17l-0.16,0.05l0.01,0.11l0.1,0.12l0.11,0.09
		l0.17,0.05l0.4,0.02l0.17,0.05l0.09,0.12l0.12,0.21l0.15,0.2l0.28,0.12l0.4,0.27l0.1,0.16l0.1,0.33l0.1,0.19l0.14,0.15l0.36,0.26
		l1.2,0.64l0.33,0.25l0.36,0.15l0.33-0.06l0.28,0l0.2,0.34l0.02,0.19l-0.03,0.2l-0.07,0.16l-0.1,0.07l-0.17-0.06l-0.11-0.14
		l-0.09-0.18l-0.12-0.17l-0.32-0.14l-0.28,0.13l-0.18,0.28l-0.02,0.29l0.34,0.53l2.87,2.44l0.41,0.52l0.33,0.57l0.29,0.76l0.21,0.33
		l0.3,0.13l0.38,0.05l0.4,0.13l2.07,0.93l0.77,0.23l0.63-0.11l-0.07,0.32l-0.17,0.19l-0.11,0.21l0.12,0.39l0.23,0.31l0.8,0.62
		l0.1,0.19l0.06,0.39l0.14,0.25l0.03,0.1l0.05,0.08l0.11,0.04l0.26-0.01l0.06,0.01l0.16,0.19l0.48,0.7l0.21,0.52l0.57,0.8l0.14,0.11
		l1.71,1.58l0.68,0.47l0.49,0.07l-0.03,0.26l-0.03,0.1l-0.07,0.13l0.45-0.04l0.68-0.36l0.4-0.09l0.45,0.08l0.42,0.21l0.37,0.28
		l0.3,0.29l-0.16,0.02l-0.1,0.04l-0.22,0.18l0.13,0.08l0.08,0.1l0.06,0.1l0.08,0.09l0.12,0.05l0.28,0.03l0.09,0.04l0.41,0.51
		l0.08,0.03l0.08,0.18l0.17-0.15l0.17-0.29l0.08-0.24l-0.01-0.24l-0.07-0.16l-0.15-0.06l-0.27,0.04l0.36-0.37l0.18-0.26l0.07-0.3
		l0.01-0.5l0.09-0.18l0.21-0.01l0.21,0.12l0.09,0.19l0.01,0.23l0.03,0.16l0.07,0.17l0.14,0.24l-0.54,0.2l-0.19,0.04v0.13l0.66-0.14
		l0.63-0.04l0.63,0.05l1.27,0.28l0.29,0.11l0.55,0.34l0.26,0.04l0.09-0.09l-0.22-0.19l0.45-0.02l1.05,0.39l0.36-0.13l0.09,0.35
		l-0.23,0.16l-0.9,0.12l-0.16-0.02l-0.12,0.03l-0.09,0.35l-0.1,0.08l-0.12-0.04l-0.1-0.17l-0.11,0.23l0.05,0.2l0.17,0.14l0.25,0.03
		l-0.23,0.43l0.04,0.26l0.32,0.13l0.61,0.04l-0.1,0.19l-0.18,0.05l-0.22,0.03l-0.24,0.1l-0.1,0.14l-0.16,0.59l0.14-0.22l0.25-0.12
		l0.21,0.05l0.04,0.29l-0.2,0.23l-0.36,0.07l-0.39-0.05l-0.28-0.12l0.15,0.86l0.68,1.36l0.23,1.41l0.34,0.67l0.08,0.44l-0.01,0.46
		l0.07,0.13l0.19,0.09l0.18-0.02l0.22-0.11l0.33-0.26l0.14,0.15l0.08,0.07l0.25,0.08l0,0.12l-0.07,0.13l-0.03,0.08l0.15,0.23
		l0.47,0.51l-0.23,0.21l-0.31-0.01l-0.35-0.05l-0.35,0.09l0.28,0.12l0.64,0.14l0.3,0.1l0.84,0.52l0.46,0.41l0.65,0.73l0.28,0.46
		l0.33,0.04l0.41-0.01l0.37,0.05l0.71,0.33l0.37,0.12l0.83,0.08l0.41,0.09l0.76,0.25l0.35,0.21l0.23,0.06l0.21-0.1l0.1-0.1l0.13-0.1
		l0.14-0.07l0.13-0.03l0.31,0.02l0.3,0.05l0.29,0.11l0.25,0.19l0.42,0.61l0.81,2.22l-0.38-0.24l-0.51-0.71l-0.36-0.16l0.15,0.33
		l0.59,0.58l0.13,0.25l0.06,0.27l0.25,0.56l0.06,0.42l0.14,0.54l0.35,0.68l0.45,0.63l0.84,0.83l0.44,0.33l0.53,0.2l0.15,0.11
		l0.43,0.23l0.4-0.18l0.35-0.31l0.28-0.17l2.46,0.37l0.03-0.06l-0.11-0.12l-0.21-0.09l-0.26,0.02l0.06-0.07l0.04-0.06l0.05-0.06
		l0.1-0.06v-0.11l-0.33-0.1l-0.33-0.06l-0.15-0.14l0.19-0.32l0.31-0.19l0.29,0.03l0.18,0.2l-0.03,0.33l0.23-0.05l0.18,0.01
		l0.27,0.05l-0.02,0.05l0.22,0.11l0.26,0.09l0.1,0l0.15,0.33l-0.19,0.06l-0.3,0l-0.15,0.15l0.1,0.05l0.63,0.14l0.2,0.13l0.41,0.49
		l1.84,1.6l0.4,0.44l0.29,0.62l0.2,0.7l0.11,0.71l-0.25,1.26l0.06,0.26l0.17-0.02l0.51-0.53l0.19-0.02l0.2,0.03l0.36,0.1l-0.05-0.12
		l-0.06-0.1l-0.07-0.08l-0.07-0.06l0.5,0.26l0.31,0.58l0.42,0.77l0.5-0.03l0.1,0.24l-0.12,0.1l-0.2,0.05l-0.14,0.11l0.02,0.24
		l0.25,0.43l-0.03,0.19l-0.26-0.03l-0.84-0.69l-0.37-0.14v-0.11l0.22-0.15l0.14-0.29l0.02-0.27l0-0.08l-0.14-0.34l-0.22-0.12
		l-0.37-0.1l-0.35,0l-0.16,0.17l-0.03,0.96l-0.08,0.31l0,0.02l-0.54,0.94l-0.11,0.55l-0.09,0.21l-0.14,0.13l-0.18-0.05l-0.09-0.17
		l0.04-0.2l0.07-0.2l0.05-0.18l-0.02-0.39l0.07-0.25l0-0.01l0.06-0.12l0.09-0.13l0.11-0.13l0.12-0.1l0.2-0.38l-0.06-0.22l-0.13-0.04
		l-0.07,0.19l-0.06,0.29l-0.34,0.6l-0.07,0.12l-0.66,1.11l-0.23,0.72l-0.3,0.37l-0.67,0.67l-0.65,0.99l-0.08,0.29l-0.03,0.79
		l0.03,0.33l0.12,0.4l0.15,0.28l0.06,0.17l0.02,0.25l-0.01,0.36l0.14-0.07l0.18,0.04l0.03,0.14l-0.1,0.15l-0.18,0.07l-0.06-0.09
		l-0.02-0.2v-0.03l-0.04,0.02l-0.09,0.16l-0.21,0.69l-0.06,0.36l0.1,0.31l0.37,0.13l0.14,0.18l0.05,0.41l-0.03,0.46l-0.09,0.32
		l0.19,0.26l0.07-0.13l0.01-1.04l0.1-0.23l0.21-0.1l0.33-0.02l0.28,0.08l0.4,0.19l0.34,0.23l0.15,0.2l0.02,0.06l0.04,0.03l0.04,0.05
		l0.02,0.11l-0.03,0.09l-0.16,0.14l-0.05,0.08l-0.02,0.3l0.02,0.31l-0.52-0.16l-0.54-0.01l-0.5,0.13l-0.42,0.26l0.65,0.16l1.99-0.04
		l0.64,0.19l0.47,0.44l0.39,0.5l0.42,0.35l0.07-0.35l-0.3-0.39l-1.23-0.95l-0.15-0.15l-0.11-0.2l-0.04-0.21l0.07-0.08l0.46,0.31
		l0.56,0.24l0.22,0.04l0.17,0.08l0.12,0.18l0.14,0.37l0.22,0.42l0.24,0.2l0.31-0.02l0.46-0.24l0.47,0.13l0.36-0.26l0.58-0.8
		l0.36-0.24l0.87-0.25l0.44-0.18l0.29-0.24l0.27-0.57l0.25-0.36l0.39-0.73l0.21-0.21l0.18,0.27l-0.09,0.37l-0.71,0.58l-0.17,0.35
		l0.04,0.58l-0.05,0.12l-0.08,0l-0.1,0.05l-0.06,0.04l-0.05,0.12l0.03,0.07l0.04,0.07l-0.02,0.1l-0.18,0.25l-0.96,0.87l-0.14,0.03
		l-0.07,0.07l-0.01,0.08l0.03,0.21l-0.02,0.08l-0.13,0.23l-0.03,0.11l-0.05,0.01l-0.17-0.09l-0.1-0.35l-0.13-0.17l-0.19,0.07
		l-0.14,0.01l-0.61-0.21l-0.23,0.08l-0.12,0.18l-0.08,0.21l-0.11,0.17l-0.11,0.07l-0.39,0.16l0.89,0.92l0.57,0.36l0.51-0.04
		l-0.23-0.27l0.06-0.19l0.25-0.12l0.9-0.07l0.14,0.03l0.12,0.13l-0.05,0.1l-0.12,0.05l-0.08-0.02l0.18,0.26l0.21,0.13l0.25-0.02
		l0.29-0.19l0.13-0.11l0.09-0.1l0.06-0.13l0.03-0.21l-0.01-0.21l-0.07-0.12l-0.09-0.11l-0.06-0.19v-0.31l0.12-0.05l0.23,0.07
		l0.32,0.05l0.09-0.02l0.17-0.08l0.11-0.02l0.1,0.04l0.04,0.08l0.02,0.09l0.02,0.05l0.63,0.23l0.17-0.02l0.15-0.07l0.11,0.02
		l0.04,0.26l-0.01,0.84l-0.04,0.25l-0.18,0.56l0.15-0.05l0.21-0.16l0.07-0.03l0.16,0.04l0.02,0.1l-0.01,0.14l0.07,0.14l0.22,0.31
		l-0.16,0.13l-0.74,0.01l0.25,0.31l0.45-0.04l0.96-0.28l0.54,0.11l0.7,0.54l0.43,0.19l-1.31-0.35l-0.74-0.06l-0.42,0.28l0.64-0.01
		l0.76,0.08l0.73,0.19l1.07,0.64l1.86,0.69l0.28,0.15l0.29,0.21l0.25,0.27l0.16,0.35v0.28l-0.08,0.79l0.03,0.16l0.24-0.3l0.44-1.93
		l0.15,0.14l0.42,0.18l0.16,0.18l0.06,0.23l0,0.52l0.05,0.24l-0.19-0.08l-0.41-0.25l-0.13-0.03l-0.02,0.12l0.08,0.55l0.33,0.15
		l0.5,0.07l0.46-0.03l0.24-0.13l0.25,0.1l0.19-0.08l0.18-0.13l0.25-0.02l0.1,0.11l0.39,0.63l0.32,0.32l0.2,0.13l0.23,0.04l0.22-0.04
		l0.14-0.07l0.02-0.11l-0.14-0.14l0.3,0.02l0.23,0.12l1.86,1.53l0.03,0.19l-0.05,0.2l-0.15,0.14l-0.6-0.23l-0.76-0.08l-0.29-0.13
		l-0.36-0.35l-0.13-0.18l-0.07-0.06l-0.07,0.04l-0.15,0.13l-0.06,0.08l-0.18,0.31l-0.01,0.11l0.18,0.11l0.2-0.05l0.17,0l0.07,0.25
		l0.02,0.38l-0.05,0.13l-0.16,0.05l-0.09-0.03l-0.34-0.21l-0.05,0.02l-0.09,0.06l-0.11,0.04l-0.11-0.01l-0.06-0.09l-0.2-0.51
		l-1.1-1.17l-0.13-0.3l-0.32-0.18l-0.41-0.08l-0.39,0l0.1,0.21l0.17,0.13l0.35,0.16l0.63,0.49l0.42,0.5l1.41,2.61l0.56,0.69
		l0.66,0.39l0.09-0.05l0.04-0.13l0.06-0.09l0.13,0.07l0.08,0.09l0.07,0.06l0.09,0.03l0.12,0.01l0.11-0.08l0.05-0.19l0.04-0.62
		l0.11-0.58l0-0.23l-0.03-0.1l-0.05-0.1l-0.23-0.96l0.01-0.34l0.22,0.06l0.71,0.55l0.2,0.26l-0.26,0.46l-0.07,0.23l-0.03,0.28
		l0.11,0.63l-0.02,0.29l-0.22,0.2l0.22,0.14l0.25,0.26l0.2,0.32l0.09,0.32l-0.13,0.39l-0.29-0.02l-0.29-0.19l-0.14-0.12l-0.31-0.18
		l-0.17-0.06l-0.19-0.02l-0.07,0.06l0.03,0.13l0.07,0.13l0.08,0.06l0.2,0.1l0.2,0.26l0.16,0.32l0.1,0.31l0.09,0.65l0.07,0.28
		l0.17,0.24l1.56,1.27l1.34,0.77l0.49,0.11l-0.23-0.28l-0.76-0.41l-0.3-0.23l-0.56-0.55l-0.27-0.18l-0.14-0.13l-0.08-0.19l0.43,0.07
		l0.42,0.19l0.39,0.28l0.34,0.32l0.27-0.15l0.22,0.06l0.74,0.7l0.12,0.06l0.26,0.09l0.11,0.09l0.06,0.13l0.02,0.24l0.04,0.12
		l0.1,0.15l0.36,0.27l0.13,0.06l0.13,0.02l0.14-0.04l0.35-0.2l0.36,0.22l0.26,0.34l0.32,0.21l0.54-0.16l0.18-0.13l0.48-0.44
		l0.08-0.16l-0.14-0.12l-0.48,0.17l-0.25-0.05l0.16-0.21l0.24-0.13l0.29-0.05l0.31,0.03l0.3,0.13l0.19,0.19l0.67,1.41l0.08,0.25
		l-0.01,0.34l-0.12,0.18l-0.18,0.14l-0.19,0.21l0.06,0.01l0.13-0.01h0.06l-0.02,0.07l-0.07,0.11l-0.03,0.06l-0.58-0.4l-0.34-0.14
		l-0.06,0.18l0.26,0.15l0.53,0.3l0.19,0.16l-0.3-0.14l-0.2-0.11l-0.27-0.12l-2.49-1.47l-0.19-0.04l-1.41-0.71l-0.04-0.03l0-0.21
		l-0.02-0.09l-0.05-0.08l-0.12-0.11l-0.15-0.09l-0.12,0.01l-0.05,0.19l0.13,0.32l0.31,0.3l4.16,2.35l1.12,0.95l0.67,0.45l0.7,0.28
		l0.21,0.2l0.07,0.43l0.2,0.19l1.16,0.73l2.57,1.62l0.95,0.85l0.23,0.13l0.35,0.12l0.88,0.62l2.4,2.41l0.52,0.87l0.22,0.77
		l0.29,0.35l0.33,0.32l0.23,0.32l0.17,0.85l0.19,0.37l0.77,0.24l0.32,0.22l0.52,0.53l0.4,0.56l0.26,0.3l0.47,0.22l0.14,0.21
		l0.19,0.44l0.09,0.12l0.08,0.09l0.73,0.61l0.34,0.21l0.3,0.09l0.23,0.19l0.65,1.22l0.02,0.01l0.07,0.09l0.05,0.1l0.03,0.11
		l-0.22,0.14l0.04,0.12l0.29,0.23l0.64,0.91l0.09,0.25l-0.03,0.66l0.03,0.15l0.19,0.1l0.17-0.07l0.17-0.12l0.22-0.04l0.31,0.16
		l1.68,1.8l0.35,0.26l0.19,0.09l0.33,0.11l0.15,0.11l3.38,3.98l0.19-0.19l0.21-0.15l0.22-0.1l0.24-0.04l-0.35,0.48l0.04,0.12
		l0.08,0.08l0.07,0.06l0.03,0.06l0.12,0.11l0.75,0.44l0.31,0.28l0.79,0.96l1.45,1.33l0.6,0.86l0.17,1h0.12l0.16-0.2l0.17,0.08
		l0.16,0.24l0.13,0.25l-0.13,0.08l-0.16,0.1l0.23,0.56l0.67,0.97l0.64,1.52l0.11,0.57l-0.25,5.38l0.09,0.37l0.21,0.34l1.54,1.77
		l1.77,3.32l0.31,1.02l0.17,0.31l0.26,0.21l0.38,0.07l1.3,0.63l0.68,0.47l0.3,0.1l0.84,0.09l0.22,0.17l0.1,0.27l0.07,0.36l0.17,0.35
		l0.03,0.18l-0.23,0.15l-0.39,0.49l-0.19,0.34l-0.07,0.38l0.16,1.48l0.01,2.59l-0.18,0.74l-0.04,0.37l-0.04,0.11l-0.22,0.34
		l-0.11,0.11l-0.13,0.06l-0.31,0.03l-0.19,0.04l-0.32,0.18l-0.16,0.24l-0.13,0.26l-0.2,0.25l-0.84,0.71l-1.05,1.16l-0.12,0.22
		l-0.02,0.2l-0.05,0.23l-0.08,0.22l-0.1,0.15l-0.22,0.15l-0.19,0.01l-0.17-0.03h-0.16l-0.17,0.1l-0.39,0.32l-0.11,0.07l-0.05,0.07
		l0.16,0.12l0.21,0.04l0.11-0.17l1.47,0.56l0.42,0l0.61-0.19l0.28-0.05l0.47,0.04l0.28,0.13l0.94,1.18l0.31,0.39l0.26,0.56l0,0.75
		l-0.12,0.34l-0.21,0.23l-0.27,0.13l-0.32,0.04l-0.26,0.12l-0.65,0.56l-0.36,0.19l-1.25,0.12l-0.3,0.17l-0.26,0.07l-1.28-0.13
		l-0.79,0.22l-1.93,1.15l0.05,0.27l0.02,0.41l0.06,0.38l0.37,0.34l0.47,0.82l0.35,0.49l0.28,0.49l0.16,0.14l0.31,0.19l0.14,0.16
		l0.11,0.3l0.14,1.18v0.79l0.04,0.2l0.17,0.34l0.04,0.2l0.11,0.34l1.06,1.47l0.45,0.79l0.23,0.31l0.52,0.43l0.2,0.23l0.13,0.33
		l0.53,0.53l0.96,1.54l0.85,0.94l1.1,0.92l0.34,0.23l0.34,0.32l0.16,0.02l0.23-0.06l0.2-0.01l0.59,1.46l0.09,0.12l0.12,0.11
		l0.11,0.14l0.05,0.18l-0.09,0.34l0.01,0.15l0.55,0.22l0.19,0.37l0.21,0.83l0.42,0.47l0.64,0.43l1.39,0.7l0.14-0.16l0.12-0.03
		l0.12,0.03l0.17,0.03l0.14-0.04l0.29-0.16l0.18-0.04l0.26,0.09l0.04,0.21l-0.1,0.49l-0.04,0.48l0.13,0.08l0.39-0.01l0.49-0.11
		l0.12-0.01l0.19,0.06l0.04,0.09l0.02,0.1l0.13,0.12l0.21,0.04l0.2-0.02l0.15,0.05l0.06,0.24l0.09,0.19l0.2,0.12l0.66,0.31
		l0.78,0.17l1.59,0.36l0.32,0.2l0.3,0.25l0.26,0.06l0.61-0.13l0.1,0.05l0.08,0.12l0.1,0.08l0.14-0.06l0.25-0.25l0.2-0.07l0.14,0.12
		l0.1,0.17l0.06,0.08l0.44,0.03l0.16,0.1v0.23l-0.12,0.89l0.09,0.25l0.29,0.1l0.19,0.04l0.36,0.17l0.58,0.12l1.01,0.47l1.76,0.6
		l1.91,0.71l0.37,0.19l0.16,0.23l3.69,3.21l0.66,0.58l0.45,0.69l-0.38,0.39v0.11l0.23,0.14l0.76,0.35l0.13,0.13l0.06,0.12l0.08,0.09
		l0.36,0.08l0.15,0.1l0.64,0.7l1.44,2.51l0.44,0.48l0.84,0.27l0.74,0.34l0.23,0.15l0.28,0.15l0.7,0.07l0.3,0.09l1.06,0.3l0.18,0.13
		l1.41,0.42l0.31,0.04l0.56,0.17l0.69,0.09l0.7,0.27l0.9,0.19l1.71,0.95l2.46,0.99l0.92,0.18l2.15,0.19l1.01,0.32l0.75,0.11
		l0.95,0.44l3.08,0.74l0.36,0.16l0.64,0.38l0.41,0.07l0.04,0l0.36-0.03l0.25-0.09l0.38-0.35l0.68-0.5l0.69-0.23l0.71,0l0.76,0.23
		l1.29,0.74l0.25,0.08l1.04,0.53l0.48,0.48l0.27,0.36l0.24,0.7l0.29,0.33l0.7,0.6l1.53,1.95l0.68,0.53l0.34,0.05l0.78-0.1l0.31,0.1
		l0.84,0.72l0.2,0.31v0.18l-0.03,0.25l0.06,0.22l0.89,0.28l0.3,0.22l1.96,0.84l2.07,1.15l0.85,0.57l0.53,0.55l0.28,0.49l-0.04,0.55
		l0.96,0.09l0.88,0.28l1.22,0.76l0.95,0.18l0.97,0.33l0.88,0.16l1.4,0.67l1.41,0.31l4.54,1.71l2.54,1.17l0.36,0.09l1.19,0.03
		l0.38,0.09l1.14,0.64l0.75,0.17l0.35,0.13l0.32,0.25l0.11,0.19l0.18,0.46l0.15,0.16l0.22,0.06l0.06-0.13l-0.07-0.45l-0.07-0.12
		l0.03-0.08l0.25-0.03l0.13,0.03l0.15,0.08l0.11,0.1l0.04,0.1l-0.02,0.35l0.02,0.09l0.05,0.05l0.09,0.05l0.08,0.03l0.04-0.02
		l0.03,0.15l0.01,0.12l-0.08,0.11l-0.21,0.12l0.27,0.21l0.85,0.28l0.97,0.73l0.42,0.19l0.54,0.18l0.59,0.12l0.41,0.13h0.87
		l0.61,0.21l0.2,0.03l2.99,0.16l0.4,0.08l0.38,0.15l0.6,0.35l0.37,0.12l1.91,0.16l3.99,1.08l0.91,0.52l0.38,0.08l0.33,0.01
		l0.23-0.12l0.02-0.06l0.01-0.11l0.02-0.12l0.06-0.09l0.09-0.01l0.18,0.12l0.1,0.02l0.79,0.04l0.59,0.35l1.74,2.19l1.07,0.85
		l0.54,0.7l0.13,0.17l0.25,0.12l0.39,0.06l1.16,0.43l2.33,0.4l1.79,0.56l0.35,0.03l0.12-0.04l0.12-0.08l0.09-0.08l0-0.04l0.1,0.04
		l0.08,0.08l0.05,0.08l0.02,0.04l0.38,0.09l0.36,0.15l0.23-0.17l0.24,0.14l0.25,0.18l0.27-0.03l-0.25,0.24l-0.56-0.06l-1.06-0.3
		l0.32,0.34l0.58,0.25l0.65,0.2l2.11,0.98l0.4,0.31l1.24,0.87l0.09-0.28l0.02-0.1l0.21,0.44l0.05,0.18h-0.26l0.11,0.19l0.15,0.07
		l0.17,0.03l0.19,0.08l0.43,0.48l0.17,0.13l0.35,0.13l1.13,0.12l0.59,0.2l0.2,0.03l0.18-0.04l0.35-0.16l0.21-0.04l7.69,0.85
		l0.81,0.2l0.7,0.29l4.96,2.79l0.72,0.08l1.95,0.43l1.42,0.56l0.76,0.21l1.54,0.25l0.36-0.1l0.22-0.23l0.19-0.29l0.28-0.25
		l0.29,0.12l0.32,0.07l1.96,0.18l0.57-0.06l1.21-0.35l1.68-0.89l1.15-0.46l1.17-0.69l0.63-0.27l0.89-0.25l0.26-0.17l0.33-0.15
		l0.78-0.08l0.32-0.07l0.38-0.18l0.16-0.12l0.07-0.13l0.07-0.06l0.35-0.11l0.39-0.2l1.14-0.16l4.29-1.26l0.57-0.34l-0.05-0.38
		l0.34-0.51l0.58-0.35l0.61-0.26l0.44-0.25l0.58-0.67l0.28-0.18l0.33-0.08l0.7-0.07l0.32-0.1l-0.07-0.16l-0.04-0.18l0.02-0.16
		l0.09-0.11l0.2-0.03l0.17,0.09l0.15,0.12l0.16,0.06l1.43-0.24l0.19,0.02l0.4,0.09l0.14,0.02l0.16-0.04l0.33-0.16l1.08-0.15
		l1.4,0.03l0.93,0.27l0.1-0.09l-0.27-0.41l-0.52-0.19l-1.63,0.05l-0.61-0.17l0.52-0.05l0.76-0.18l0.55-0.25l-0.11-0.28l-0.14,0.03
		l-0.31,0.35l-0.17,0.12l-0.24,0.04l-2.9-0.15l-0.36-0.08l-0.02-0.18l0.21-0.3l0.11-0.1l0.22-0.03l0.14-0.11l-0.1-0.32h1.05
		l0.18-0.12l0.79-1.12l0.35-0.31l0.42-0.21l0.48-0.08l0.2,0.08l0.25,0.18l0.23,0.21l0.12,0.15l0.08,0.26l0.02,0.19l0.08,0.2
		l0.26,0.27l0.19,0.29l-0.15,0.19l-0.28,0.15l-0.19,0.17l-0.02,0.22l0.07,0.2l0.2,0.32l0.24-0.19l0.3-0.45l0.26-0.09l0.5-0.25
		l-0.02-0.06l0.12-0.13l0.21-0.17l0.07-0.03l0.21-0.06l0.09-0.04l0.06-0.09l0.05-0.28l0.13-0.06l0.14-0.03l0.15,0.03l0.15,0.12
		l0.28,0.16l0.7,0.2l0.19,0.19l-0.11,0.79l-0.69,0.46l-1.55,0.47l-0.23,0.17l-0.08,0.21l0.12,0.17l0.39,0.07l0.74,0.03l0.37-0.03
		l0.31-0.12l0.3,0.16l0.47,0.07l0.96,0.01h-0.12l1.68,0.05l0.85,0.16l0.61,0.35l0.26,0.19l5.05,2l1.77,0.7l-0.12-0.22l-0.26-0.15
		l-0.61-0.24l-0.2-0.15l-0.47-0.65l-0.46-0.34l-0.16-0.06l-0.39-0.14l-1.27-0.26v-0.12h0.24v-0.13l-0.61-0.36l-0.27-0.12l-0.19-0.03
		l-0.46,0.02l-0.34-0.07l-0.73-0.26l-0.46-0.03v0.11l1.36,0.49l-0.48,0.13l-0.95-0.4l-1.64-1.07l0.24-0.02l0.16-0.08l0-0.1
		l-0.22-0.04l-0.15-0.06l-0.03-0.1l0.07-0.06l0.16,0.08h0.12l0.02-0.28l-0.07-0.32l0.04-0.26l0.32-0.11l0.39,0.06l0.25,0.15
		l0.4,0.42l0.61,0.47l0.73,0.4l0.76,0.21l0.73-0.1l0.38-0.19l0.35-0.13l0.26,0.1l0.1,0.51l0.1,0.24l0.25,0.27l0.34,0.28l0.18,0.14
		l0.55,0.28l2.15,0.45l0.45,0.2l0.23,0.32l0.2,0.4l0.36,0.42l-0.21,0.23l-0.23,0.12l-0.2-0.02l-0.12-0.2l-0.2,0.05l-0.44-0.03
		l-0.22,0.1l3.3,1.88l1.85,1.2l3.01,2.34l0.31,0.15l4.35,3.57l0.52,0.19l0.21,0.24l0.33,0.51l1.65,1.8l1.43,0.98l0.27,0.51
		l0.35,0.21l0.73,0.3l1.07,0.83l0.3,0.04l-0.23-0.22l0.11-0.13l0.19,0.05l0.05,0.31l0.29-0.07l0.38,0.08l0.37,0.15l0.25,0.15
		l0.22,0.31l0.15,0.74l0.19,0.36l-0.28-0.1l-0.19-0.26l-0.11-0.34l-0.04-0.33l-0.16-0.16l-0.77-0.25l-0.29-0.16l0,0.37l0.28,0.46
		l2.24,2.45l3.45,3.45l2.26,2.19l1.37,1.25l0.99,1.16l0.08,0.08h0l0.67-0.44l0.4-1.06l0.26-0.47l0.12-0.22l0.07-0.27l-0.01-0.34
		l-0.32-0.88l-0.01-0.13l0.02-0.26l-0.01-0.14l-0.17-0.44l-0.04-0.15l-0.02-0.38l0.09-0.21h0l0.37-0.42v0l0.2-0.53l-0.05-1.12
		l0.06-0.59v0l0.21-0.21l0.22-0.06l0.23-0.03l0.24-0.1l0.18-0.21l0.07-0.15l0.28-0.64l-2.32-2.93l-0.14-0.29l-0.01-0.34l0.12-0.31
		l0.33-0.55l0.87-1.46l1.83-3.05l0.83-1.38l1.42-2.37l1.24-2.06l0.87-1.46l0.34-0.55l0.32-0.54l0.08-0.14l0,0l0.21-0.26l0.29-0.14
		l0.81,0l2.47-0.01l2.47,0l2.47-0.01l2.48,0l2.39,0h0.09l2.47,0l2.47,0l2.47,0h1.61l0.35-0.04l0.32-0.12h0l0.07-0.1l0.12-0.25
		l0.05-0.15l-0.1,0.05l-0.04,0.01l-0.03,0.02l-0.06,0.06h-0.13l-0.07-0.31h0l0.43-0.35l-0.23-0.21v-0.11l0.39-0.16v0l-0.12-0.18
		l-0.52-0.29l-0.07-0.34l0.13-0.25l0.22-0.16l0.21-0.09l0-0.01l-0.24-0.09l-0.17-0.14l-0.03-0.18h0l0.2-0.22l0.08,0.07l0.06,0.03
		l0.23,0.03l0,0l-0.07-0.09l-0.11-0.2l-0.07-0.1h0l0.08,0.01l0.02-0.03v-0.05l0.02-0.05l0.11,0.07l0.15,0.04l0.11-0.04v-0.19
		l-0.11,0.04l-0.26-0.09l-0.18-0.13l0,0l0.12-0.06l0.33-0.1l0.26-0.25v0l0.11-0.29l-0.15-0.23h-0.12v0.13h-0.12l0.04-0.26h0
		l0.17-0.09l0.25,0.01l0.27,0.07v0l-0.21-0.33l-0.03-0.11l0-0.23l-0.03-0.26l-0.1-0.02l-0.16,0.07l-0.2,0.03l-0.11-0.05l-0.13-0.08
		l-0.18-0.08l-0.57-0.07l-0.05-0.11l0.02-0.15l-0.09-0.2l-0.1-0.1l-0.17-0.12l-0.2-0.06l-0.43,0.2l-0.11-0.16l-0.08-0.38h-0.17
		l-0.47,0.13l-0.1,0.04l-0.11-0.05l-0.25-0.05l-0.29-0.01l-0.22,0.06l0.09-0.17l0.16-0.13l0.12-0.13l-0.01-0.19l-0.21-0.12
		l-0.28-0.01l-0.16-0.07l0.15-0.27l-0.07-0.29l0.12-0.31l0.06-0.26l-0.25-0.14l-0.05,0.12l-0.06,0.06l-0.1,0.03l-0.15,0.03v-0.11
		l0.24-0.42l-0.25-0.64l-1.21-1.69l-0.26-0.2l-0.64-0.31l-0.26-0.21l0.06-0.21v-0.12l-0.25-0.14l-0.17,0.14l-0.21,0l-1.24-0.37
		l-0.33-0.19l-0.52-0.51l-0.37-0.17l0.03-0.04l0.25-0.26l-0.04-0.14l-0.25-0.04h-0.31l-0.03,0.07l0.06,0.17l0.02,0.16v0l-0.17,0.08
		l-0.09-0.05l-0.23-0.24l-0.1-0.08l-0.68-0.24l-0.22-0.18l-0.08-0.37l-0.1-0.19l-0.63-0.73l-0.07-0.16l-0.09-0.34l-0.1-0.11
		l-0.19-0.03l-0.43,0.04l-0.18-0.07l-0.64-0.67l-0.16-0.25l-0.08-0.18l-0.09-0.32l-0.07-0.12l-0.16-0.09l-0.37-0.09l-0.07-0.12
		l-0.04-0.28l-0.1-0.32l-0.16-0.28l-0.19-0.16l-0.49-0.03l-0.48,0.07l-0.37-0.06l-0.14-0.43l-0.28-0.14l-0.55-0.11l-0.42-0.18
		l0.08-0.28l0.1-0.02l0.03-0.01l7.88,0.06v0l0.02-9.87v0l0.14-0.15l0.37-0.1h0.77l3.94,0l3.95,0l3.95,0l3.95,0l3.95,0l3.95,0l3.06,0
		h0.89l3.95,0l-0.02-1.56l0.13-0.71l0.15-0.2l0.23-0.32h0l1.49-0.52l0.39,0.13l0.29,0.25l0.27,0.29l0.3,0.22l0.22,0.02l0.2-0.04
		l0.17,0.04l0.25,0.51l0.23,0.17l0.72,0.41l0.16-0.05l0,0l0.1-0.14l0.08-0.4l0.08-0.13l0,0l0.91-0.65l0.17-0.19v-0.01l0.26-0.7
		l0.09-0.16h0l0.26-0.21l0.01-0.01l0.25-0.13l0.21-0.16h0l0.17-0.26l0.06-0.19l0.06-0.41l0.05-0.18l0.45-0.72l0.06-0.2l-0.06-0.25
		l-0.07-0.05l0,0l0.39-0.28l0.11-0.08h0l0.53-0.24l0.21-0.16l0.18-0.27l0.07-0.27l0.03-0.28l0.07-0.31l0.17-0.29l0.55-0.61
		l0.22-0.34l0.06-0.21l0.07-0.45l0.16-0.43l0.09-0.54l0.1-0.19l0.13-0.13l0.4-0.29l0.16-0.12l0.18,0.02l0.17,0.08l0.19,0.05
		l0.16-0.02l0.36-0.12l0.2-0.09l0.12-0.04l0.1,0.04l0.17,0.16l0.14,0.08l0.11-0.02l0.1-0.06l0.14-0.04l1.11-0.01l0.12,0.02v-0.04
		l0.07-0.06l0.08-0.03l0.22-0.04l0.15-0.33l0.39-0.56l0.08-0.29l0.5-0.88l0.42-0.53l0.43-0.86l0.09-0.03l0.2-0.12l0.12-0.13
		l-0.18-0.09l-0.18,0.04l-0.18,0.14l-0.15,0.17l-0.09,0.14l0.03-0.34l0.13-0.24l0.08-0.23l-0.11-0.31l-0.21,0.35l-0.31,0.35
		l-0.35,0.27l-0.35,0.14l0.05-0.19l0.08-0.16l0.11-0.14l0.77-0.65l0.14-0.08l0.43-0.02l0.32-0.08l0.21-0.22l0.05-0.13l-0.1,0.37
		l-0.05,0.31l0.12,0.13l0.16-0.11l0.14-0.26l0.1-0.31l0.04-0.26l0.14-0.48l0.36-0.51l0.44-0.46l0.41-0.33l0.11,0.71l0.12,0.31
		l0.19,0.26l0.15,0.3l0.01,0.38l-0.09,0.74l-0.02,0.01l-0.05,0.07l-0.04,0.11l-0.02,0.11l0.04,0.09l0.09,0.11l0.09,0.08l0.04,0.02
		l-0.04,0.22l-0.17,0.29l-0.04,0.16l-0.14,0.3l-0.28,0.35l-0.19,0.38l0.12,0.4l-0.6,0.68l-0.03,0.11l-0.03,0.27l0.04,0.28l0.19,0.13
		l0.42,0.12l0.94,0.5l0.48,0.12l0.35,0.03l0.17,0.1l0.09,0.19l0.07,0.29l-0.06,0.01l-0.07,0.13l-0.03,0.15l0.09,0.07l0.05,0.02
		l0.5,0.11l0.07,0.15v0.17l-0.02,0.15l0.01,0.09l0.26,0.29l0.04,0.02l-0.05,0.29l-0.11,0.2l-0.06,0.17l0.11,0.21l0.1-0.12l0.11-0.16
		l0.09-0.18l0.06-0.19l0,0.24l-0.06,0.47l-0.1,0.46l-0.14,0.2l-0.15,0.14l0.07,0.24l0.22,0.08l0.29-0.35l0.09,0.39l0.03,0.48h0.13
		v-1.17l0.05-0.28l0.24-0.56l0.06-0.27l0.1-0.26l0.86-1.22l0.16-0.41l0.08-1.26l0.1-0.28l0.24-0.37l0.04-0.38l-0.09-0.79l0.09-0.79
		l0.25-0.65l0.36-0.55l0.42-0.48l0.32-0.51l0.65-2.2l0.35-2.35l0.4-0.59l0.38-0.88l0.25-0.55l-0.15-0.42l0.22-0.33l0.21-0.96
		l0.19-0.43l0.46-0.66l0.29-0.28l0.36-0.17v-0.12l-0.36,0.02l-0.23,0.19l-0.19,0.23l-0.21,0.17l0.36-0.73l-0.85,0.06l-0.44,0.12
		l-0.19,0.25l-0.07,0.31l-0.19,0.32l-0.47,0.54l-0.36,0.31l-0.19,0l-0.17-0.12l-0.33-0.08l-0.2-0.18l0.12-0.42l0.38-0.75l-0.28-0.07
		l0.12-0.22l0.26-0.29l0.15-0.28h-0.11l-0.13,0.37h-0.12l0.2-0.7l0.68-0.58l0.83-0.4l0.63-0.17l-0.1,0.24l-0.05,0.22l-0.13,0.17
		l-0.33,0.09l0.65-0.1l0.16-0.08l0.5-0.49l0.12-0.06l0.31-0.09l0.3-0.23l0.26-0.32l0.2-0.35l0.18-1.18l0.13-0.18l0.06-0.18
		l-0.15-0.4l-0.35-0.65l-0.02,0.31l-0.14,0.45l0.03,0.12v0.12l-1.11-0.14l-0.36,0.02l0.25,0.1l0.23,0.07l0.49,0.07h0.55l0.17-0.06
		l0-0.13l-0.11-0.19l0.26,0.05l-0.02,0.34l-0.26,0.36l-0.47,0.13v-0.13l0.23-0.12l-0.08-0.02l-0.05-0.03l-0.04-0.04l-0.07-0.05
		l-0.12,0.13l-0.1-0.04l-0.12-0.09l-0.16,0l-0.07,0.08l-0.02,0.12l-0.04,0.11l-0.11,0.06l-0.11-0.03l-0.38-0.22l-0.5-0.13
		l-0.25,0.11l-0.52,0.16l-0.2,0.11l-0.22,0.25l-0.19,0.26l-0.23,0.19l-0.35,0.03l0.08-0.32l0.05-0.52l0.11-0.27l-0.21,0.02
		l-0.21-0.01l-0.18-0.05l-0.13-0.07l-0.04-0.17l-0.51-0.31l-0.19-0.26l-0.04-0.28v-0.38l0.05-0.36l0.12-0.22l0.19,0.03l0.96,0
		l0.19-0.03l0.11,0.23l-0.08,0.28l-0.18,0.23l-0.2,0.11l0.23,0.04l0.16-0.2l0.21-0.59l0.32-0.56l0.19-0.51l0.32-0.62l0.37-0.5
		l0.28-0.03l0.14-0.26l0.13-0.05l0.14,0.09l0.16,0.16l0.14,0.02l0.14-0.11l0.12-0.14l0.09-0.07l0.16-0.16l0.76-1.07l-0.18,0.09
		l-0.09,0.06l-0.09,0.09l0.06-0.16l0.01-0.26l-0.07-0.57L673.8,374l-0.15-0.15l-0.03-0.14l0.06-0.14l0.13-0.04l0.12,0.05l0.06,0.14
		l0.03,0.29l0.08,0.17l0.32,0.27l-0.02,0.7l-0.04,0.22l-0.09,0.17l-0.14,0.04l-0.12,0.13l-0.21,0.02l-0.06,0.09l-0.02,0.2l0.05,0.74
		l0.1-0.23l0.24-0.8l0.12-0.1l0.12-0.03l0.09-0.07l0.15-0.65l0.02-0.19l-0.08-0.39l-0.41-0.73l-0.13-0.4l-0.06-1.51l0.1-0.77
		l0.4-1.43l0.24-0.53l0.36-0.46l0.56-0.37l-0.1-0.16v-0.16l0.11-0.12l0.24-0.05l0.2-0.6l2.13-2.97l0.98-0.98l0.76-0.44l0.28-0.26
		l0.99-0.58l0.19-0.21l0.36-0.59l1.67-1.78L684.62,357.54z M685.86,345.68l0.05,0.2l0,0.13l0.11,0.21l0.06,0.33l0.07,0.11
		l-0.06-0.55l-0.06-0.28l-0.05-0.2l-0.03-0.17l-0.1-0.07l0.01,0.09L685.86,345.68z"/>
	<rect x="60" y="27" fill="none" width="720" height="540"/>
</g>
<g id="copyright">
</g>
</svg>
