<?xml version="1.0" encoding="utf-8"?>
<!-- Generator: Adobe Illustrator 24.2.3, SVG Export Plug-In . SVG Version: 6.00 Build 0)  -->
<svg version="1.2" baseProfile="tiny" xmlns="http://www.w3.org/2000/svg" xmlns:xlink="http://www.w3.org/1999/xlink" x="0px"
	 y="0px" viewBox="270.51 182.49 295.53 231.91" overflow="visible" xml:space="preserve">
<g id="Background">
</g>
<g id="New_York">
	<path fill="none" stroke="#333333" stroke-width="2" stroke-linecap="round" stroke-linejoin="round" d="M408.02,225.46l0.86-0.21
		l1.34-1.06l0.84-0.45v-0.21l-0.05-0.16l-0.19-0.3l-0.23-0.04l-0.27,0.18l-0.33,0.11l-0.39-0.25l-0.42,0.36l-0.91,0.31l-0.39,0.34
		l-0.14,0.34l-0.05,0.46l0.06,0.4L408.02,225.46 M404.79,238.65l0.47-0.61l0.44-1.1l0.12-0.56l-0.4-0.04l-0.62,0.26l-0.52,0.33
		l-0.65,0.6l-0.21,0.53l0.11,1.59L404.79,238.65 M412.04,222.72l-0.03,0.56l0.27,0.46l0.33-0.08l1.02-0.93l0.63-0.25l0.79-0.62
		l0.7-0.78l0.53-0.88l0.09-0.12l0.07-0.15v-0.24l-0.48,0.02l-0.37,0.22l-0.61,0.77l-0.19-0.77l-0.44,0.35l-0.83,1.44l-0.24-0.31
		l0.09-0.11l0.04,0l0.04-0.05l0.06-0.21l-0.41,0.01l-0.34,0.1l-0.28,0.21l-0.19,0.35l-0.08-0.03l-0.14-0.03h-0.22l-0.29,0.06v0.37
		l0.47,0.17L412.04,222.72 M306.05,286.77l0.36,0.3l0.49,0.64l0.59,0.58l0.62,0.13l1.84-2.93l0.14-0.6l-0.32-0.45l-0.91-0.32
		l-0.56-0.27l-0.59,0.06l-0.63,0.17l-0.65,0.04l0.06,0.7l-0.47,1.63L306.05,286.77 M554.65,370.2l0.49-0.03l0.51-0.23l0.93-0.76
		l0.64-0.36l0.12-0.03l0.12-0.07l0.11-0.19l-2.81,0.36l-0.61,0.29l-0.18,0.57l0.23,0.32L554.65,370.2 M480.66,378.66
		c2.35,1.43,4.69,2.85,7.03,4.29l0.03-1.2l-0.51-4.02l0.14-2.05l-0.04-0.84l-0.32-0.81l-0.54-0.64l-0.56-0.53l-0.45-0.63l-0.26-1.6
		l-0.16-0.38l-0.1-0.4l0.1-0.67l0.22-0.39l0.36-0.38l0.66-0.52l0.08,0.95l-0.29,0.77l-0.13,0.79l0.59,1.03l1.16,1.06l0.43,0.48
		l0.35,0.73l0.38,1.62l0.13,1.77l-0.03,3.84l-0.12,0.95l-0.49,1.92l-0.3,1.95l-0.84,1.91l-0.19,0.97l-0.22,0.68l-2.04,3.62
		l-0.26,0.89l-0.13,0.96l-0.03,1.03l0.84-0.62l1.14-2.76l0.71-1.09l1-0.53l1.28-0.27l1.3-0.04l1.05,0.2l-0.14-0.45l-0.48-0.9
		l-0.1-0.41l0.19-0.42l0.42-0.06l0.42,0.02l0.19-0.19l0.19-0.85l0.46-0.74l1.56-1.73l0.35-0.28l0.43-0.08l0.77,0l0.09-0.19
		l0.75-1.09l0.19-0.46l-0.08-0.21l-0.35-0.28l0.37-0.32l0.09-0.06l-0.13-0.39l-0.18-0.4l-0.12-0.15l-0.09-0.08l-0.16-0.12
		l-0.12-0.14c-0.58-0.91-1.16-1.82-1.73-2.74l-0.2-0.33l0.5-0.34c2.48-1.54,4.94-3.09,7.42-4.61l0.57-0.43l-0.54-0.78
		c-0.55-0.95-1.08-1.9-1.63-2.85c0.59-8.53,1.05-17.07,1.63-25.6c0.23-3.46,0.43-6.92,0.66-10.38l-0.95-1.17
		c2.21-8.61,4.61-17.17,6.91-25.76c0.51-1.9,1-3.79,1.52-5.69l0.59-0.77c-0.32-0.98-0.63-1.96-0.95-2.94l0.39-1.71l0.1-0.79
		c0.21-8.5,0.35-17,0.53-25.5c0.05-2.16,0.09-4.32,0.13-6.48v-0.36l0.02-1.07l-0.26-0.39l-0.33-0.32l-0.18-0.13l-0.29-0.42
		l-0.5-1.76l-0.16-0.27l-0.2-0.21l-0.26-0.12l-0.57-0.13l-0.26-0.01l-0.25,0.02l-0.24,0.06l-0.21,0.11l-0.19,0.16l-0.14,0.22
		l-0.12,0.25l-0.16,0.85l-0.11,0.27l-0.16,0.22l-0.16,0.19l-0.4,0.29l-0.39,0.18l-0.14,0.04l-0.07-0.02l-0.08-0.12l-0.25-0.49
		l-0.2-0.56l-0.05-0.6l-0.02-1.06l0.07-0.55l0.09-0.43l1.86-4.85l0.1-0.53l0.06-1.03l-0.01-0.51l-0.07-0.39l-0.09-0.23l-0.65-1.18
		l-0.03-0.3l0.03-0.3l0.21-0.77l0.09-0.64l-0.01-0.38l-0.03-0.31l-0.07-0.24l-0.1-0.2l-0.28-0.41l-0.14-0.42l-0.16-0.61l-0.34-2.15
		l-0.03-0.75l0.04-1.34l-0.05-0.43l-0.09-0.32l-0.1-0.22l-0.46-0.61l-0.16-0.27l-0.16-0.43v-0.34l0.08-0.3l0.42-0.72l1.22-3.96
		l0.14-0.67l0.1-1.04l0.07-0.28l0.13-0.24l0.15-0.23l0.36-0.36l0.39-0.3l0.42-0.25l0.38-0.29l0.19-0.36l0.13-0.53l0.12-1.06
		l0.01-0.97l-0.06-0.5l-0.5-2.22l-0.02-0.4l0.02-0.35l0.1-0.29l0.11-0.28l0.67-1.31l0.23-0.59l0.17-0.82l0.1-0.73l0.02-0.46
		l-0.01-0.47l-0.04-0.29l-0.2-0.73l-0.36-0.79l-1.51-2.57l-0.49-1.09l-0.11-0.43l-0.27-1.8l-0.05-1.09l0.04-0.29l0.05-0.3l0.58-1.9
		l0.08-0.58l0.05-1.12l0.11-0.61l0.34-1.02l0.11-0.46l0.13-0.71l0.03-0.42l-0.01-0.34l-0.04-0.25l-0.07-0.22l-0.12-0.23l-0.66-0.75
		l-0.17-0.23l-0.16-0.29l-0.17-0.43l-0.06-0.33l-0.01-0.31l0.05-0.58l0.06-0.3l0.2-0.62l0.13-0.29l0.6-0.99l0.14-0.32l0.14-0.41
		l0.13-0.66l0.02-0.39l-0.03-0.34l-0.19-0.73l-0.18-1.16l-0.13-0.6c-8.82,0.07-17.64,0.12-26.46,0.18
		c-7.1,0.05-14.21,0.1-21.31,0.15l-0.59-0.05l-1.04,0.01l-4.51-0.56l-0.64,0.04l-0.61,0.21l-1.3,0.88l-2.07,0.77l-0.58,0.32
		l-1.55,1.25l-0.61,0.28l-1.92,0.51l-4.99,3.07c-5.07,4.69-10.16,9.37-15.24,14.05l-1.96,2.69l-1.29,1.52l-0.01,0.01l0.46,0.73
		l0.24,0.91l0.07,0.88l-0.38,0.69l-2.29,1.52l-0.05,0.17l-0.02,0.28l-0.05,0.31l-0.14,0.25l-0.13,0.09l-1.86,0.77l-0.19,0.33
		l-0.34,0.46l-4.63,4.07l-4.6,2.1l-6.17,4.51l-0.31,0.7l0.2,1.06l0.48,0.34l0.63,0.19l0.63,0.61l0.18,0.56l-0.09,0.38l-0.14,0.33
		l0.05,0.39l0.26,0.27l0.33,0.05l0.27-0.23l0.12-0.56l0.33-0.66l2.31-1.16l0.3,0.67l1.43-0.27l0.5,0.55l-0.26,0.24l-0.11,0.16
		l-0.14,0.63l0.27-0.3l0.3-0.21l0.32-0.13l0.35-0.04l-0.22,0.64l-0.41,0.66l-0.5,0.51l-0.93,0.47l-0.61,0.58l-0.37,0.58l0.22,0.27
		h2.2l0.66-0.21l0.98-0.92l0.56-0.21l0.6,0.16l0.25,0.41l-0.09,0.55l-0.41,0.59l-0.55,0.29l-1.16,0.21l-0.47,0.48l-0.25,0.74
		l-0.05,0.59l-0.13,0.61l-0.56,0.77l-1.54,1.31l-0.4,0.7l-0.96-0.7l0.18-0.31l0.33-1l-1.75,0.86l-0.47,0.46l-0.41,0.78l0.21,0.34
		l0.52,0.25l0.56,0.51l0.2,0.24l0.46,0.36l0.18,0.22l0.11,0.36l0.01,0.37l0.04,0.39l0.47,0.94l0.31,1.34l0.24,0.61l-0.33,0.94
		l-0.05,1.12l0.14,1.18l0.24,1.13l0.3-0.68l0.34-0.46l0.39-0.14l0.45,0.29l-1.5,2.2l-0.18,1.08l0.98,0.72l-0.69,0.65l-1.38,1.71
		l-0.72,0.34l-2.39,0.51l-0.92-0.17l-1.47-0.57l-0.64,0.11l-1.85,1.89l-0.68,0.53l-3.7,1.79l-1.36,1l-1.23,1.24l-1.6,3.05l-0.85-0.6
		l-0.5-0.13l-0.22,0.55l-0.19,0.21l-2.29,1.05l-3.66,0.78l-0.19,0.14l-0.21,0.43l-0.01,0.36l0.03,0.29l-0.05,0.24l-0.13,0.3
		l0.01,0.15l-0.06,0.09l-0.33,0.12l-0.36,0.04l-0.33-0.11l-0.28-0.24l-0.25-0.36l0.09-0.18l0.18-0.48l-13.63-0.66l-1.63,0.35
		l-4.45,1.65l-1.6-0.01l-1.48-0.69l-2.54-2.31l-0.18-0.08l-0.79-0.22l-0.01-0.52l-0.88-0.43l-12.71-2.41l-4.28,0.7l-5.43-0.79
		l-10.99,1.69l-2.31,1.14l-3.83,0.67l-4.56,1.82l-2.43,0.43l0.16,0.84l0.19,4.36l-0.02,0.52l-0.08,0.63l-0.15,0.41l-0.2,0.39
		l-0.16,0.49l0.02,0.69l0,0.01l1.4,0.94l3.95,0.48l0.95,1.22l-0.18,1.08l-1.23,1.32l-0.31,1.09l0.16,0.43l0.66,0.61l0.16,0.28
		l0.26,2.13l0.2,0.53l0.74,1.45l0.2,0.62l0.08,0.42v1.12l-0.13,1.16l-0.35,0.85l-0.53,0.63l-0.71,0.5l-2.78,1.25l-1.32,0.83l-1,1.24
		l-0.74,1.76l-0.56,0.84l-0.77,0.35l-0.16,0.21l-0.59,1.29l-0.43,0.71l-0.19,0.2l-0.46,0.25l-2.35,0.71l-0.73,1.04l-1.87,1.23
		l-1.76,0.73l-0.36,0.22l-0.25,0.3l-0.3,0.45l-0.36,0.41l-1.06,0.54l-1.67,2.26l-1.98,1.11l-0.58,0.67l-0.62,0.57l-2.42,0.92
		l-2.66,2.13l-1,0.48l-0.72,0.59l-0.4,0.17c0,4.27,0.01,8.55,0.01,12.82c8.59,0,17.19,0.01,25.78,0.01
		c8.91,0.01,17.81,0.01,26.72,0.02c8.69,0.01,17.38,0.01,26.06,0.02c8.63,0.01,17.27,0.02,25.9,0.02c8.93,0,17.86,0.01,26.8,0.02
		c8.6,0.01,17.2,0.02,25.8,0.02c0.01,0,0.02,0,0.03,0l-0.02,0.64l0.85,0.66l1.11,0.53l0.75,0.52l0.21,0.88l0.07,1.19l0.21,1.05
		l0.59,0.45l1.96-0.32l0.45,0.15l0.78,0.67l0.96,0.35l0.51,0.89l0.33,0.2l0.45,0.18l-0.14,0.44l-0.81,1.03l0.73,0.4l0.62,0.22
		l0.43,0.43l0.16,1.04l-0.12,0.45l-0.48,0.4l-0.12,0.44l0.49,1.79l-0.01,0.98l-0.22,2.44l0.1,0.49l0.45,0.45l1.79,3.88l0.48,0.74
		l0.61,0.54l1.58,0.39l0.44,0.44l0.35,0.53l0.5,0.46l0.86,0.18l1.74-0.11l0.68,0.43l0.46,0.42l0.38,0.01l0.35-0.17l0.41-0.11
		l0.26,0.16l0.19,0.37l0.27,0.76l0.31,0.46l0.54,1.02l0.19,0.94C466.6,370.06,473.63,374.37,480.66,378.66 M525.68,393.94l-1.88,0.5
		c-0.29,0.19-0.58,0.38-0.87,0.57l-1.49,0.45l-0.51,0.08l-0.48,0.19l-1.05,0.97l-0.54,0.4l-2.33,0.88l-3.46,0.68l-1.18,0.52
		l-1.19,0.09l-0.96-0.23l0.21,0.57l1.27-0.07l3.45-0.69l3.79-1.32l1.17-0.6l0.59-0.12l2.33-1.42l3.35-1.07l0.51-0.05l0.44-0.38
		l1.28-0.61v-0.29l-0.6,0.09L525.68,393.94 M480.95,398.89l-0.46,0.27l-0.57,0.19l-0.8-0.05l-0.54-0.16l-0.42,0.11l-0.42,0.76
		l-0.13,0.71l-0.08,1.47l-0.25,0.68l-0.24,0.19l-0.36,0.14l-0.37,0.22l-0.3,0.41l-0.05,0.32l0.05,1.27l4.24-2.23l1.75-1.76
		l0.13-2.43l-0.69-0.24L480.95,398.89 M559.86,378.68l-0.97-0.1l-0.71,0.12l0.14,0.49v0.29l-0.7-0.12l-0.53-0.27l-0.41,0.1
		l-0.29,0.96l-0.68-0.24l-0.68,0.35l-1.35,1.14l-1.36,0.61l-0.73,0.16l-0.33-0.25l-0.17-0.5l-1.16-1.76l-0.5-0.19l-0.38,0.56
		l-0.22,0.9l-0.03,0.82l-1.32-1.43l-0.48-0.29l-0.32,0.3l-0.17,0.5l0.01,0.26l-0.43,0.14l-0.97,0.53h-0.44l-0.2-0.34l-0.17-0.53
		l-0.28-0.33l-0.56,0.24l0.38,0.9l-0.56,0.54l-0.91,0.42l-1.97,1.58l-0.63,0.66l-0.09,0.53l0.06,0.57l-0.53,0.43l-0.83,0.3
		l-0.77,0.17l-0.77-0.12l-0.72-0.33l-0.7-0.1l-0.73,0.56l-0.31-0.25l-0.35-0.12l-0.38-0.02l-0.4,0.05l0.35-0.6l0.65-0.63l0.72-0.49
		l0.9-0.31l0.27-0.26l0.48-0.6l0.1-0.18l0.22-0.56l0.19-0.22l0.17-0.04l0.4,0.08l0.17-0.04l1.01-0.85l0.34-0.11l0.07,0.31l0.29,0.58
		l0.31,0.34l0.16-0.42l-0.09-0.59l-0.1-0.48l0.04-0.45l0.41-0.53l0.33-0.14l0.77-0.01l0.37-0.2l-0.29-0.13l-0.25-0.2l-0.23-0.28
		l-0.21-0.36l2.44-2.31l1.39-0.84l0.52,0.87l0.48-0.17l0.57-0.37l0.47-0.49l0.18-0.54l-0.2-0.42l-0.45-0.25l-0.56-0.08l-0.49,0.07
		l-1.91,0.96l-0.55,0.45l-0.87,1.04l-0.52,0.43l-1.61,0.46l-0.78,0.36l-0.65,1.19l-2.1,0.94l-2.25,2.2l-0.79,0.3l-4.57,0.95
		l-5.58-0.28l-6.06-0.01l0.19,0.51l-0.11,0.33l-0.32,0.15l-0.46-0.02l0.2-0.97l-0.52-0.18l-0.78,0.23l-0.62,0.28l0.17,0.79
		l-0.41,0.72l-0.68,0.52l-1.63,0.51l-0.39,0.02l-0.29-0.12l-0.7-0.41l-0.32-0.09l-0.73-0.1l-3.07-1.16h-0.77l-0.3,0.38l0.62,0.89
		l0.47-0.66l0.54,0.27l0.34,0.71l-0.13,0.64l-0.45,0.02l-0.63-0.28l-0.64-0.14l-0.48,0.4l-0.42-0.34l-0.32-0.33l0.35-0.87
		l-0.62-0.59l-0.91-0.02l-0.51,0.84l0.12,0.49l0.57,0.77l0.04,0.36l-0.28,0.2l-0.89-0.46l-0.5-0.05l0.09-0.22l0.13-0.13l-1.89-0.49
		l-1.98,0.54l-1.21,1.48l0.47,2.33l-0.51,0.06l-0.59-0.67l-0.65-0.94l-0.7-0.72l-0.44,0.35l-0.39,0.54l-0.06,0.51l1.15,0.47
		l0.13,0.55l-0.21,0.55l-0.42,0.25l-0.25-0.3l-0.28-0.6l-0.37-0.48l-0.57,0.07l-0.23,0.44l0.09,1.25l-0.1,0.57l-0.82-0.61
		l-1.16-0.33l-1.02,0.22l-0.39,1.04l-1.68-0.4l-0.96,0.61l-1.53,2.97l-0.18,0.22l-0.37,0.23l-0.18,0.2l-0.06,0.13l-0.12,0.37
		l-0.06,0.14l-1.01,1.26l-0.19,0.36l0.13,1.08l1.04,1.19l-0.19,0.95l0.57,0.03l1.85-0.38l0.21-0.13l0.44-0.37l0.33-0.14l0.44,0.02
		l0.33,0.16l0.3-0.02l0.37-0.48l-0.45-0.62l-0.23-0.19l-0.28-0.14v-0.32l0.98-0.71l0.56-0.2l0.78-0.07l0.71,0.11l0.95,0.3l0.69,0.41
		l-0.07,0.48l0.2,0.29l0.04,0.14l0.02,0.21l-0.69,0.05l-4.76,1.79l-0.65,0.41l1.2,0.25l5.03-1.55h6.43v-0.32l-0.95-0.19l-2.67,0.32
		l-0.77-0.45l0.21-0.71l1-0.22l1.99-0.02l3.88-1.3l3.64-0.29l0.77-0.28l1.33-0.82l2.3-0.52l0.38-0.2l0.51-0.53l0.34-0.2l0.64-0.01
		l1.57,0.51l0.82,0.14l0.49-0.2v-0.47l-0.08-0.54l0.2-0.41l0.44-0.1l0.44,0.13l0.43,0.2l0.41,0.11l0.43-0.04l1.53-0.4l0.46-0.42
		l0.37-0.1l2.3-0.1l0.74-0.22l0.89-0.56l0.43-0.08l0.83,0.54l0.41,0.1l0.76-0.15l0.52-0.41l0.16-0.61l-0.37-0.77l1.26,0.05
		l3.98-0.56l0.85,0.05l-0.34,0.39l-0.67,0.29l-1.76,0.44l-0.22,0.07l-0.11,0.15l0.07,0.25l0.22,0.18l0.15-0.08l0.16-0.18l0.2-0.1
		l0.35-0.02l3.66-1.54l2.24-0.44l1.39-0.87l0.41-0.36l-0.02-0.43l-0.24-0.46l-0.08-0.48l0.15-0.38l0.42-0.15l0.91,0.09l0.41,0.29
		l-0.03,0.51l-0.44,0.73l0.69-0.11l1.25-0.71l1.23-0.27l1.97-0.83l3.31-2.26l2.23-0.63l2.59-1.32l2.4-0.59l4.36-2.57l0.61-0.24
		l0.51-0.29l0.27-0.45L559.86,378.68 M510.88,398.57l-0.01-0.13l0.04-0.07l0.16,0.01v-0.29l-0.68,0.25l-2.22,0.04l-0.4,0.09
		l-0.24,0.11l-0.58,0.44l-0.85,0.31l-0.25,0.19l-0.51,0.23l-5.18,0.88l0.81,0.55l5.12-1.03l2.09-1.13l2.68-0.29L510.88,398.57"/>
</g>
<g id="copyright">
</g>
</svg>
