<?xml version="1.0" encoding="utf-8"?>
<!-- Generator: Adobe Illustrator 24.2.3, SVG Export Plug-In . SVG Version: 6.00 Build 0)  -->
<svg version="1.2" baseProfile="tiny" xmlns="http://www.w3.org/2000/svg" xmlns:xlink="http://www.w3.org/1999/xlink" x="0px"
	 y="0px" viewBox="227 190.88 394.32 205.95" overflow="visible" xml:space="preserve">
<g id="Sea">
</g>
<g id="Oklahoma">
	<path fill="none" stroke="#333333" stroke-width="2" stroke-linecap="round" stroke-linejoin="round" d="M603.16,261.27
		c-1.15-8.76-2.29-17.53-3.44-26.29v-0.12c0-8.98,0.01-17.95,0.01-26.93H234.79v0.12c0,8.97,0.01,17.94,0.03,26.91h104.9
		c8.54,0,17.07,0.02,25.61,0.02c0,7.82,0.01,15.63,0.03,23.45c0.02,9.06,0.01,18.12,0.03,27.18c0.02,8.39,0.04,16.78,0.04,25.17
		c0,8.9,0.03,17.81,0.03,26.71l0.7-0.07l1.95-0.28l0.67,0.21l0.4,0.23l0.97,0.18l0.42,0.28l7.35,7.06l0.85,1.29l0.55,0.59l0.81,0.26
		l2.63,0.26l0.8-0.26l0.31-0.24l0.5-0.58l0.39-0.26l0.38-0.1l2.1,0.3l1.66,0.92l0.91,0.36l1.03,0.1l0.65-0.32l0.35-0.8l0.26-2.61
		l0.44-0.61l0.66,0.03l0.81,0.58l0.2,0.32l0.12,0.36l0.19,0.38l0.37,0.37l0.37,0.17l0.44,0.11l0.83,0.05l0.88,0.33l0.42,0.79
		l0.27,0.95l0.41,0.84l1.34,1.2l0.76,0.91l-0.18,0.42l-0.16,0.62l0.12,2.84l0.17,0.85l0.74,0.6l0.98,0.2l2.03-0.09l0.89,0.13
		l1.66,0.49l0.87,0.13l0.93-0.16l0.69-0.3l0.69-0.17l0.98,0.22l3.28,2.14l0.87,0.32l5.47,1.18l0.51,0.28l2.91-1.21l0.98-0.19
		l0.53,0.02l1.43,0.31l0.49,0.28l0.7,1.25l0.3,0.28l0.55,0.4l1.45,1.68l0.66,0.4l2.18-0.01l1.05-0.19l0.23-0.48l0.64-0.87l0.53-0.95
		l0.68-0.76l1.11-0.31l5.82,0.74l1.34-0.17l2.04-0.74l1.11-0.17l0.68,0.6l-0.03,1.38l-0.17,1.55l0.22,1.12l0.08,1.72l1.64,0.84
		l2.15,0.43l1.54,0.54l0.44-0.12l0.32,0.42l0.08,0.54l-0.27,0.6l0.3,0.57v0.5l-0.3,1.08l-0.09,0.54l-0.08,0.32l-0.1,0.77l0.43,0.51
		l0.99,0.52l1.85,0.61l1.91-0.33l1.71-1.05l3.74-3.77l1.53-1.23l1.71-0.57l1.65,0.81l0.38,0.87l-0.04,1.94l0.4,0.98l0.64,0.38
		l2.8-0.2l0.97,0.18l0.64,0.37l0.35,0.67l0.12,1.08l0.27,1.21l0.69,0.44l2.83-0.18l0.49-0.16l0.34-0.24l0.19-0.18l0.46-0.28
		l0.22-0.23l0.14-0.22l0.24-0.53l0.09-0.17l0.7-0.46l0.53,0.14l1.16,1.04l0.24-0.34l0.77-1.34l0.14-0.39l0.19-0.24l0.24-0.17
		l0.54-0.22l0.27-0.16l0.55,0.39l0.49,0.5l0.33,0.6l0.12,0.64l-0.2,0.85l-0.82,1.31l-0.19,0.89l0.22,1.26l0.59,1.39l0.85,1.17
		l1.03,0.65l1.38-0.05l0.81-0.85l0.39-1.34l0.1-1.52l0.18-0.57l0.84-0.49l0.2-0.38l-0.17-0.53l-0.35-0.26l-0.31-0.36l-0.07-0.8
		l1.55,0.41l0.96-0.26l0.67-0.88l0.68-1.43l0.1-1.26l-0.04-0.68l0.32-0.4l0.23-0.13l0.24-0.12l1.49-0.27h0.37l0.41,0.08l0.59,0.26
		l0.31,0.24l0.21,0.25l0.19,0.53l0.27,1.47l0.21,0.51l0.27,0.42l0.52,0.55l0.21,0.16l0.32,0.1l0.41,0.04l1.55-0.22l0.36,0.06
		l0.45,0.22l1.13,0.86l0.23,0.13l0.37,0.08l0.47,0.02l0.84-0.11l0.45-0.13l0.32-0.16l0.2-0.17l0.15-0.2l0.14-0.22l0.12-0.24
		l0.56-1.62l0.27-0.44l0.19-0.19l0.22-0.12l0.45-0.02l0.59,0.16l1.08,0.43l0.36,0.37l0.12,0.31l-0.47,0.97l-0.08,0.26v0.28
		l0.07,0.26l0.13,0.23l0.17,0.2l0.54,0.58l1.79,0.55l0.95,0.49l0.24,0.22l0.14,0.38l0.1,0.49l0.17,0.42l0.32,0.16l2.96-0.15
		l0.8,0.15l1.01,1.25l1.23,1.94l1.3,1.24l1.2-0.86l0.24-1.08l-0.01-0.78l0.27-0.46l1.14-0.15l1.85,0.21l0.78-0.09l0.82-0.51
		l0.43-0.68l0.77-1.8l0.43-0.36l0.47-0.12l0.89-0.49l0.43-0.12h2.22l0.62-0.08l1.46-0.63l0.81-0.57l0.67-0.36l0.31,0.03l0.19-0.38
		l0.46-0.49l0.54-0.32l0.45,0.13l0.47,0.47l2.47,1.57l0.5,0.13l1.22-0.2l0.26-0.36l0.26-0.24l0.35-0.12l0.23,0.36l0.25,0.25
		l0.29,0.12l0.48-0.34l-0.18-1.48l0.3-0.33l1.43,0.05l0.66-0.09l0.45,0.04l0.28-0.33l0.44-0.35l0.49-0.27l0.44-0.12l1.03-0.55
		l0.14-0.12l0.72,0.27l0.33,0.01l0.58-1l0.49-0.45l0.58,0.22l0.57,0.48l0.55,0.29l0.49,0.4l0.34,0.81l-0.41,0.75l0.55,0.31
		l1.37,0.01l-0.01,0.09l0.1,0.18l0.18,0.24l0.09,0.23l0.24-0.09l0.26-0.22l0.19-0.12l0.41,0.04l0.33,0.12l0.28,0.23l0.28,0.36
		l0.48-0.07l3.64,0.12l0.37-0.05l0.28-0.14l0.18-0.13l0.11-0.22l0.02-0.41l0.13-0.48l0.31,0.02l0.49,0.29l0.46-0.28l0.4-0.15
		l0.33-0.22l0.26-0.41l0.5,0.28l0.25-0.56l0.06-0.91l0.26-0.79l0.82-0.67l0.72-0.11l2.87,0.97l0.5,0.32l0.23,0.31l0.17,0.37
		l0.24,0.3l1.36,0.33l0.76,0.53l1.39,1.41l0.7,0.48l0.67,0.22l1.5,0.05l0.32,0.09l0.34,0.24l0.27,0.28l0.12,0.26l0.12,0.79
		l0.27,0.32l0.38,0.17l0.42,0.31l0.23,0.32l0.63,1.13l1.63,1.61l2.85,0.5l1.11,0.35l0.53,0.04l0.62,0.29l0.7,1.22l0.76,0.38
		l0.37,0.46l0.24,0.1l0.31-0.05l0.5-0.24l0.28-0.03l0.62,0.13l0.61,0.19l0.5,0.31l0.32,0.44l1.15-0.19l0.93,0.09l-0.14,0.19
		l-0.14,0.3l0.64,0.33l2.05,0.71v-0.36l0.8,0.4l1.11,0.04l0.23,0.05c0.08-3.8,0.17-7.6,0.25-11.4c0.19-8.75,0.37-17.49,0.56-26.24
		c0.2-9.42,0.41-18.84,0.61-28.26c0.18-8.52,0.36-17.05,0.54-25.57c-0.33-2.47-0.65-4.93-0.98-7.4
		C605.41,278.56,604.3,269.91,603.16,261.27z"/>
</g>
<g id="copyright">
</g>
</svg>
