<?xml version="1.0" encoding="utf-8"?>
<!-- Generator: Adobe Illustrator 24.2.3, SVG Export Plug-In . SVG Version: 6.00 Build 0)  -->
<svg version="1.2" baseProfile="tiny" xmlns="http://www.w3.org/2000/svg" xmlns:xlink="http://www.w3.org/1999/xlink" x="0px"
	 y="0px" viewBox="284.77 166.6 307.25 255.35" overflow="visible" xml:space="preserve">
<g id="Background">
</g>
<g id="South_Carolina">
	<path fill="none" stroke="#333333" stroke-width="2" stroke-linecap="round" stroke-linejoin="round" d="M538.88,336.53l-0.95,0.64
		l-0.62,1.06l-0.31,1.33l-0.02,1.4h0.47l1.19-2.9l0.07-1.09l0.23-0.11l0.09-0.11l-0.04-0.1L538.88,336.53z M585.52,277.74l-0.47-0.3
		l-0.58-0.11v-0.5l1.66-0.5c-6.16-6.26-12.33-12.51-18.5-18.77c-6.04-6.13-12.06-12.27-18.09-18.41
		c-6.38-6.51-12.75-13.03-19.14-19.54c-3.68-3.76-7.35-7.52-11.03-11.28l-1.23-0.42l-1.88-0.34l-2.31-0.04l-0.68-0.03
		c-8.69-0.17-17.37-0.37-26.06-0.57c-8.91-0.21-17.82-0.46-26.73-0.62c-2.45-0.04-4.89-0.1-7.34-0.15l-0.7-0.03L450,206.1
		l-0.47-0.14l-0.38-0.38l-0.13-0.48l-0.02-0.51l0.24-7.75l-0.04-0.49l-0.22-0.46c-2.77-3.65-5.54-7.31-8.3-10.98l-0.2-0.24
		l-0.2-0.11l-0.28-0.04l-0.42,0.23l-5.1,3.67l-0.35,0.11l-0.33-0.02l-0.42-0.34l-0.22-0.33l-0.22-0.36l-0.09-0.36l-0.06-0.33
		l0.02-0.31l0.06-0.28l0.08-0.31l0.71-1.43l0.13-0.39l0.03-0.4l-0.02-0.4l-0.09-0.37l-0.13-0.3l-0.18-0.3l-0.24-0.27l-0.26-0.24
		l-0.51-0.2l-0.79-0.15c-8.63-0.45-17.26-0.92-25.89-1.35c-9.06-0.45-18.13-0.93-27.19-1.41c-5.63-0.3-11.26-0.64-16.89-0.87
		c-1.67-0.11-3.34-0.18-5.02-0.27l-4.67,0.43l-0.25-0.09l-0.24-0.16l-0.15-0.18l-0.28-0.44l-0.2-0.24l-0.21-0.21l-0.42-0.04
		l-0.44,0.16l-0.91,0.6l-0.4,0.38l-0.31,0.42l-0.33,1.11l-0.33,0.31l-0.47,0.16l-2.22,0.01l-0.4,0.16l-0.47,0.43l-0.29,0.3
		l-0.33,0.17l-0.46,0.11l-2.23,0.04l-0.45,0.07l-3.17,1.04l-2.04,1.08l-0.58,0.22l-0.47,0.07l-0.73-0.05l-0.51,0.04l-0.42,0.33
		l-0.2,0.42l-0.26,0.86l-0.44,0.44l-0.67,0.49l-1.46,0.79l-0.68,0.48l-0.55,0.27l-0.33,0.07l-0.45-0.16l-0.24-0.27l-0.26-0.63
		l-1.99,0.43l-18.08,6.01l-1.13,0.02l0.04,0.09l-0.09,0.91l-0.36,0.87l-0.53,0.86l-0.71,0.64l-1.64,0.53l-0.79,0.4l-2.51,1.82
		l-0.7,0.82l-0.55,1.08l-0.89,2.38l-0.62,1.06l-0.82,0.75l-0.95,0.6l-0.82,0.73l-0.51,1.08l-0.26,0.41l-0.09,0.56l-0.04,0.6
		l-0.13,0.6l-0.26,0.6l-1.06,1.33l-0.58,3.15l1.95,2.75l5.63,3.67l2.08,1.02l1.46-0.42l0.44,0.11l0.11,1.01l0.48,0.93l2.29,1.3
		l1.29,1.75l1.31,0.84l0.99,1.77l1.01,1.11l1.99,1.12l2.92-0.09h4.22l2.61,1.67l0.69,1.95l0.31,2.02l0.84,2.41l0.56,0.66l3.52,5.47
		l0.49,1.68l1.17,6.35l0.35,1.04l0.42,0.33l1.02,1.39l1.46,0.6l0.79,0.71l0.69,0.84l0.48,0.74l0.67,2.06l0.52,1.04l1.44,0.78
		l0.53,0.82l0.63,2.06l0.68,1.75l0.47,1.94l0.77,0.84l0.99,0.36h1.24l0.99,1l1.07,1.57l1.46,1.66l1.92,1.29l2,0.91l2.37,1.57
		l2.61,2.09l2.99,2.78l1.68,2.01l0.77,3.32l1.01,1.46l0.53,1.64l0.87,2.16l1.24,1.35l1.44,0.98l1.33,0.62l2.93,0.87l1.22,0.6
		l1.29,1.08l2.59,3.3l1.28,1.19l2.48,1.71l0.88,1.28l-0.44,1.59l0.31,0.38l0.53,1.13l-0.98,0.16l-0.16,0.55l0.76,1.8l-0.87,0.46
		l0.42,1.11l2.63,3.14l0.51,0.45l0.24-0.36l0.29-0.35l0.69,0.09l0.73,0.29l0.42,0.24v0.49l-0.84,0.45l1.06,0.83l0.44,0.86l-0.2,0.77
		l-0.87,0.56l0.94,1.67l0.97,0.91l1.11,0.4l1.39,0.09l0.42,0.6l0.35,2.94l0.31,1.02l2.21,1.82l5.44,2.25l2.51,1.43l1.75,1.7
		l0.93,0.59l1.35,0.23l0.77,0.54l0.77,1.23l0.58,1.5l0.22,1.24l-0.51,2.5v1.42l0.73,0.62l3.15,5.51l0.58,2.02l0.18,1.13l0.08,1.09
		l0.34,1.11l0.62,1.02l0.36,1.17l-0.05,0.99l-0.38,0.5l-0.17,0.89l-0.24,0.77l0.16,0.33l0.29,0.2l0.37,0.49l0.29,0.57l0.12,0.49
		l-0.2,1.41l-0.32,1.1l-0.07,1.08l0.59,1.18l0.79,0.79l1.11,0.78l1.27,0.64l1.84,0.35l0.57,0.29l0.49,0.38l0.45,0.45l0.93,1.08
		l0.33,0.28l0.22-0.06l1.37,0.73l0.33,0.27l0.22,0.64l0.13,0.84l0.31,0.7l0.84,0.3l0.86,0.53l0.27,1.23l-0.06,2.28l1.88,5.97
		l0.93,0.3l0.75,0.86l0.5,1.28l0.13,1.53l-0.13,0.85l-0.48,0.99l-0.2,0.7l-0.11,0.8l0.11,1.9l-0.12,0.43l-0.59,1.24l-0.13,0.8
		l0.16,0.47l1.09,2.32l-0.02,0.23l-0.11,0.29l-0.06,0.4l0.18,0.53l0.27,0.33l0.66,0.38l0.33,0.27l1.79,2.21l0.55,0.31l3.57-0.29
		l1.35,0.29l2.48,1.19l0.42,0.53l0.39,1l0.95,0.73l1.13,0.42l1.24,0.11l0.06-0.02l-0.36-1.02l0.09-0.89l0.43-0.77l2.81-3.38
		l0.62-1.33l0.22-1.79l0.31-0.49l1.4-1.5l0.44-0.77l0.15-1.02l0.04-0.97l0.17-0.84l0.5-0.66l0.16,2.72l-2.12,4.56l-0.57,2.65
		l5.16-3.19l2.01-2.79l1.66-1.75l0.04-0.78l-0.86-1.41l-0.56-0.71l-0.73-0.62l-0.93-0.2l-1.11,0.52l-1.9-3.41l-0.47-0.56l-0.95-0.46
		l0.02-1l0.69-1.75l-0.58-1.82l-1.16-2.66l-0.81-2.62l0.49-1.67v-0.49l-0.47-0.78l-0.89-2.1l-0.75-0.65v-0.46l1.17-0.04l0.53,0.63
		l0.32,0.97l0.53,0.93l0.99,0.53l0.77,0.11l0.16,0.35l-0.86,1.28l0.05,1.53l0.71,2.7l1.55,4.05l4.17,3.72l0.84,0.49l0.66-0.2
		l0.27-1.31l-0.14-0.76l-0.61-1.16l-0.14-0.57l0.03-4.96l0.26-0.96l0.6-0.86l-0.36-0.22l-0.06-0.24l-0.4,0.09l-0.18,0.1l-0.11-0.15
		l-0.16-0.57l1.64,0.12l0.36,1.26l-1.15,5.23l0.33,0.4l2.19-1l-0.81,4.56l-0.04,1.9l0.36,1.92l0.66,0.31l2.39-1.18l0.45-0.02
		l0.98,0.14l0.67-0.13l5.09-3.19l0.67-1.06l-1.13-0.72l0.2-0.09l0.18,0.02l0.12-0.09l-0.04-0.38h0.38l0.8,0.33l0.66-1.17l0.46-1.75
		l0.23-1.43h-0.45l-0.28,0.62l-0.47,0.53l-0.95,0.88l-0.75,0.77l-1.53,0.91l-1.64,0.73l-1.17,0.13l-0.03-0.73l1.08-1.18l1.46-1.12
		l2.67-1.13l0.33-1.37l-0.71-1.39l-1.59-0.63l-5.69-0.46l1.48-0.62l1.77-0.38l1.84-0.11l1.66,0.13v-0.55l-0.83-0.37l-1.5-0.89
		l-0.82-0.18l-0.71,0.07l-1.13,0.31l-0.73,0.06l-5.47-1.04l-1.11,0.6v-0.55l-0.02-0.45l0.49-0.69l0.6-0.35h1.92l4.39,0.69l1.55-0.2
		l-0.36-0.63l-0.33-0.73l-0.2-0.8l0.02-0.86h0.46l0.44,0.93l0.47,0.57l2.3,2.02l0.75,0.2l0.82,0.04l1.17,0.27l0.97,0.58l0.55,0.66
		l0.59,0.53l1.03,0.21l0.9-0.43l0.54-1.08l0.2-1.31l-0.18-1.2l0.84,0.47l0.25,0.75l0.1,0.84l0.33,0.74l0.82,0.62l0.49-0.15
		l0.47-0.44l0.75-0.25l4.46-3.25l0.66-0.33l0.58-0.38l0.42-0.62l0.23-0.63l-0.07-0.16l-0.34-0.11l-2.87-2.59l-0.75-0.93l0.91-0.18
		l1.17,0.78l1.95,2.11l1.46,1.26l0.88-0.25l0.85-0.8l1.44-0.48l1.33-0.21l2.87-0.97l3.26-0.55l0.58-0.55l-0.45-0.75l-1.41-0.97
		v-0.46l0.57-0.36l0.66,0.06l1.51,0.3l1.57-0.03l0.64-0.3l3.61-2.53l0.99-1.48l0.2-2.19h-0.42l-0.07,0.44l-0.18,0.05l-0.88-0.57
		l-0.36-0.65l-0.53-0.53l-2.19-0.51l-0.9-0.71l-0.62-0.96l-0.26-1.04l0.87,0.77l0.84,0.49l0.6-0.09l0.25-0.96l-0.15-1.15l-0.56-1.84
		l-0.15-1.02l0.36-0.2l2.17,1.45l-0.11-0.26l0.08-0.51l0.27-0.49l0.42-0.24l1.07,1l-1.4,1.83l-0.53,1.16l0.44,0.51l1.07,0.4
		l0.68,0.85l0.53,0.88l0.69,0.4l1.37-0.29l1.86-0.77l3.34-1.93l1.04-1.31l0.97-1.68l1.19-1.45l1.64-0.6l0.31-0.24l0.2-0.53
		l0.28-0.51l0.53-0.24l0.45-0.13l3.03-1.72l0.46-0.55l0.45-1.11l-0.67,0.18l-0.58,0.31l-0.48,0.44l-0.33,0.58l-0.75-1.17l-0.31-0.85
		l0.09-0.84l1.61-3.32l0.75-0.97l0.91-0.4l1.95-1.26l1.15-0.35l0.51,0.87l0.17,0.55l0.82,1.46l0.28,0.77l0.88-0.64l1.21-0.49
		l1.38-0.31l1.41-0.11l1.56-0.34l0.46-0.92l0.07-1.22l0.44-1.3l1.22-1.09l2.72-1.21l0.93-0.98l0.16-1.57l-1.09-0.55l-1.37-0.36
		l-0.66-0.99l1.28,0.15l1.38,0.34l1.11,0.73l0.44,1.24l0.38-0.12l0.33-0.2l0.28-0.28l0.29-0.4l-0.69-0.67l-0.44-0.84l0.06-0.69
		l0.85-0.29l0.5,0.23l0.49,1.26l0.53,0.55l0.48-1.15l0.78-0.73l0.9-0.55l0.76-0.62l-0.86-0.31l-0.34-0.36l-0.46-1.33l-0.13-0.85
		l0.06-0.84l-0.16-0.62l-2.12-0.57l-1.46-0.82l-1.21-1.2l-0.49-1.41l0.18-1.55l0.51-1.57l0.7-1.46l2.75-3.91l1.26-1.2l1.38-0.64
		v0.45l-0.71,0.64l-2.23,2.63l-1.6,3.41l-0.55,1.7l0.22,0.77l2.57,0.04l0.82,0.4l0.64,1.02l0.29,1.37l0.07,2.64l0.47,1.06h0.38
		l0.06-1.72l1.62-8.57l0.48-0.8l-0.48-0.51l1.43-3.08c4.05-5.5,8.07-11.01,12.06-16.56l4.36-4.61l6.44-5.5l6.57-3.94l2.59-1.02
		l2.59-0.16l-0.26-0.69L585.52,277.74z"/>
</g>
<g id="copyright">
</g>
</svg>
