<?xml version="1.0" encoding="utf-8"?>
<!-- Generator: Adobe Illustrator 24.2.3, SVG Export Plug-In . SVG Version: 6.00 Build 0)  -->
<svg version="1.2" baseProfile="tiny" xmlns="http://www.w3.org/2000/svg" xmlns:xlink="http://www.w3.org/1999/xlink" x="0px"
	 y="0px" viewBox="60 27 720 540" overflow="visible" xml:space="preserve">
<g id="Background">
</g>
<g id="South_Africa">
	<path vector-effect="none" fill="none" stroke="#000000" stroke-width="3.1557" d="M665.69,44.61l-0.34,0.68l1.58,4.91l1.85,5.73
		l1.84,5.74l1.48,4.58l2.45,7.66l0.21,1.18l-0.74,8.84l0.21,1.61l0.67,1.37l3.43,3.7l0.71,1.4l1.39,4.87l1.44,3.41l0.51,0.82
		l0.68,0.63l2.3,1.7l0.43,0.5l0.19,0.62l0.27,6.81l0.22,1.65l3.29,7.13l0.9,3.01l0.2,3.02l-0.3,2.69l0.03,5.44l0.04,6.61l0.03,4.68
		l0.02,6.25l0.06,8.53l-0.62,1.93l-0.14,1l-0.05,1.29l0.14,1.24l0.37,0.81l0.22,0.82l0.32,2.48v0.85l-0.14,0.53l-0.25,0.25
		l-0.34,0.21l-0.46,0.44l-0.29,0.47l-1.52,3.96l-0.21,1.1l0.14,1.18l1.41,4.55l-2.06,1.02l-1.02,0.24l-1.02-0.32l-3.73-2.4
		l-3.29-2.14l-3.79-2.44l-3.79-2.45l-0.91-0.3l-1.05,0.01l-1.24,0.33l-1.01,0.5l-3.61,3.21l-3.17,2.83l-0.45,0.82l-0.56,2.09
		l-1.92,4.6l-2.42,4.34l-2.61,3.27l-3.32,4.19l-0.77,2.98l0.05,4.23l0.05,5.51l0.35,2.73l0.25,0.94l0.63-0.04l0.59-0.11l0.6-0.34
		l0.54-0.47l0.42-0.51l0.8,2.36l0.48,0.72l1.02,1.09l0.38,0.58l0.2,0.8l-0.04,1l-0.37,1.57l0.15,1l0.79,1.38l3.68,3.33l1.71,2.58
		l0.55,0.54l0.54,0.36l4.4,1.52l2.74,0.95l3.67,1.26l2.4,0.49l3.95,0.05l5.21,0.07l3.44,0.05l3.21,0.03l-0.03-0.53l-0.1-0.45
		l-0.18-0.43l-0.25-0.43l-0.2-0.6l-0.09-2.95l-0.09-3.23l0.62-3.67l0.56-3.27l0.61-3.52l-0.08-1.2l2.4,0.01l0.59,0.12l0.87,0.88
		l0.58,0.25l1.05,0.23l1.82-0.21l1.04,0.04l2.6,0.43l2.02,0.33l4.18-0.11l4.63-0.14l5.01-0.15l5.56-0.15l-0.46,1.62l-0.54,5.22
		l-0.66,2.54l-0.08,0.88l-0.2,0.83l-1.26,1.78l-0.11,0.35l-0.15,1.16l-0.08,0.34l-0.33,0.62l-0.16,1.05l-3.74,10.61l-2.47,11.78
		l-0.06,0.9l-0.06,0.42l-0.33,0.95l-0.11,0.43v0.5l0.2,0.76l0.04,0.43l-1.7,10.04l-0.23,0.75l-3.01,4.72l-0.2,0.64l-0.14,0.92
		l-0.41,0.86l-0.62,0.62l-0.8,0.24l0.13,0.38l0.13,0.13l0.19-0.08l0.29-0.15l0.29,1.4l-0.39,1.49l-0.59,1.47l-0.3,1.32l-0.46,0.71
		l-3.09,3.17l-0.47,0.37l-1.15,0.57l-0.45,0.31l-0.35,0.44l-0.67,1.16l-0.48,0.6l-3.92,3.37l-0.99-0.81l-1.4,0.23l-0.82,0.86
		l0.79,1.11l0.28-0.35l0.48-0.4l0.57-0.31l0.59-0.06l-0.67,1.31l-1.41,1.16l-4.43,2.36l-1.29,0.28l-1.38-0.05l-1.59-0.32l0.05,0.35
		l0.06,0.24l0.13,0.15l0.24,0.13v0.24l-1.08,0.68l-6.97,7.97l-1.68,1.51l-0.57,0.27l-0.21,0.16l-0.09,0.25l-0.14,0.72l-0.14,0.14
		l-0.47,0.33l-1.36,1.93l-0.52,0.44l-1.21,0.77l-0.49,0.43l-0.17,0.4l-0.19,0.86l-0.44,0.27l-0.29,0.27l-0.26,0.31l-0.3,0.74
		l-4.71,6.46l-4.7,9.41l-0.37,1.63l0.38,1.59l-1.44-0.01l-0.34,0.33l-0.18,1.07l0.55-0.29l1.21-0.4l0.47-0.45v0.31l-0.07,0.29
		l-0.12,0.29l-0.3,0.52l-0.92,1.11l-3.71,3.4l-1.05,1.3l-1.73,3.02l-2.01,4.7l-5.17,9.16l-0.73,1.67l-0.14,0.63l-0.28,0.6
		l-1.69,1.83l-6.09,11.32l-1.01,1.46l-0.56,0.59l-0.52,0.24l-0.48,0.42l-1.12,2.44l-5.92,7.92l-1.01,0.71l-1.15,2.5l-1.9,2.23
		l-5.21,4.97l-0.64,0.34l-2.2,0.63l-0.82,0.38l-0.7,0.57l-0.3,0.73l-2.2,2.71l-0.78,0.34l-0.32,0.23l-0.24,0.79l-0.25,0.33
		l-0.28,0.24l-0.2,0.09l-0.79,0.22l-0.63,0.52l-1.15,1.26l-0.58,0.34l-1.4,0.52l-0.92,0.67l-0.32,0.06l-0.33,0.04l-0.39,0.12
		l-0.17,0.01l-0.4-0.05l-0.16,0.04l-0.22,0.28l0.05,0.22l0.13,0.19l0.04,0.18l-0.71,1.57l-1.05,0.59l-0.2,0.25l-0.14,1.04
		l-0.38,0.54l-1.19,0.87l-1.15,1.28l-0.57,0.8l-0.24,0.67l-0.09,0.41l-0.63,1.15l-0.39,0.22l-0.1,0.08l-0.06,0.18l-0.11,0.5
		l-0.08,0.15l-2.36,1.08l-0.34,0.52l-0.14,0.7l-0.37,0.78l-0.99,1.53l-4.4,4.75l-3.67,5.07l-1.92,1.19l-0.3,0.41l-4.81,4.45
		l-0.81,1.2l-0.32,0.27l-0.58,0.29l-0.33,0.25l-1.32,1.38l-0.62,0.89l-0.27,0.78l-0.23,0.5l-3.98,3.1l-0.91,0.51l-1.17,0.97
		l-0.57,0.31l-0.11,0.66l-0.84,0.66l-1.77,0.96l-1.67,1.22l-1.08,0.58l-1.98,0.58l-0.9,0.87l-0.69,1.16l-0.28,1.26l-0.33,0.91
		l-0.77,0.87l-3.66,3.07l-1.09,0.39l-0.31,0.33l-0.47,0.69l-0.5,0.29l-0.06,0.15l-0.01,0.21l-0.03,0.24l-0.15,0.22l-1.7,0.78
		l-0.69,0.8l-0.41,0.18l-0.7,0.13l-1.75,0.66l-0.62,0.38l-3.2,3.4l-1.19,0.99l-2.53,0.96l-0.42,0.36l-0.16,0.06l-0.83,1.24
		l-0.27,0.15l-0.27,0.09l-0.32-0.04l-0.36-0.2l-0.26,1.09l-0.86,0.93l-1.94,1.55l-0.86,0.52h-0.15l-0.15-0.1l-0.13-0.12l-0.07-0.05
		l-0.12,0.14l-0.14,0.44l-3.82,2.64l-0.34,0.42l-2.72,1.31l-0.55,0.46l-0.28,0.29l-0.13,0.29l-0.07,0.33l-0.19,0.33l-0.28,0.28
		l-0.33,0.1l-0.75,0.13l-3.09,1.68l-0.7,0.18l-0.86,0.06l-0.8,0.25l-2.01,1.76l-0.72,0.2l-1.73,0.2l-1.19,0.72l-3.44,1.48
		l-0.43,0.06l-0.28,0.18l-0.24,0.8l-0.23,0.18l-0.77,0.12l-3.42,1.73l-1.4,0.38l-1.48,0.08l-3.03-0.45l-0.95,0.04l-0.68,0.32
		l-0.63,0.11l-0.83-0.36l-1.35-0.78l-4.76-0.96l-4.91-0.27l-3.15,0.47l-2.93,0.93l-2.67,1.31l-1.14,0.9l-0.93,1.17l-0.68,1.39
		l-0.58,2.41l-0.1,1.01l0.16,0.47l0.69,0.34l0.16,0.38l0.16,0.27l1.04,0.77l0.67,1.07l0.3,0.39l-0.05,0.33l-0.06,0.14l-0.13,0.14
		l-1.12-0.36l-0.78,0.25l-0.71,0.45l-0.93,0.24l-1.13-0.14l-1.89-0.59l-1.02-0.18l-1.78,0.23h-0.88l-0.98-0.57l-1.28-0.22
		l-1.21-0.91l-1.31-0.53l-3.02-0.81l-3.28-0.08l-3.2,0.46l-2.1,0.6l-0.86,0.47l-0.56,0.65l0.51,1.76l-0.39,0.86l-0.62,0.76
		l-0.38,0.28l-1.69,1.55l-0.25,0.66l0.15,0.52l0.33,0.29l0.34,0.2l0.15,0.3l-0.12,0.38l-0.6,0.48l-0.24,0.33h-0.26l-0.44-0.64
		l-0.76-0.27l-2.45-0.06l-1.97-0.53l-0.82-0.11l-2.26,0.43l-0.68-0.05l-3.08-0.82l-1.56-0.82l-1.27-1.12l-0.68-0.28l-4.35-0.52
		l-0.63-0.35l-0.5-0.36l-2.31-0.98l-6.39-0.59l-0.78-0.18l-1.54-0.58l-3.82-0.38l-6.34-1.5l-1.69,0.07l-5.75,1.33l-0.77,0.35
		l-0.69,0.45l-0.57,0.59l-0.35,0.94l0.25,0.86l0.63,0.58l0.81,0.12v0.3l-12.35-1.17l-0.2-0.29l-0.21-1.23l-0.09-0.27l-1.07-0.08
		l-0.44-0.19l-0.3-0.32l0.13,0.64l0.26,0.27l0.34,0.13l0.37,0.29l0.36,0.61l0.01,0.31l-0.24,0.27l-0.21-0.22l-0.5-0.15l-1-0.09
		l-0.46,0.09l-0.34,0.17l-0.38,0.11l-0.56-0.05l-2.86-0.9l-1.15-0.72l-0.45-0.14l-0.41-0.28l-0.29-0.63l-0.07-0.4l0.02-0.3
		l0.24-0.16l0.54,0.01l-0.55-0.48l-0.8-0.25l-1.58-0.18l0.33,0.64l0.48,0.64l0.57,0.51l0.58,0.26l-0.66,0.23l-0.87-0.18l-4.03-1.41
		l-0.72-0.1l-0.94,0.03l-0.71,0.14l-0.57,0.28l-1.86,1.53l-1.45,0.77l-1.6,0.37l-3.35-0.38l-1.5,0.04l-3.07,0.76l-0.72,0.34
		l-0.58,0.44l-1.05,1.16l-0.46,0.9l0.16,0.7l0.52,0.52l0.63,0.37l-0.48,0.43l-0.72,0.25l-4.65,0.71l-1.32,0.58l-0.91,0.98l-0.1,0.71
		l0.17,1.41l-0.33,0.48l-0.72,1.25l-0.21,0.16l-2.11,1.24l-1.46,0.56l-1.52,0.3l-1.55,0.1l-3.78-0.78l-1.34-0.82l-0.8-0.19
		l-0.78,0.14l-1.49,0.62l-1.25,0.25l-0.25,0.24l-0.16,0.28l-0.19,0.27l-0.24,0.19l-2.37,1.05l-1.54,0.22l-1.55-0.12l-5.88-2.2
		l-1.43-0.33l-3.47-0.32l-1.7,0.2l-1.44,0.71h0.26l-2.04,0.58l-0.66,0.33l0.96,0.16l0.86,0.66l0.43,0.9l-0.3,0.91l-0.67,0.27
		l-6.31-1.15l-5.01,0.69l-1.49,0.7l-1.24,0.98l-1.96,2.65l-0.67,0.66l-0.68,0.28l-0.51,0.1l-0.25,0.29l-0.2,0.38l-0.37,0.4
		l-0.3,0.16l-1.16,0.45l-0.58,0.4l-0.64,0.61l-0.53,0.72l-0.21,0.75l-0.39-0.14l-0.86,0.24l-1.46,0.64l-2.66,1.94l-1,1.37l0.48,1.16
		v0.27l-0.58,0.16l-0.94,0.6l-0.58,0.14l-0.57-0.09l-0.56-0.21l-0.52-0.28l-2.25-1.69l-0.52-0.53l-0.63-0.34l-5.74,0.18l-0.52,0.13
		l-0.6,0.6l-0.48,0.17l-0.39-0.1l-0.24-0.27l-0.16-0.3l-0.17-0.23l-1.81-1.11l-2.73-2.75l-1.83-1.06l-0.56-0.43l-0.57-0.69
		l-0.67-0.52l-0.85-0.11l-0.86,0.24l-0.68,0.55l-0.32-0.23l-0.31-0.06l-0.3,0.07l-0.31,0.21l0.14-0.48l2.12-2.94l0.19-0.47
		l-0.19-1.19l-0.56-1.38l-0.73-1.29l-0.7-0.9l-0.5-0.38l-0.45-0.12l-2.5,0.52l-2.2-0.15l-0.48-0.14l-0.49-0.49l-0.64-1.21
		l-0.57-0.41v-0.29l0.92-0.16l0.42-0.63l0.24-0.9l0.38-0.98l-0.62,0.37l-0.84,1.41l-0.38,0.32l-2.74-0.19l-0.47,0.04l-1.02,0.38
		l-3.47,0.59l-0.76,0.49l-0.15,0.36l-0.34,0.1l-0.41-0.09l-0.33-0.22l-0.34-0.53l0.05-0.41l0.29-0.52l-0.24-1.43l-0.03-0.34
		l0.13-0.48l0.16-0.2l0.2-0.17l0.27-0.36l0.29-0.84l-0.05-0.63l-0.51-1.46l-0.05-0.9l0.32-0.39l0.49-0.36l0.46-0.74l-1.49-2.28
		l-0.58-0.33l-2.12-0.52l-3.35-0.33l-3.3,0.16l-0.53,0.23l-0.3,0.21l-1.29,0.53l-0.62,0.46l-0.3,0.31l-0.33,0.43l-0.53,0.55
		l-0.15,0.31l-0.05,0.59l0.09,0.44l0.18,0.23l0.24,0.19l0.23,0.28l0.49,1.79l0.05,0.43l0.02,0.39l-0.33,2.86l0.15,0.88l0.61,0.48
		l-0.67,0.19l-0.88-0.47l-0.84-0.78l-0.54-0.71l-0.87-1.71l-0.11-0.5l0.03-0.28l0.17-0.58l0.05-0.34l-0.08-0.16l-0.15-0.1
		l-0.16-0.07l-0.11-0.09l-0.35-1.14l-0.28-0.47l-1.04-0.36l-0.32-0.41l-0.09-0.56l0.1-0.59l0.26-0.34l0.33-0.13l0.29-0.21l0.13-0.65
		l0.01-0.59l0.07-0.46l0.14-0.42l0.25-0.47l-0.52,0.07l-0.21,0.08l-0.27,0.16l-0.5-0.8l-0.06-0.62l0.3-0.57l0.53-0.65l0.5-0.8
		l0.38-1.54l0.34-0.91l1.17-0.94l1.38,0.02l1.15-0.17l0.48-1.58l-0.15-0.82l-0.68-1.11l-0.17-0.56l-0.09-0.84l-0.95-3.79l-0.93-1.88
		l-0.2-0.84l-0.32-0.16l-1.65-2.01l-0.6-0.39l-0.28-0.25l-0.13-0.38v-1.77l-0.09-0.88l-0.24-0.73l-0.88-1.45l-1.02-1.12l-3.86-2.7
		l0.34-0.71l-0.2-0.86l-0.9-1.65l-0.47-1.13l-0.86-1.18l-0.11-0.45l-0.34-0.56l-1.64-1.58l-0.61-0.34L190,478.1l-0.49-0.69
		l-0.4-0.77l-0.42-0.58l0.92-0.47l0.53-0.13l0.37,0.15l0.29,0.49l0.19,0.47l0.24,0.4l0.41,0.28l-0.16,0.45l0.27,0.36l0.97,0.78
		l0.67,0.93l0.47,0.49l0.46,0.18l0.55-0.34l-0.14-0.47l-0.78-0.79l-0.19-0.35l-0.06-0.72l-0.12-0.29l-0.15-0.1l-0.4-0.04l-0.18-0.09
		l-0.78-0.8l-0.29-0.42l-0.13-0.42l0.12-1.83l-0.12-0.63l-0.51-0.84l-0.86-0.42l-1.02-0.09l-1.08,0.18l0.32,0.67l0.19,0.23
		l-0.43,0.1l-0.38,0.19l-0.7,0.56l-0.39-0.44l-0.21-0.46l-0.09-0.39l-0.02-0.29l-0.13-0.37l-0.25-0.38l-0.13-0.48l0.25-0.66
		l-0.18-0.33l-0.43-1.23l-0.23-0.95l-0.03-0.34l0.13-0.35l0.36-0.46l0.21-0.52l-0.2-0.51l-0.83-1.09l-0.19-0.11l-0.14-0.16
		l0.03-0.37l0.15-0.05l0.25,0.07l0.25,0.01l0.1-0.18l0.11-0.13l0.56-0.48l0.2-0.11l0.29-0.05l0.06-0.15l0.01-0.23l0.12-0.29
		l0.03-0.33l-0.04-1.31l0.11-0.53l0.49-0.39l0.86-0.34l0.86-0.22l0.53,0.06l-0.27,0.31l0.42,0.62l1.82,1.69l1.54,0.61l1.37-0.36
		l1.2-0.92l4.32-4.38l0.84-1.65l0.52-1.51l0.83-3.45l0.14-1.67l-0.17-2.94l-0.21-0.67l-0.43-0.95l0.2-0.68l0.86-1.13l0.17-1.7
		l-1.39-5.51l-0.4-4.48l-0.63-1.82l-0.22-0.91l0.09-1.84l-0.05-0.87l-0.4-0.86l-0.44-0.59l-0.4-0.71l-0.23-0.56l-0.02-0.38
		l0.03-0.33l-0.03-0.46l-0.76-2.92l-0.6-1.4l-0.87-1.41l-1.67-2.13l-0.27-0.6l-0.07-0.31l-1.63-2.38l-1.71-1.81l-0.27-0.65
		l-0.24-0.77l-0.54-0.63l-1.17-1.05l-1.39-2.19l-1.02-0.8l-0.35-1.02l-0.43-1.98l-0.44-0.52l-1.47-1.17l-0.31-0.43l-0.19-0.54
		l-1.95-3.2l-0.17-0.12l-0.37-1.02l-0.13-0.27l-0.47-0.72l-0.76-1.86l-0.37-0.71l-2.49-3.52l-1.99-3.98l-0.18-0.6l-0.31-1.51
		l-0.43-1.45l-2.11-2.89l-0.96-1.79l0.14-1.55l-0.88-1.02l-2.01-3.69l-0.32-0.96l-0.66-0.81l-2.3-4l-0.16-0.42l-0.12-1.06l-0.3-1.32
		l-0.14-0.34l-0.09-1.09l-1.89-3.29l-0.48-1.37l-0.14-1.6l-0.82-3.3l-2.25-5.25l-0.23-1.4l-0.09-0.2l-0.16-0.21l-0.17-0.28
		l-0.08-0.44l-0.02-0.42l-0.96-3.39h0.22l-0.17-0.53l0.01-1.1l-0.06-0.58l-0.87-2.36l0.01-0.44l-0.47-0.38l-0.25-0.88l-0.15-1.55
		l-1.04-2.92l-0.27-0.46l-1.33-4.05l-0.15-0.25l-0.69-0.76l-0.15-0.4l-0.11-0.19l-0.64-0.78l-0.76-2.46l-0.21-0.38l-0.37-0.39
		l-0.15-0.34l0.03-0.95l-0.13-0.38l-0.34-0.62l-0.29-0.95l-0.14-0.95l0.17-0.66l-0.54-0.94l-2.29-2.01l-0.33-0.52l-0.54-1.57
		l-0.28-0.56l-1.61-2.26l-2.41-2.07l-0.38-0.88l-0.37-1.45l-0.19-1.43l0.1-0.85l-0.15-0.26l-0.3-0.71l-0.05-0.31l-0.14-0.21
		l-0.31-0.06l-0.33-0.03l-0.23-0.09l-0.76-1.71l-0.6-0.47l-0.91-0.97l-0.06-0.22l0.37-0.26l0.23-0.6l0.08-0.64l-0.07-0.4l0.64-0.31
		l0.94-0.63l0.98-0.52l1.37-0.43l2.71-2.69l0.37-0.15l0.31,0.2l0.16,0.45l0.1,0.52l0.15,0.38l0.59,0.06l0.72-0.61l0.63-0.87
		l0.4-0.68l0.09-0.68l0.05-0.94l0.19-0.8l0.52-0.35l0.38-0.33l-0.25-0.74l-0.76-1.16l-0.25-0.62l-0.15-0.84l0.16-0.72l0.63-0.31
		l0.32,0.15l0.35,0.26l0.35,0.12l0.34-0.26l0.08-0.51l-0.21-0.48l-0.27-0.41l-0.12-0.29l0.15-0.38l0.19-0.15l0.77,0.01l0.54-0.14
		l-0.01-0.29l-0.63-0.81l-0.1-0.2l0.08-0.25l0.21-0.16l0.15,0.05l0.15,0.12l0.59-0.02l0.18,0.15l0.17,0.03l0.26-0.41l0.27-3.21
		l0.13-0.11l0.61-0.69l0.21-0.18l0.28,0.07l0.37,0.45l0.35,0.06l0.43-0.16l0.52-0.55l0.41-0.11l0.96,0.24l1.19-0.89l0.41-0.2
		l0.71-0.17h0.37l0.41,0.17l0.49,0.6l0.41,0.82l0.47,0.75l0.69,0.31l0.9,0.28l0.33,0.7l-0.01,0.91l-0.09,0.92l0.17,1.88l0.76,0.94
		l1.14,0.22l2.27-0.54l0.92-0.05l0.41,0.19l0.15,0.45l0.05,0.51l0.14,0.39l0.32,0.5l0.1,0.41l0.04,0.42l0.15,0.49l0.24,0.42
		l0.57,0.76l0.19,0.46l0.08,0.87l-0.09,1.11l-0.3,0.95l-0.57,0.42l-0.61,0.15l-0.62,0.41l-0.46,0.54l-0.14,0.58l0.29,0.73l0.98,1.26
		l0.2,0.92l0.28,0.68l1.31,0.49l0.39,0.88l-0.23,1.59l-0.44,1.69l0.06,1.21l1.34,0.22l1.58-0.38l1.47-0.18l0.74-0.18l0.68-0.31
		l0.61-0.14l0.54,0.38l0.19,0.86l-0.03,1l0.17,0.82l0.77,0.35l1.15,0.33l0.46-0.03l0.35-0.16l0.71-0.49l0.39-0.18l1.15-0.1
		l5.98,1.33l1.29,0.54l1.21,0.77l2.17,1.82l1.38,0.71l3.01,1.06l0.67,0.01l1.27-0.46l3.14-0.45l0.8,0.06l1.5,0.56l0.87,0.15
		l0.69-0.29l0.28-0.18l0.39-0.13l0.71-0.11l0.19-0.06l0.32-0.2l0.2-0.04l0.15,0.08l0.44,0.42l0.16,0.08l0.77-0.24l1.29-0.72
		l6.86-1.01l7.48,1.09l0.59,0.57l0.91,1.42l0.37,0.43l0.25,0.09l1.27,0.17l0.39,0.14l0.16,0.16l0.61,0.8l1.38-0.08l1.47-0.49
		l2.05-1.09l0.29-0.29l0.39-0.66l0.22-0.15l1.18-0.09l0.43-0.27l0.01-0.49l-1.34-2.3l-0.23-0.88l0.13-0.84l0.62-1.19l0.4-0.53
		l0.46-0.39l0.52-0.05l0.86,0.7l0.38,0.07l0.52-0.23l2.91-0.74l0.73-0.34l0.62-0.5l0.38-0.59l1.02-3.26l0.23-0.35l0.34-0.14
		l0.23-0.14l0.31-0.74l0.19-0.33l0.32-0.39l0.21-0.33l0.23-0.28l0.36-0.26l0.32-0.1l3.6-0.27l0.6-0.33L252,285l0.82-0.29l1.73-0.11
		l1.04-0.3l1.6-1.45l0.94-0.53l0.39-0.05l1.16,0.15l0.37-0.03l1.11-0.28l0.06-1.2v-1.61v-2.26v-2.27v-2.27v-2.26l-0.01-2.26v-2.26
		v-2.26v-2.26v-2.26v-2.25v-2.26v-2.25v-2.25v-2.26v-2.25v-2.25v-2.25v-2.25v-2.25v-2.23l-0.01-2.25v-2.25v-2.24v-2.23v-2.25v-2.24
		v-2.24v-2.23v-2.24v-2.22v-2.23v-2.24l-0.01-2.23v-2.23v-2.22v-2.23v-2.23v-2.22v-2.23v-2.22v-2.21v-2.22v-2.22v-2.22v-2.21v-2.22
		v-2.21v-2.21v-2.21v-2.21v-2.22v-2.2l-0.01-2.21v-2.21v-2.2v-2.21v-2.21v-2.19v-2.2v-2.21v-2.19v-2.2v-2.19v-2.2l-0.01-0.49
		l0.17,0.64l0.23,0.26l0.63,0.48l0.66,1.08l1.86,1.46l0.96,1.09l0.39,0.26l0.34,0.1l0.74,0.05l0.37,0.1l2.73,1.67l4.62,3.81
		l0.38,0.5l1.13,2.43l0.96,1.53l0.39,0.85l-0.05,0.58l-0.31,0.66l0.34,0.53l0.66,0.41l0.7,0.28l0.06,1.02l0.08,0.25l0.21,0.24
		l0.66,0.33l0.23,0.24l0.08,0.36l-0.12,0.24l-0.17,0.23V158l0.15,0.28l0.38,0.5l0.14,0.32l0.24,1.22l0.23,0.43l0.59,0.39l1.05,0.47
		l0.2,0.36l0.11,0.77l0.54-0.08l-0.03,0.34l-0.19,0.48l0.03,0.4l0.35,0.16l0.33-0.14l0.3-0.19l0.33-0.01l0.47,0.4l-1.06,0.67
		l-0.23,0.62l-0.07,1.11l1.6,1.43l0.29,1.04l-0.21,0.39l-0.78,0.48l-0.21,0.28l0.12,0.43l0.37,0.14l0.41,0.06l0.28,0.24l0.03,0.44
		l-0.3,0.84v0.4l0.29,0.41l0.91,0.46l0.38,0.3l0.34,0.69l0.76,2.63l-0.38,0.76l-0.03,0.37l0.49-0.17l0.35-0.19l0.2,0.03l0.41,0.46
		v0.15l0.97,2.35l0.31,3.44l-0.08,2.84l0.12,0.75l1.34,2.37l-0.12,0.62l-1.56,2.18l-0.66,1.53l-0.82,1.42l-2.07,2.61l-1.05,1.99
		l-0.5,0.63l-1.05,0.78l-0.16,0.48l-0.46,2.13l-0.11,1.15l0.11,1.01l0.22,0.49l0.58,0.83l0.18,0.57l-0.06,0.92l-0.78,2.7l0.01,1.19
		l0.19,1.48l0.37,1.44l0.49,1.1l0.23,0.3l0.21,0.21l0.54,0.37l0.35,0.44l0.37,1.26l0.18,0.4l0.1-0.11l0.76-0.56l2.31-1.07l1.67-1.18
		l0.92-0.49l2-0.25l1.53,0.63l1.44,0.91l4.73,1.06l1.11-0.03l3.11-0.9h0.52l1,0.12l0.5-0.02l3.01-0.81l1.63-0.06l0.82,0.15l1.76,0.8
		l3.06,0.09l2.12,0.57l0.76,0.01l0.81-0.32l2.03-1.39l0.66-0.63l0.39-0.71l0.15-0.74l-0.04-0.77l-0.31-1.78l0.03-0.62l0.43-0.43
		l0.96-0.34l1.12-0.2l3.47-0.03l2.26-0.54l2.1-1.29l1.81-1.82l1.35-2.1l1.15-3.16l0.69-1.43l1.44-1.48l0.38-0.79l0.32-0.23
		l1.64-0.29l0.56-0.19l0.87-0.45l1.85-1.8l1.21-1.81l0.78-0.64l1.14-0.21l1.63,0.35l0.61-0.25l0.67-1.04l0.59-1.38l0.4-0.53
		l0.69-0.49l0.44-0.46l1.49-2.28l0.03-0.47l-0.13-0.39l-0.03-0.35l0.39-0.32l1.01-0.38l0.35-0.25l0.31-0.51l0.18-0.66l0.1-0.93
		l-0.01-0.89l-0.19-0.5l-0.46-0.71l0.38-0.65l0.72-0.63l0.54-0.59l0.39-0.67l-0.05-0.24l-0.23-0.57l-0.25-0.39l-0.2-0.08l-0.14-0.12
		l-0.03-0.56l0.22-0.86l0.47-0.81l1.6-1.88l0.2-0.38l0.1-0.41l0.08-0.56l-0.07-0.43l-0.13-0.34l0.04-0.32l0.48-0.38l0.33-0.38
		l-0.17-0.42l-0.34-0.42l-0.22-0.39l0.03-0.33l0.1-0.33l0.28-0.61l0.72-2.44l0.24-0.39l0.91-0.37l0.39-0.46l0.57-1.53l0.29-0.48
		l0.31-0.34l0.37-0.24l0.49-0.22l0.42-0.25l0.13-0.3l0.09-0.34l0.19-0.36l1.4-1.41l0.85-0.46l0.85,0.12l0.24,0.32l0.15,0.41
		l0.23,0.2l0.44-0.25l0.33-0.28l2.69-1.28l1.7-0.5l1.77-0.13l1.95,0.37l1.63,0.63l0.55,0.13l0.65-0.05l1.17-0.43l0.46-0.09
		l0.52,0.15l0.31,0.33l0.54,0.83l0.47,0.51l0.37,0.25l1.05,0.49l0.9,0.56l3.77,2.97l0.28,0.39l0.44,0.45l2.01,0.62l0.33,0.3
		l0.37,0.82l0.24,0.35l0.34,0.2l0.72,0.24l0.31,0.19l1.35,1.79l1.63,1.18l0.53,0.78l0.68,0.41l1.85-0.46l0.41,0.08l0.37,0.23
		l0.38,0.32l0.04,0.32l-0.2,0.34l0.06,0.19l0.76-0.11l3.71-1.01l1.89-0.01l1.57,0.91l2.48,2.94l1.5,1.11l1.81,0.3l0.99-0.25
		l0.72-0.3l0.71-0.09l4.3,1.59l1.89,1.3l1.26,0.28l2.61-0.29l1.16,0.27l1.01,0.27l1.08-0.13l2.13-0.56l0.71-0.31l2.14-1.63
		l1.63-0.78l1.37-0.2l1.39,0.23l1.63,0.5l1.5,0.27l7.46-0.77l2.57-1.29l4.61-3.61l0.78-2.38l1.95-4.71l1.15-5.12l3.12-7.02
		l0.79-2.62l1.09-1.91l0.06-1.45l1.03-2.4l0.39-1.26l0.02-1.58l-0.38-2.86l0.07-0.96l0.2-0.18l0.26-0.05l1.19-0.4l1.83,0.06
		l0.54-0.28l1.17-0.86l9.48-2.98l1.68-0.23l0.67,0.06l0.67,0.16l0.65,0.06l0.82,0.13l2.32-2.4l0.26-0.46l1.05-2.78l0.89-1.18
		l0.97-0.81l2.33-1.51l2.17-2.26l0.32-0.58l0.76-0.42l3.16-1.02l0.75-0.43l0.57-0.51l0.38-0.68l0.69-3.42l0.06-1.74l2.51-10.35
		l0.14-1.05l-0.24-0.78l1.01-1.86l-0.17-0.69l0.19-0.72l0.69-1.24l0.63-1.61l0.35-0.28l0.38,0.15l0.19,0.48l0.28,0.42l0.62,0.03
		l0.55-0.4l-0.01-0.56l-0.22-0.68l-0.07-0.77l0.26,0.11l0.24,0.15l0.11-0.35l0.2-0.24l0.66-0.46h-0.24l0.29-0.47l0.34-0.29
		l0.39-0.05l0.44,0.28l0.16-0.47l-0.2-0.24l-0.29-0.26l-0.15-0.47l0.15-0.31l0.37-0.06l0.4,0.16l0.29,0.35l0.15-0.26l0.28-0.32
		l0.09-0.24l0.25,0.31l0.29,0.14l0.31-0.01l0.35-0.16l-0.51-0.74l0.4-0.46l1.33-0.42l1.37-0.68l0.62-0.47l0.6-0.57l0.83-1.34
		l0.52-0.43l0.4,1.2l0.36-0.22l0.35-0.44l0.1-0.23l0.43-0.21l0.53-0.19l0.27,0.08l-0.26,0.57l0.51,0.27l0.35-0.24l0.29-0.44
		l0.34-0.38l0.46-0.19l1.49-0.05l0.77-0.23l0.72-0.48l0.53-0.7l0.2-0.87l-0.06-0.25l-0.1-0.32l-0.06-0.25l0.09-0.1l0.13-0.06
		l0.13-0.18l0.08-0.21l0.04-0.22l0.15-0.59l0.67-0.75l0.32-1.08l0.4,0.01l0.51,0.25l0.49,0.15l0.42-0.15l1.41-1.16l0.98,1.08
		l0.48,0.23l0.51-0.25l0.21-0.37l0.53-1.49l0.05-0.01l0.28-0.21l0.04-0.06l0.17-0.06l-0.07-0.15l-0.15-0.17l-0.07-0.12l-0.06-0.18
		l-0.17-0.28l-0.1-0.29l0.09-0.3l0.38,0.06l0.77,0.05l0.56-0.2l-0.22-0.71l1.35-0.36l1.51-0.62l1.22-0.87l0.58-1.09l-0.29-1.63
		l-0.02-0.88l0.42-0.39l0.7-0.1l0.75-0.29l0.68-0.34l0.48-0.31l0.55-0.58l0.44-0.78l0.15-0.86l-0.3-0.82l0.06-0.41l0.67-0.32
		l0.82-0.24l0.53-0.23l0.15-0.23l0.19-0.59l0.15-0.23l0.3-0.15l0.36-0.09l0.37-0.14l0.32-0.3l0.28-0.5v-0.31l-0.1-0.29l-0.07-0.48
		l0.07-0.49l0.18-0.37l1.12-1.42l0.35-0.22l0.38-0.11l0.87-0.09l0.35-0.2l1.3-1.53l0.53-0.47l1.32-0.73l1.38-0.38l2.95-0.2
		l2.25,0.58l0.58-0.17l0.76-0.66l0.63-0.12l0.71,0.1h0.96l1.25-0.42l2.59-1.46l1.56-0.48l0.78-0.13l0.72-0.2l0.52-0.4l0.2-0.74
		l0.35-0.5l0.82-0.04l1.54,0.18l0.64-0.5l0.82-1.54l0.35-0.33l0.17-0.46l-0.28-2.7l0.85-1.08l0.68-0.71l0.54-0.33v-0.18l0.75-1.01
		l0.31-0.14l4.33-0.24l0.64-0.25l0.57-0.5l0.69-0.47l0.94-0.11l1.96,0.42l1.02,0.1l0.67-0.23l0.24,0.15l0.22,0.06l0.53,0.02
		l0.77-0.41l1.3-0.73l0.75-0.17l1.79,0.43l0.89,0.09l0.39-0.38l0.31-0.63l0.68-0.17l1.21,0.12l1.33-0.6l0.72-0.12l0.66,0.47
		l0.42-0.16l2.42-0.13l0.72,0.21l2.09,1.38l1.21,0.26l0.88,0.47l1.29,0.11l0.52,0.15l0.99,0.61l0.35,0.14l0.76,0.17l0.37,0.18
		l0.68,0.73l0.05,0.17l0.09,0.13l1.06,0.13l0.51,0.22l1.03,0.74l0.85,0.44l0.63,0.05l1.58-0.23l0.88,0.08l0.67,0.2l0.54,0.33
		l0.5,0.44l1.12,0.8l1.22,0.29l1.33-0.03l1.45-0.25l0.68-0.23l1.35-0.62l0.68-0.19l0.68-0.02l2.31,0.27l1.03-0.02l0.33,0.09
		l0.54,0.38l0.25,0.09l0.53-0.16l0.96-0.69l0.71-0.21l3.98-0.32l1.17-0.48l1.04,0.29l2.16,0.23l3.89,0.92l1.22,0.54l0.62,0.13
		l0.61-0.14l1.19-0.57l0.53-0.09l0.39,0.25l0.72,0.88l0.26,0.19l0.25,0.08l0.56,0.37l0.28,0.11l0.29-0.04l0.58-0.24l0.35,0.01
		l0.35,0.29L665.69,44.61 M575.17,293.36l-0.53-0.44l-1.57-0.05l-0.38-0.57l-0.26-1.66l-0.22-0.79l-0.32-0.68l-0.47-0.57l-0.68-0.49
		l-0.53,0.07l-2.03,1.37l-0.72,0.18l-4.98,0.33l-0.73,0.31l-0.7,0.69l-0.98,1.67l-0.68,0.63l-0.72,0.28l-0.83,0.1l-0.82-0.09
		l-0.72-0.31l-2.39,0.24l-0.33-0.12l-0.35,0.5l-0.48,0.59l-0.99,1.45l-0.11,0.22l-1.58,1.69l-1.35,1.8l-0.15,0.32v0.31l-0.04,0.24
		l-0.31,0.1h-0.98l-0.4-0.21l-0.34-0.43l-0.42-0.39l-0.68-0.07l-0.52,0.29l-0.28,0.54l-0.22,0.64l-0.34,0.61l-0.95,0.43l-4.08-0.28
		l0.27,0.69l-0.38,0.32l-0.57,0.19l-0.29,0.33l-0.01,0.56l-0.03,0.33l-0.09,0.21l-0.07,0.14l-0.04,0.13l-0.01,0.29l-0.05,0.18
		l-0.15-0.01l-0.17-0.07l-0.14,0.05l-0.69,1l-0.43,0.48l-0.45,0.19l-0.57,0.16l0.17,0.37l0.45,0.45l0.31,0.41l-0.23,0.05l-0.33,0.16
		l-0.18,0.07l-0.24-0.28l-0.24,0.28l0.17,0.98l-0.81,1.52l-2.05,2.51l-0.25,0.14l-0.37,0.14l-0.37,0.21l-0.24,0.37l-0.02,0.39
		l0.22,0.95l0.06,0.48l-0.36,0.31l-1.75,0.57l-0.59,0.38l-0.12,0.33l-0.06,0.95l-0.09,0.36l-0.36,0.47l-0.33,0.19l-0.33,0.1
		l-0.33,0.27l-0.08,0.29l0.14,0.23l0.22,0.25l0.1,0.33l-0.05,0.52l-0.14,0.24l-0.24,0.18l-1.49,1.63l-0.39,0.65l-0.15,0.73
		l-0.18,0.16l-0.85-0.03l-0.19,0.15l-0.06,0.47l-0.18,0.43l-0.24,0.37l-0.26,0.27l-1.16,0.68l-0.76,0.32l-1.01,0.21l-0.63,0.34
		l-0.37,0.14l-1.05,0.11l-1.01,0.4l-0.19,0.13l-1.16,1.22l-0.16,0.12l-0.29-0.13l-0.09-0.25l-0.11-0.22l-0.35,0.02l-0.19,0.17
		l-0.27,0.66l-0.24,0.32l-0.35-0.49h-0.38l-0.27,0.38l-0.01,0.67l-0.44,1.01l0.29,0.14l0.51,0.41l0.48,0.27l0.47,0.42l1.05,1.58
		l0.3,0.61l0,0l0,0l3.94,9.38l0.68,0.8l1.72,1.45l0.51,0.83l0.48,1.94l0.24,0.59l0.44,0.68l0.33,0.14l0.44-0.11h0.8l0.54,0.15
		l0.34,0.28l-0.02,0.42l-0.54,0.54l-0.79,1.93l0.08,1.19l0.8,2.21l-0.06,0.64l0.39,0.05l0.73,0.21l0.37,0.05l0.25-0.04l0.76-0.32
		h0.58l0.25,0.28l0.26,1.01l0.38,0.62l0.57,0.47l1.29,0.6l0.26,0.86l0.93,0.92l0.86,1.23l0.11,0.37l0.02,0.37l0.06,0.38l0.21,0.35
		l2.18,1.66l1.93,2.2l1.08,0.68l1.25,0.39l1.51,0.2l0.35-0.07l0.68-0.34l0.31-0.05l0.42,0.15l0.3,0.22l0.27,0.29l0.35,0.27
		l0.71,0.37l0.76,0.24l4.22,0.37l0.87,0.38v-0.8l-0.09-0.67l-0.02-0.67l0.2-0.84l0.24-0.38l0.29-0.22l0.32-0.16l0.28-0.25l0.29-0.37
		l0.11-0.25l0.61-1.93l0.05-0.33l-0.11-0.42l-0.42-0.72l-0.07-0.33l0.28-0.49l3.04-2.39l0.47-0.55l0.25-0.9l-0.1-0.95l-0.42-0.37
		l-0.52-0.24l-0.39-0.56l0.08-0.77l0.54-0.61l0.76-0.46l0.66-0.27l1.05-0.15l0.34-0.15l0.25-0.25l0.44-0.64l0.33-0.25l0.57-0.56
		l0.91-1.73l0.71-0.62l0.86-0.14l1.73,0.25l0.88-0.31l1.56-0.92l0.58-0.14l0.59,0.07l1.74,0.66l1.2,0.02l3.22-1.23l2.36-0.51
		l2.3-0.95l4.17-2.74l4.22-2.61l0.43-0.19l0.94-0.28l0.42-0.21l0.23-0.34l-0.09-0.41l-0.39-0.79l-0.07-0.57l0.02-0.37l-0.1-0.3
		l-0.45-0.34l-0.52-0.75l0.02-0.97l0.21-1.09l0.05-1.03l0.67-1.22l0.46-1.16l0.58-1.02l1.04-0.82l2.75-0.86l0.41-0.5v-0.68
		l0.05-0.64l0.58-0.39l-0.51-0.64l-0.25-0.97l0.02-1.05l0.26-0.86l0.76-0.77l1-0.45l1.08-0.33l0.93-0.42l0.42-0.3l0.29-0.37
		l0.18-0.45l-0.03-0.59l0.06-0.63l0.66-0.95l0.14-0.6l-0.11-0.24l-0.48-0.47l-0.15-0.25l-0.04-0.31l0.03-0.62l-0.03-0.25l-0.36-0.87
		l-1-1.37l-0.39-1.43l-0.28-0.69l-0.47-0.56l-0.57-0.42l-0.4-0.49l-0.17-2.35l-1.09-0.45l-1.43-0.04l-1.19-0.35l-2.94-3.12
		l-1.24-0.56l-0.81-0.21l-0.47-0.33l-0.2-0.52l-0.01-0.8l-0.33-0.4l-0.77-0.37l-0.85-0.24l-0.51,0.03l-1.97-2.02l-1.44-2.52
		l-0.46-0.56l-0.51-0.43l-0.54-0.33l-0.6-0.23l-1.11-0.2l-0.29-0.23L575.17,293.36"/>
</g>
<g id="copyright">
</g>
</svg>
