<?xml version="1.0" encoding="utf-8"?>
<!-- Generator: Adobe Illustrator 24.2.3, SVG Export Plug-In . SVG Version: 6.00 Build 0)  -->
<svg version="1.2" baseProfile="tiny" xmlns="http://www.w3.org/2000/svg" xmlns:xlink="http://www.w3.org/1999/xlink" x="0px"
	 y="0px" viewBox="224.46 117.19 387.63 357.49" overflow="visible" xml:space="preserve">
<g id="Background">
</g>
<g id="Texas">
	<path fill="#FFFFFF" stroke="#333333" stroke-width="2" stroke-linecap="round" stroke-linejoin="round" d="M494.22,439.51
		l0.34,1.31l0.23,0.63l0.3,0.5l0.13,0.29l0.32,1.69l0.26,0.64l0.64,1.16l0.21,0.68l0.3,2.32l0.25,0.78l0.47,0.78l0.2,0.49l0.53,6.16
		l0.2,0.53l0.25,0.17l0.21-0.53l-0.02-0.52l-0.29-1.6l-0.39-0.91l-0.06-0.61l0.02-1.29l-0.1-0.68l-0.39-1.21l-0.23-1.8l-0.17-0.66
		l-0.24-0.38l0.04-0.36l-2.82-9.36l-0.9-5.29l-0.21-7.75l0.18-0.6l-0.39,0.45l-0.15,1.43l-0.21,0.63l0.21,0.54l-0.02,0.57
		l-0.19,1.14l0.05,0.6l0.25,1.1l0.22,2.84l-0.06,1.06l-0.26,1.04l0.81,1.2l0.11,0.24l0.04,0.12l0.13,0.24l0.03,0.17l-0.06,0.11
		l-0.27,0.07l-0.06,0.12l0.03,0.25l0.06,0.22l0.11,0.19l0.18,0.18l-0.2,0.22L494.22,439.51z M501.87,404.87l-0.21,0.8l-0.17,0.32
		l-1.14,1.05l-0.74,0.9l-1.48,3.24h-0.17l-0.2-0.33l-0.3-0.22l-0.64-0.26l0.13,0.48l0.15,0.35l-0.03,0.29l-0.42,0.32l0.09,0.6
		l-0.49,0.8l-0.61,0.81l-0.3,0.61l-0.05,0.35l-0.5,1l-0.12,0.42l-0.23,1.25l-0.83,1.96l-0.45,3.34l-0.21,0.51l0.25,0.15l0.19-0.09
		l0.3-0.48l0.44-1.02l0.57-2.51l1.59-4.28l2.51-4.88l3.42-4.99l0.29-0.32l-0.23-0.27L501.87,404.87z M507.63,396.03l-0.34-0.15
		l-0.34,0.17l-0.2,0.34l-0.14,0.3l-0.2,0.22l-0.37,0.09l-1.58,2.72v0.15l0.52,0.14l0.01,0.19l-0.17,0.34l-0.13,0.19l-0.8,0.87
		l-0.99,1.46l-0.36,0.93l0.23,0.55l0.16-0.59l0.38-0.59l0.95-1.13l1.11-1.68l2.39-2.69l0.08-0.28l0.04-0.69l0.08-0.3l-0.07-0.25
		L507.63,396.03z M519.74,387.91l-0.13-0.04l-0.18,0.07l-0.24,0.06l-0.1,0.13l0.02,0.65l-0.02,0.25l-0.33,0.56l-0.33,0.17l-1.02-0.1
		l-0.59,0.08l-0.35,0.2l-0.55,0.58l-1.25,0.57l-0.21,0.16l-0.26,0.31l-1.14,0.61l-0.26,0.54l-0.22,0.19l-1.04,0.62l-0.32,0.13
		l-0.44,0.07l-0.88,0.29l-0.55,0.06l-0.45,0.23l-0.12,0.54l0.09,0.57l0.2,0.35v0.19l-0.31,0.31l-0.3,0.5l-0.22,0.57l-0.09,0.54h0.2
		l0.21-0.52l0.32-0.45l0.75-0.71l1.45-1.07l0.68-0.73l2.55-1.34l1.49-1.28l0.85-0.56l0.89-0.23l1.96-0.97l0.05-0.13l0.23-0.35
		l0.07-0.24l0.02-0.26l-0.02-0.81L519.74,387.91z M522.29,386l-1.53,1.35v0.23l0.53-0.06l0.45-0.31l0.69-0.7l0.66-0.18l0.21-0.29
		l0.57-0.43l0.21-0.13l-0.02-0.07l0.09-0.08l0.11-0.05l0.21-0.03v-0.21l-1.16,0.33L522.29,386z M562.52,358.46l-0.03-0.18l-0.1-0.02
		l-0.04,0.04l-0.03,0.19v-0.21l-0.03,0.09v0.09l-0.04,0.05l-0.13-0.02v0.21l0.47,0.08l0.07,0.38l-0.18,0.42l-0.27,0.19l-0.05,0.03
		l-0.6,0.16l-0.13,0.16l-0.22,0.47l-1.14,0.91l-0.1,0.14l-0.41,0.02l-0.32,0.09l-0.2,0.22l-0.07,0.43l-0.32,0.44l-2.01,1.25
		l-1.11,0.97l-0.51,0.56l-0.33,0.67h0.18l0.47-0.61l3.91-2.79l1.21-0.45l4.08-3.35l-1.68-0.61L562.52,358.46z M597.92,305.62
		l-0.38-0.34l-0.72-1.17l0.05-0.35l0.26-0.42l0.06-0.31l0.07-1.4l-0.14-0.52l-0.49-0.12l-0.53,0.14h-0.1l-0.08-0.02l-0.06-0.03
		l-0.08-0.06l-0.08-0.08l-0.07-0.11l-0.05-0.17l-0.12-0.84l-0.04-0.17l-0.14-0.23l-0.09-0.16l-0.07-0.21l-0.05-0.26l-0.05-0.18
		l-0.07-0.15l-0.09-0.13l-0.3-0.32l-0.69-0.59l-0.12-0.14l-0.09-0.2l-0.06-0.33l0.04-0.21l0.05-0.18l0.12-0.28l0.08-0.13l0.34-0.44
		l0.01-0.11l-0.04-0.09l-0.38-0.25l-0.42-0.46l-0.27-0.37l-0.09-0.2l-0.08-0.28l-0.07-0.5l-0.07-0.26l-0.09-0.19l-0.11-0.09
		l-0.15-0.07l-0.32-0.09l-0.13-0.06l-0.11-0.09l-0.08-0.15l-0.05-0.14l-0.06-0.25l0.02-0.15l0.08-0.13l0.29-0.19l0.01-0.01
		l0.03-0.04l0.07-0.09l0.08-0.17l-0.02-0.17l-0.09-0.13l-0.13-0.09l-0.16-0.06l-0.66-0.2l-0.15-0.08l-0.14-0.09l-0.23-0.19
		l-0.73-0.8l-0.26-0.37l-0.17-0.29l-0.07-0.18l-0.1-0.31l-0.02-0.24l0.02-0.23l0.11-0.32l0.11-0.23l0.04-0.17l0.04-0.27l0.05-0.89
		l0.04-0.29l0.13-0.5l0.01-0.18l-0.03-0.16l-0.06-0.12l-0.08-0.1l-0.1-0.1l-0.09-0.25l-0.1-0.37l-0.19-1.22l-0.07-0.29l-0.7-1.03
		l-0.19-0.4l-0.11-0.31l-0.13-0.3l-0.24-0.42l-0.37-0.48l-0.53-0.55l-0.24-0.2l-0.89-0.45l-0.12-0.08l-0.11-0.1l-0.09-0.12
		l-0.55-1.02l-0.13-0.15l-0.34-0.26l-0.18-0.1l-0.37-0.27l-0.14-0.17l-0.06-0.12l-0.03-0.07l0.01-2.36v-3.73l0.01-3.74l0.01-3.74
		l0.01-3.75v-3.75l0.01-3.76l0.01-3.76l0.01-3.76l-0.04-3.84l-0.03-3.84l-0.04-3.84l-0.03-3.86l-0.03-2.1v-0.02l-0.25-0.11
		l-0.41-0.2l-0.78-0.59l-0.5,0.25l-0.56,0.03l-0.53-0.14l-0.92-0.53l-0.41,0.15l-0.35,0.32l-0.37,0.17l-1.31-0.67l-0.46,0.02
		l-0.28,0.38l-0.19,0.52l-0.28,0.28l-0.54-0.3l-0.57,0.29l-0.5-0.1l-0.19-0.31l0.34-0.34v-0.2l-0.68,0.1l-0.66-0.19l-0.49-0.47
		l-0.2-0.67l-0.27-0.59l-0.46-0.11l-0.14-0.03l-0.69-0.02l-0.5-0.25v0.22l-1.28-0.44l-0.4-0.21l0.09-0.18l0.09-0.12l-0.58-0.06
		l-0.71,0.12l-0.2-0.27l-0.31-0.19l-0.38-0.12l-0.38-0.08l-0.17,0.02l-0.31,0.15l-0.19,0.03l-0.15-0.06l-0.23-0.29l-0.47-0.24
		l-0.43-0.76l-0.38-0.18l-0.33-0.02l-0.69-0.22l-1.77-0.31l-1.02-1l-0.39-0.7l-0.14-0.2l-0.27-0.19l-0.24-0.1l-0.17-0.2l-0.07-0.49
		l-0.07-0.16l-0.17-0.17l-0.21-0.15l-0.2-0.06l-0.94-0.03l-0.42-0.14l-0.43-0.3l-0.86-0.88l-0.47-0.33l-0.85-0.21l-0.15-0.19
		l-0.11-0.23l-0.14-0.19l-0.31-0.2l-1.78-0.61l-0.45,0.07l-0.51,0.41l-0.16,0.49l-0.04,0.57l-0.15,0.35l-0.31-0.17l-0.16,0.25
		l-0.21,0.14l-0.25,0.09l-0.29,0.18l-0.3-0.18l-0.19-0.01l-0.08,0.3l-0.01,0.25l-0.07,0.14l-0.11,0.08l-0.18,0.09l-0.23,0.03
		l-2.26-0.07l-0.3,0.04l-0.18-0.22l-0.18-0.14l-0.21-0.07l-0.26-0.03l-0.12,0.07l-0.16,0.13l-0.14,0.06l-0.05-0.14l-0.11-0.15
		l-0.06-0.11l0.01-0.06l-0.86,0l-0.34-0.19l0.26-0.46l-0.21-0.51l-0.3-0.25l-0.34-0.18l-0.35-0.3l-0.36-0.14l-0.3,0.28l-0.36,0.62
		l-0.21-0.01l-0.45-0.17l-0.09,0.08l-0.64,0.34l-0.27,0.07l-0.3,0.17l-0.27,0.22l-0.17,0.21l-0.28-0.02l-0.41,0.06l-0.89-0.03
		l-0.18,0.21l0.11,0.92l-0.3,0.21l-0.18-0.07l-0.15-0.15l-0.14-0.22l-0.22,0.07l-0.16,0.15l-0.16,0.23l-0.76,0.13l-0.31-0.08
		l-1.54-0.97l-0.29-0.29l-0.28-0.08l-0.34,0.2l-0.29,0.31l-0.12,0.24l-0.19-0.02l-0.42,0.22l-0.5,0.36l-0.91,0.39l-0.38,0.05h-1.38
		l-0.27,0.07l-0.55,0.3l-0.29,0.07l-0.27,0.22l-0.48,1.12l-0.26,0.42l-0.51,0.32l-0.49,0.06l-1.15-0.13l-0.71,0.1l-0.17,0.29
		l0.01,0.49l-0.15,0.67l-0.75,0.54l-0.81-0.77l-0.77-1.21l-0.63-0.77l-0.5-0.1l-1.84,0.1l-0.2-0.1l-0.11-0.26l-0.06-0.3l-0.09-0.24
		l-0.15-0.13l-0.59-0.31l-1.11-0.34l-0.34-0.36l-0.1-0.12l-0.08-0.14l-0.04-0.16v-0.18l0.05-0.16l0.29-0.61l-0.07-0.19l-0.22-0.23
		l-0.67-0.27l-0.37-0.1l-0.28,0.01l-0.13,0.08l-0.12,0.12l-0.17,0.27l-0.35,1.01l-0.07,0.15l-0.09,0.14l-0.09,0.13l-0.12,0.1
		l-0.2,0.1l-0.28,0.08l-0.52,0.07l-0.29-0.01l-0.23-0.05l-0.14-0.08l-0.71-0.53l-0.28-0.14l-0.23-0.04l-0.97,0.13l-0.26-0.02
		l-0.2-0.06l-0.13-0.1l-0.32-0.34l-0.17-0.26l-0.13-0.32l-0.17-0.91l-0.12-0.33l-0.13-0.15l-0.19-0.15l-0.37-0.16l-0.26-0.05h-0.23
		l-0.93,0.17l-0.15,0.07l-0.14,0.08l-0.2,0.25l0.02,0.42l-0.06,0.78l-0.42,0.89l-0.42,0.54l-0.6,0.16l-0.96-0.26l0.04,0.5l0.19,0.22
		l0.22,0.16l0.11,0.33l-0.12,0.24l-0.52,0.3l-0.11,0.35l-0.06,0.94l-0.24,0.83l-0.51,0.52l-0.86,0.03l-0.64-0.41l-0.53-0.73
		l-0.37-0.86l-0.13-0.78l0.12-0.55l0.51-0.82l0.13-0.53l-0.07-0.4l-0.21-0.37l-0.3-0.31l-0.35-0.24l-0.17,0.1l-0.34,0.14l-0.15,0.1
		l-0.12,0.15l-0.09,0.24l-0.48,0.83l-0.15,0.21l-0.72-0.65l-0.33-0.09l-0.43,0.29l-0.05,0.11l-0.15,0.33l-0.09,0.13l-0.13,0.15
		l-0.29,0.17l-0.12,0.11l-0.21,0.15l-0.3,0.1l-1.76,0.11l-0.43-0.27l-0.17-0.75l-0.07-0.67l-0.22-0.42l-0.4-0.23l-0.61-0.11
		l-1.74,0.12l-0.4-0.24l-0.25-0.61l0.03-1.21l-0.24-0.54l-1.02-0.5l-1.06,0.35l-0.95,0.77l-2.33,2.34l-1.06,0.65l-1.19,0.21
		l-1.15-0.38l-0.61-0.33l-0.27-0.32l0.06-0.48l0.05-0.2l0.05-0.34l0.19-0.67v-0.31l-0.19-0.35l0.17-0.37l-0.05-0.34l-0.2-0.27
		l-0.27,0.07l-0.96-0.34l-1.34-0.27l-1.02-0.52l-0.05-1.07l-0.13-0.69l0.1-0.97l0.02-0.86l-0.42-0.38l-0.69,0.1l-1.27,0.46
		l-0.83,0.1l-3.62-0.46l-0.69,0.19l-0.42,0.47l-0.33,0.59l-0.4,0.54l-0.14,0.3l-0.65,0.12l-1.36,0.01l-0.41-0.25l-0.9-1.05
		l-0.35-0.25l-0.18-0.18l-0.43-0.78l-0.3-0.17l-0.88-0.19l-0.33-0.01l-0.61,0.12l-1.81,0.75l-0.32-0.18l-3.4-0.73l-0.54-0.2
		l-2.04-1.33l-0.61-0.14l-0.43,0.11l-0.43,0.18l-0.57,0.1l-0.54-0.08l-1.03-0.31l-0.55-0.08l-1.26,0.06l-0.61-0.12l-0.46-0.37
		l-0.1-0.53l-0.07-1.77l0.1-0.39l0.11-0.26l-0.47-0.57l-0.83-0.74L442.8,199l-0.17-0.59l-0.26-0.49l-0.55-0.21l-0.52-0.03
		l-0.27-0.06l-0.23-0.11l-0.23-0.23l-0.12-0.24l-0.07-0.23l-0.13-0.2l-0.5-0.36l-0.41-0.02l-0.27,0.38l-0.16,1.62l-0.21,0.5
		l-0.41,0.2l-0.64-0.06l-0.57-0.23l-1.03-0.57l-1.3-0.19l-0.24,0.06l-0.24,0.16l-0.31,0.36l-0.19,0.15l-0.5,0.16l-1.64-0.16
		l-0.5-0.16l-0.34-0.37l-0.53-0.8l-4.57-4.39l-0.27-0.18l-0.6-0.11l-0.25-0.14l-0.42-0.13l-1.21,0.18l-0.44,0.04v-1.86l-0.01-3.72
		v-3.73l-0.01-3.73v-3.74l-0.01-3.74l-0.01-3.76v-3.75l-0.01-3.77l-0.01-3.76v-3.77l-0.01-3.77v-3.79l-0.01-3.79l-0.01-3.79v-3.8
		l-0.01-3.8v-1.66h-9.1l-5.08-0.01h-66.97l-1.13,0.02l0.02,0.6l-0.01,1.05l-0.02,4.66l-0.02,4.64l-0.02,4.63l-0.02,4.63l-0.02,4.63
		l-0.02,4.61l-0.02,4.6l-0.02,4.6l-0.02,4.59l-0.02,4.58l-0.02,4.57l-0.02,4.57l-0.03,4.55l-0.02,4.56l-0.02,4.54l-0.02,4.53
		l-0.03,4.53l-0.02,4.51l-0.02,4.52l-0.03,4.5l-0.02,4.5l-0.02,4.49l-0.02,4.48l-0.02,4.48l-0.02,4.47l-0.02,4.46l-0.01,4.45
		l-0.02,4.45l-0.02,4.44l-0.03,4.44l-0.01,4.43l-0.02,4.42h-6.01l-6.02,0.01h-12.03l-6.01,0.01h-12.03l-6.01,0.01h-12.03l-6.01,0.01
		h-12.03l-6.02,0.01h-12.03l-0.69,0.01h-0.45l0.02,0.54l0.57,1.14l0.14,0.67l0.08,0.74l0.2,0.55l0.66,0.97l-0.2,0.23l0.19,0.37
		l0.25,0.28l0.31,0.17l0.37,0.07l0.35,0.23l1.61,1.68l0.53,0.13l1.2-0.11l1.01,0.4l0.9,0.9l0.73,1.13l0.51,1.06l0.7,2.16l0.32,0.56
		l1.13,1.35l0.27,0.48l0.11,0.32l0.04,0.18l0.05,0.15l0.17,0.21l0.94,0.54l0.28,0.39l0.62,0.27l1.14,0.33l0.92,0.56l0.51,0.2
		l0.68,0.08l0.45,0.17l1.17,0.81l0.34,0.31l0.18,0.28l0.2,0.53l0.18,0.29l0.52,0.3l0.32,0.24v0.11l0.46,0.16l0.5,0.39l2.08,2.44
		l0.19,0.58l0.26,0.4l2.05,1.34l0.47,0.18l0.2,0.13l0.66,0.76l0.55,0.42l0.48,0.28l0.41,0.33l0.33,0.61l0.35,1.11l0.26,0.45
		l0.68,0.33l0.93,1.11l2.2,1.7l1.06,1.35l0.34,0.29l0.8,0.21l1.55,0.76l0.17,0.16l0.14,0.18l0.17,0.17l0.29,0.13l0.14-0.01
		l0.11-0.07l0.18-0.24l0.11-0.04l0.29,0.11l0.17,0.03l0.19,0.1l0.26,0.46l0.27,0.1l0.28,0.01l0.21,0.09l0.12,0.2l0.05,0.34
		l0.09-0.05l0.12,0.08l0.35,0.4l0.18-0.23l1.26,1.5l0.51,0.22l0.5,0.11l0.58,0.28l0.53,0.41l0.34,0.48l0.07,0.32l0.04,0.35
		l0.06,0.34l0.18,0.27l0.27,0.09l0.86,0.12l0.18,0.11l0.16,0.35l0.81,0.94l0.32,0.55l0.06,0.31l0.06,0.66l0.07,0.31l0.45,0.27
		l0.1,0.16l-0.01,0.19l-0.15,0.35l-0.04,0.21l0.06,0.34l0.27,0.42l0.06,0.31l-0.03,0.46l-0.04,0.2l0.05,0.16l0.23,0.35l0.2,0.21
		l0.36,0.22l0.16,0.21l0.06,0.26l0.03,0.36l0.06,0.31l0.15,0.13l0.51,0.33l0.39,0.76l0.34,0.86l0.33,0.62l0.2,0.14l0.47,0.24
		l0.26,0.26l0.53,1.11l0.39,0.48l0.08,0.7l-0.05,1.13l-0.12,0.72l-0.38,1.12l-0.08,0.62l0.07,0.74l0.5,1.71l0.01,0.27l-0.06,0.49
		l0.05,0.3l0.11,0.17l0.35,0.43l0.08,0.15l0.11,0.32l0.51,0.62l0.38,1.45l0.11,0.26l0.5,0.57l0.48,0.38l0.36,0.47l0.24,1.3l0.48,0.9
		l0.18,0.44l0.05,0.44v0.32l0.12,0.3l0.38,0.42l1.28,0.9l0.39,0.37l0.08,0.2l0.09,0.29l0.13,0.26l0.17,0.12l0.2,0.08l2.2,1.4
		l0.29,0.42l0.49-0.26l0.75-0.02l0.69,0.2l0.43,0.55l0.65,0.48l0.23,0.1l0.18,0.16l0.48,1.1l0.89,1l0.59,0.49l0.93,0.46l1.29,1.44
		l1.04,0.58l2.46,0.85l1.73,0.36l1.89,0.12l0.28,0.09l0.25,0.22l0.14,0.31l-0.22,0.69l0.18,0.17l0.32,0.1l0.26,0.12l1.27,1.08
		l0.8,0.45l2.38,0.58l0.74-0.05l0.21,0.05l0.23,0.18l0.1,0.2l0.07,0.22l0.16,0.26l1.38,1.37l1.16,0.65l0.33,0.11l0.24,0.17
		l0.76,0.73l0.39,0.15l0.31-0.18h0.01l0.23-0.29h0.01l0.24-0.06l0.33,0.54l0.16-0.1l0.4-0.13l-0.17,0.65l0.39,0.24l1.63-0.04
		l1.47,0.41l1.06,0.16l0.69-0.35l0.37-0.82l0.12-1.06l0.26-0.08l0.11,0.08l0.16-0.55l0.13-0.3l0.22-0.19l1.08-0.58l0.23-0.18
		l0.23-0.33l0.74-1.55l0.32-0.3l0.18-0.18l0.61,0.33l0.14-0.26l1.23-0.93l0.73-0.14l0.3-0.13l-0.25-0.35l-0.65-0.43l-0.21-0.29
		l0.02-0.37l0.37-1.2l0.01-0.58l0.05-0.32l0.17-0.21l0.32-0.27l0.15-0.04h0.16l0.2-0.03l0.23-0.13h0.01l-0.01-0.13l-0.21-0.45
		l0.03-0.18l0.26-0.41l0.01-0.37l-0.1-0.35l-0.06-0.35l0.05-0.42l0.14-0.29l0.18-0.28l0.86-2.29l0.24-0.19l0.15-0.24l-0.14-0.42
		v-0.01l0.26-0.13l0.06-0.11l-0.15-0.39l0.33-0.16l0.17-0.19l0.26-0.52v-0.07l0.44-0.84l0.11-0.03l0.13-0.43l0.79-1.4l0.08-0.34
		l0.03-0.27l0.07-0.23v-0.01l0.21-0.21l0.2-0.03l1,0.03l0.48-0.11l0.97-0.54l0.5-0.19l0.1,0.05l0.13,0.32l0.14,0.07l0.18-0.03
		l0.08-0.07h0.01l0.04-0.06l0.01-0.01l0.28-0.23l0.22-0.39l0.21-0.07l2.95,0.22h0.01l0.05-0.1l0.66-0.95l0.09-0.31l0.06-0.83
		l0.1-0.29l0.21-0.21l0.33-0.07l0.3-0.12l0.26-0.57v-0.01l0.26-0.15l0.51,0.14l0.35,0.35l0.35,0.26l0.48-0.12l0.14,0.56l0.37,0.19
		l0.97,0.1l1.26,0.67l0.31,0.27l0.98,0.42l2.57-0.28l0.72,0.18l0.42-0.41l0.42,0.13l0.38,0.32l0.36,0.19l0.26-0.02l0.25-0.05
		l0.23-0.1l0.18-0.17l0.22-0.12l0.27,0.05l0.53,0.18h0.91l0.31-0.21l0.18,0.01l0.08,0.32l0.23,0.18l4.39,0.63l1.41-0.18l0.42-0.15
		l0.29-0.32l0.11-0.59l0.09-0.14l0.2,0.06l0.19,0.22l0.1,0.29l-0.06,0.16l-0.25,0.54l-0.09,0.25l0.58,0.15l0.43-0.25l0.42-0.36
		l0.52-0.18l0.23,0.08l0.18,0.41l0.26,0.15l0.31,0.03l0.29-0.04l0.28-0.09l0.24-0.13l-0.11,0.39l0.07,0.4l0.19,0.38l0.44,0.69
		l0.18,0.56l0.33,0.74l0.18,0.29l0.23,0.22l0.34,0.18h0.72l0.23,0.15l-0.04,0.49l-0.23,0.66l-0.03,0.46l0.3,0.12l0.47-0.43
		l0.67-0.38l0.67-0.08l0.4,0.38l0.04,0.81l-0.24,0.93l0.11,0.42l0.27,0.28l0.3,0.03l0.28,0.08l0.24,0.18l0.51,0.65l0.79,0.42
		l1.81,0.57l0.81,0.29l0.22,0.53l0.1,0.89l0.1,0.43l0.16,0.32l0.23,0.29l0.27,0.25l0.29,0.19l1.97,0.9l0.64,0.57l0.53,0.69
		l0.21,0.18l1.29,0.62l0.54,0.41l0.35,0.45l0.57,1.06l-0.21,0.65l0.21,0.42l1.43,1.17l0.07,0.17l0.14,0.2l0.3,0.08l0.34,0.05
		l0.25,0.1l0.22,0.41l0.23,1.78l0.53,1.22l0.1,0.64l-0.24,0.66l0.19,0.19l0.11,0.26l0.05,0.32l0.02,0.41l0.15,0.21l0.33,0.24
		l0.32,0.33l0.15,0.49l0.08,0.12l0.4,0.2l0.14,0.1l0.08,0.24l-0.17,0.38l0.09,0.22l0.18,0.1l0.39,0.01l0.18,0.1l0.11,0.17l0.15,0.32
		l0.11,0.15l0.16,0.31l0.68,2.97l0.35,0.68l0.99,1.3l-0.04,0.53l0.31,0.23l0.63,0.3l0.27,0.21l0.12,0.3l-0.05,0.73l0.02,0.34
		l0.37,0.63l0.55,0.37l1.12,0.45h-0.01l-0.77,0.41h-0.01l-0.14,0.23l0.03,0.34l0.2,0.24l0.22,0.19l0.11,0.17l0.13,1.12l0.25,1.08
		l0.78,1.03l0.42,0.69l0.01,0.49l-0.18,0.56l0.26,0.59l0.47,0.51l0.46,0.33l0.76,0.14l0.18,0.07l0.08,0.25l0.05,0.43l0.1,0.41
		l0.23,0.17l0.44,0.09l2.65,1.34l0.5,0.51l0.21,0.66l0.03,0.42l0.08,0.21l0.37,0.42l0.38,0.33l0.2,0.06l-0.01,0.16l-0.08,0.21
		l-0.01,0.19l0.17,0.52l0.19,0.4l0.26,0.38l0.39,0.47l0.4,0.15l0.57,0.13l0.34,0.23l-0.31,0.45l0.26,0.44l0.42,0.55l0.47,0.46
		l0.43,0.2l0.06,0.14l-0.11,0.31l-0.23,0.47l0.09,0.34l0.21,0.17l0.26,0.14l0.21,0.27l0.04,0.29l-0.08,0.66l0.04,0.3l0.13,0.03
		l0.36,0.3l0.32,0.34v0.17l0.67,0.14l0.35,0.32l0.23,0.4l0.33,0.39l0.25,0.15l0.48,0.15l0.19,0.12l0.11,0.26l0.06,0.36l0.09,0.31
		l0.21,0.13l0.46,0.74l0.15,0.13l0.96-0.01l0.17,0.16l0.27,0.52l0.11,0.13l0.3-0.01l0.57-0.32l0.34-0.09l0.26,0.14l0.33,0.58
		l0.17,0.14l0.46,0.14l0.54,0.26l0.54,0.5l0.21,0.46v1.22l-0.08,0.7l0.02,0.32l0.16,0.13l0.42,0.03l0.21,0.12l0.11,0.25l0.1,0.43
		l-0.03,0.13l0.03,1.13l-0.07,0.37l-0.25,0.7l-0.08,0.6l-0.14,0.4l-0.03,0.32l-0.1,0.29l-0.44,0.49l-0.03,0.02l-0.18,0.32l0.76,0.3
		l0.18,0.11l0.04,0.09l0.05,0.24l0.07,0.11l0.31,0.16l0.08,0.05l0.38,0.46l0.29,0.5l0.19,0.54l0.06,0.58l-0.1,0.58l-0.39,1.31
		l-0.06,0.61l0.06,0.14l0.12,0.17l0.12,0.22l0.05,0.28l-0.06,0.26l-0.54,0.98l0.49,0.68l0.11,0.17l0.41,0.33l0.24,0.1l0.23,0.01
		l0.22,0.05l0.17,0.24l0.07,0.33l-0.01,0.62l0.12,0.33l0.25,0.26l1.08,0.87l0.3,0.4l0.86,1.06l0.39,0.5l0.45,0.47l0.39,0.51
		l0.38,1.31l0.34,1.44l1.09,3.19l0.08,0.49l0.19,1.5l0.17,0.71l0.65,0.27l0.7,0.18l0.33,0.41l0.31,0.85l0.06,0.38l-0.12,0.34
		l-0.23,0.38l-0.18,0.38l0.06,0.33l0.57,0.47l0.52,0.08l0.5-0.06l0.54,0.02l0.13,0.09l0.18,0.27l0.16,0.05l0.18-0.03l0.46-0.19
		l0.66,0.02l0.23,0.17l0.24,0.47l0.42-0.42l1,0.73l0.62-0.13l0.26,0.18l0.26,0.07l0.23-0.06l0.17-0.18v-0.01l0.3,0.18l0.21-0.06
		l0.19-0.12l0.25,0.01l0.14,0.12l0.41,0.49l0.94,0.59l0.28,0.36l-0.11,0.5l0.37-0.03l0.35,0.03l0.32,0.13l0.27,0.26l-0.34,0.41
		l0.05,0.15l0.24,0.03l0.22,0.06l0.55,0.54l0.3,0.19l0.35,0.07l1.6-0.62l0.78,0.42l0.85,0.21l0.77,0.31l0.56,0.69l0.35-0.44
		l0.08-0.1l0.74,0.25l0.87,0.5l0.75,0.21l-0.22,0.61v0.3l0.31,0.11l0.72,0l0.17,0.21l0.63,0.95l0.25,0.3l2.11,1.08l1.01,0.3
		l0.95,0.05l1.28-0.34l0.53,0.13l0.23,0.72l0.26,0.13l0.57-0.19l0.85-0.45l0.37-0.03l1.56,0.22l1.72-0.2h2.06l0.53,0.15l0.05,0.46
		l0.37,0.1l2.36,0.15l0.54,0.12l0.5,0.24l0.51,0.41l0.27,0.39l0.22,0.48l0.28,0.41l0.79,0.35l1.21,1.25l0.49,0.33l0.43,0.18
		l0.46,0.08l0.58,0.02l0.18,0.21l0.15,0.47l0.28,0.43l0.58,0.11l0.11-0.11l0.01-0.01l0.01-0.17l0.05-0.15l0.21,0.01l0.18,0.15
		l0.09,0.22l0.11,0.19l0.27,0.09l0.54-0.25l0.02-0.58l-0.19-0.68l-0.08-0.55l0.11-0.17l0.62-0.45l0.47,0.34l0.63-0.19l0.15-0.14
		l0.34-0.33l0.08-0.49l0.36-0.09l1.3,0.09l1.8-0.15l0.05-0.26l-0.09-1.34l-0.06-0.86l-0.23-0.81l-0.35-0.06l-0.29,0.19l-0.11,0.44
		l-0.05,0.54l-0.1,0.47l-0.2,0.32l-0.25,0.19l-0.66,0.31l-0.15,0.15l-0.04,0.14l-0.08,0.03l-0.29-0.14l-0.14-0.12l-0.1-0.19
		l-0.13-0.49l0.02-0.41l0.32-0.72l0.03-0.53l0.38,0.17l0.29-0.06l0.18-0.28l0.1-0.45l-0.32-0.13l-0.34-0.07l-0.74-0.02l-0.33-0.05
		l-0.26-0.14l-0.19-0.14l-0.15-0.05l-0.33-0.35l-0.13-0.81l0.04-0.89l0.13-0.63l-0.38-0.62l-0.13-0.26l-0.04-0.35l0.1-0.25
		l0.17-0.21l0.09-0.23l-0.16-0.34l-0.21-0.17l-0.18,0.01l-0.19,0.1l-0.25,0.06l-0.23-0.29v-0.63l0.16-0.64l0.25-0.29l0.16-0.12
		l-0.12-0.23l-0.2-0.13l-0.11,0.16l-0.06,0.1l-0.13,0.14l-0.19,0.11l-0.18-0.03l-0.05-0.19l0.24-0.61l-0.01-0.25l-0.17-0.06
		l-0.58-0.05l-0.19-0.07l-0.15-0.38l-0.04-0.41l-0.14-0.32l-0.49-0.13l-0.34-0.03l-0.07-0.11l0.07-0.28l0.08-0.85l0.14-0.45
		l0.03-0.27l-0.93-0.31l0.72-0.21l0.24-0.21l0.15-0.4l0.07,0.16l0.19,0.27l0.09,0.21l-0.17-0.98l-0.61-2.01l-0.28-1.98l-0.65-1.94
		l-0.18-1.32l-0.13-0.5l-0.22-0.45l-0.34-0.32l-0.43-0.14l-0.38-0.01l-0.3-0.09l-0.2-0.38l-0.01-0.41l0.06-0.61l0.13-0.56l0.19-0.29
		l0.29,0.13l1.2,1.13l0.32-0.58l-0.36-0.39l-1.07-0.49l-0.31-0.36l-0.24-0.43l-0.15-0.54l-0.07-1.3l0.05-0.33l0.29-0.13l1.51-0.1
		l0.37-0.29l-0.01-0.5l-0.33-0.76l0.31-0.31l-0.18-0.42l-0.27-0.38l0.03-0.16l0.42-0.05l0.42-0.16l0.34-0.25l0.2-0.37l-0.07-0.38
		l-0.19-0.48l-0.07-0.41l0.25-0.17l0.11-0.24l0.04-0.53l-0.01-0.56l-0.06-0.33l0.32-0.13l0.18-0.33l0.03-0.41l-0.15-0.39l-1.8,0.56
		l-0.52,0.36l-0.51,0.23l-0.67-0.02l-1.34-0.32l-0.59-0.24l-0.41-0.27l-0.44-0.23l-0.68-0.09l-1.33,0.09l-0.61-0.17l-0.37-0.57
		l0.66,0.02l0.64,0.15l0.64,0.06l0.65-0.23l0.3-0.39l-0.13-0.32l-0.4-0.12l-0.54,0.24l-0.06-0.11l-0.04-0.09l-0.04-0.21l0.55-0.28
		l-0.33-0.62l-0.98-0.98h0.38l-0.28-0.63l-0.93-0.93l-0.1-0.73l0.85,0.58l0.68,0.67l2.17,3.13l0.09,0.28l0.01,0.26l0.1,0.19
		l0.36,0.07l0.3-0.05l0.15-0.14l0.03-0.2l-0.09-0.2l0.5-0.74l0.25-0.11l0.17,0.43l0.43-0.38l0.21-0.13l0.3-0.11l-0.2-0.42l0.34-0.2
		l0.62-0.62l0.52-0.23l-0.12,0.57l-0.05,0.58l0.1,0.35l0.22,0.1l0.19-0.04l0.04-0.11l0.19,0.15l0.13,0.04l-0.01,0.06l-0.22,0.26
		l-0.19,0.11l-0.29,0.04l-0.53-0.03l0.09,0.12l0.05,0.11l0.07,0.1l0.15,0.1l-0.33,0.3l-0.98,0.52l0.51,0.36l0.38-0.12l0.58-0.65
		l1.75-0.72l0.29-0.21l0.08-0.68l1.12-3.13l0.38-0.46l0.09-0.31l0.09-0.6l0.46-1.34l0.83-1.55l0.09-0.25l0.07-0.67l0.08-0.34
		l0.14-0.25l0.32-0.41l0.26-0.48l0.09-0.48l-0.21-0.39l-2.4-1.03l-0.42-0.41l-0.7-0.87l0.19-0.22l-0.1-0.32l0.23-0.86l-0.13-0.48
		l-0.2,0.27l-0.31,0.13l-0.33,0l-0.26-0.18l-0.87,0.2l-0.63-0.1l-0.48-0.42l-0.44-0.73l0.45-0.18l0.11-0.02l0.22,0.06l0.08,0.14
		l0.03,0.13l0.04,0.07l0.15,0.05l0.22,0.11l0.2,0.05l0.15-0.04l0.07-0.28l0.15-0.09l0.75-0.06l1.52,0.06l0.7-0.19l-0.08,0.2
		l-0.04,0.13l-0.06,0.11l-0.19,0.17l0.67-0.05l1.1-0.48l0.64-0.08l0.46,0.14l0.39,0.33l0.35,0.46l0.3,0.51h-0.55v0.22l0.7,0.09
		l0.61-0.46l2.12-3.06l1-1.8l0.03,0.09l0.01,0.09l0.03,0.04l0.14-0.02l0.45-0.91l0.18-0.25l0.28-0.29l0.06-0.14l-0.03-0.19
		l-0.03-0.42l0.17-1.18l-0.09-0.35l-0.28-0.24l-0.19,0.1l-0.11,0.05l-0.02,0.04l0.04,0.09l0.1,0.15l-0.43,0.52l-1.32,0.54l-0.28,0.5
		l-0.05,0.39l-0.14,0.41l-0.18,0.35l-0.21,0.22l-0.31,0.13l0.01-0.14l0.12-0.29v-0.32l-0.26-0.44l-0.38-0.34l-0.5-0.21l-0.6-0.07
		l-0.24-0.29l0.51-0.68l1.12-1.12l-0.43-0.14l-0.11-0.3l0.11-0.33l0.23-0.26l0.33-0.06l0.38,0.12l0.21,0.23l-0.18,0.32l0.74-0.19
		l1.05-0.44l0.96-0.6l0.43-0.65h0.17l0.18,0.44l-0.15,0.93l0.18,0.32l-0.09,0.15l-0.09,0.11l-0.09,0.09l-0.1,0.07l0.97,0.32
		l0.3-0.13l0.38-0.61l0.29-0.63l0.15-0.53l-0.08-0.43l-0.36-0.32l0.64-1l0.37-0.45l0.32-0.01l0.04,0.45l-0.27,0.51l-0.16,0.55
		l0.39,0.57l-0.38,0.5l-0.25,0.5l-0.31,1.11l0.46-0.2l0.88-0.23l0.42-0.3l0.95-1.3l0.45-0.48l0.97-0.6l0.28-0.39l-0.52-1.15
		l0.11-0.55l0.27-0.52l0.17-0.54l-0.39-0.76l-0.8-0.96l-0.52-0.85l0.43-0.4l0.38,0.21l0.56,0.42l0.51,0.24l0.22-0.31l-0.08-0.48
		l-0.21-0.34l-0.65-0.55l-0.25,0.11l-0.07-0.19l0.08-0.29l0.23-0.23l0.22-0.13l0.23,0.22l0.49,0.75l0.12,0.11l0.3,0.17l0.13,0.12
		l0.05,0.2l0.02,0.29l0.06,0.25l0.14,0.11l0.49,0.05l0.25,0.17l0.09,0.35l0.06,1.12l0.15,0.48l0.29,0.27l0.44-0.14l0.48,0.38
		l2.95-1.66l0.43-0.13l0.92-0.57l0.53-0.13l1.94-1.05l-0.08-0.73l-0.78-0.69l-1.03-0.38l-0.81,0.23l-0.29,0.25l-0.46,0.26
		l-0.43,0.01l-0.19-0.51l0.24-0.05l1.42-0.7l-0.22-0.57l-0.14-0.24l-0.19-0.22l-0.18-0.15l-0.56-0.26l-0.79-0.54l-0.32-0.11
		l-0.27,0.28l-0.21,0.04l-0.24-0.32v-0.22l0.15-0.74l0.02-0.32l-0.07-0.31l-0.11-0.22l-0.77-1.04l-0.23-0.48l-0.11-0.54l-0.03-0.77
		l0.31,0.17l0.13,0.11l0.11,0.16l0.35-0.2l0.37-0.05l0.36,0.11l0.33,0.25l0.22,0.29l0.08,0.19l0.04,0.23l0.11,0.42l0.05,0.24
		l-0.01,0.21l0.02,0.19l0.13,0.22l0.13,0.05l0.37-0.01l0.16,0.08l0.29,0.1l0.33-0.1l0.28-0.04l0.11,0.25l0.23,0.74l1.02-0.71
		l0.23,0.58l-0.17,0.6l-0.41,0.12l-0.49,0.05l-0.42,0.39l0.83-0.13l0.94-0.38l1.57-0.96l-0.91-0.27l-0.37-0.25l0.09-0.43l0.09-0.27
		l-0.07-0.23l-0.09-0.21l-0.02-0.24l0.1-0.13l0.18-0.12l0.17-0.18l0.07-0.29l-0.08-0.24l-0.21,0.09l-0.23,0.2l-0.2,0.06l-0.18-0.25
		l-0.2-0.46l-0.14-0.54l-0.03-0.45h0.17l0.1,0.26l0.49,0.79l0.1-0.12l0.26-0.15l0.16-0.14l0.39,0.41l0.15,0.47l-0.06,0.45
		l-0.27,0.35l0.13,0.29l0.79,0.78l0.16,0.3l0.01,0.21l0.11,0.07l0.46-0.14l0.56-0.35l0.72-0.88l0.57-0.27l-0.17,0.41l0.6-0.38
		l0.37-0.16l0.42-0.06l0.55,0.02l0.18,0.11l-0.11,0.31l-0.62,1.01l-0.14,0.34l0.14,0.23l0.55,0.08l0.37-0.06l0.35-0.12l0.39-0.08
		l0.46,0.05v0.21h-0.17l-0.42,0.36l-1.24,0.14l-0.48,0.25l-0.11,0.47l0.58,0.02l1.29-0.37l1.6-0.75l0.55-0.11l0.36-0.14l1.04-0.6
		l0.53-0.09l0.51,0.28l0.17,0.5l-0.1,0.47l-0.29,0.22l-0.58,0.12l-3.89,1.99l-0.91,0.67l-0.65,0.8l0.83-0.38l1.74-1.08l1.56-0.52
		l1.65-1.31l2.78-0.65l1.76-0.88l3.19-2.12l-0.97,0.1l-1.04,0.4l-3.72,2.13l-0.08,0.08l-0.17,0.05l-0.19,0.02l-0.13-0.05l-0.11-0.18
		l0.03-0.11l0.07-0.12l0.03-0.51l0.11-0.29l0.04-0.31l-0.17-0.37l3.65-1.34l1-0.11l1.26,0.08l1.21-0.09l1.19-0.3l1.17-0.55l3.1-2.02
		l1.85-1.31l0.47-0.18l0.61-0.07l0.31-0.2l1.45-1.27l1.47-1.64l0.76-0.43l1.97-1.55l0.21-0.39l0.05-0.42l-0.02-0.52l-0.21-1.29
		l-0.03-0.66l0.25-0.69l-0.34-0.8l-0.21-0.25l0.47,0.24l0.43,0.06l0.35,0.17l0.23,0.58l0.74-0.43l0.63-0.48l1.78-2.06l0.02-0.09
		l-0.03-0.25l0.02-0.09l0.08-0.02l0.23,0.04l0.08-0.02l0.55-0.41l0.25-0.26l0.12-0.39h0.19l0.43,0.35l0.42-0.25l0.31-0.59l0.12-0.67
		l0.21-0.61l0.51-0.15l0.56,0.15l0.41,0.3l0.08-0.13l0.08-0.05l0.09-0.03l0.11-0.03l-1.21-0.55l-0.35-0.06l-0.29-0.21l-0.75-1.28
		l-0.03,0.06l-0.01,0.1l-0.03,0.02h-0.06v0.08l0.01,0.06l0.12,0.11v0.23l-0.7-0.02l-0.11-0.42l-0.03-0.51l-0.46-0.34v-0.21
		l0.39-0.13l0.38-0.19l0.32-0.3l0.2-0.43l-2.01-0.62l-0.89-0.57l0.22-0.83l0.29-0.3l0.41-0.54l0.15-0.52l-0.89-0.46l-0.15-0.53
		l0.16-0.57l0.5-0.37l-0.12-0.29l-0.17-0.12l-0.24-0.03l-0.29,0.01l-0.29-0.07l-0.23-0.18l-0.41-0.5l0.13-0.14l1.62,0.05l0.85,0.52
		l0.82,0.74l0.82,0.38l0.88-0.59l0.43-1.05l0.29-0.98l0.21-0.29l0.48-0.28l0.97-0.4l0.63-0.35l0.22-0.06l0.21,0.14l0.12,0.59
		l0.23,0.13l0.5,0.13l0.12,0.33l0.01,0.48l0.2,0.56l-0.23,0.68l-0.34,1.48l-0.38,1.12l-0.49,1.02l-0.34,0.47l-0.28,0.13l-0.38,0.06
		l-0.3,0.1l-0.05,0.25l0.2,0.27l0.28,0.12l0.33,0.03l1.41-0.21l3.96-1.17l0.49,0.02l0.43,0.19l0.43,0.4l0.53,0.21l0.4-0.3l0.25-0.23
		l0.02,0.43l-0.18,0.56l-0.34,0.26l-0.48,0.06l-1.36-0.07l-0.24,0.07l-0.31,0.2l-0.82,0.86l-0.2,0.13l-0.28,0.13l-0.31,0.1
		l-0.64,0.12l-0.7,0.37l-2.19,2.15l-0.23,0.42l0.12,0.3l0.63,0.12l0.56-0.26l1.39-1.67l0.99-0.72l8.63-3.92l3.23-1.21l2.29-1.29
		l0.8-0.36l1.13-0.35l0.61-0.06l3.28,0.06l0.8,0.23l0.31-0.02l0.43-0.54l-0.43-0.96l-1.47-1.71l-0.64-1.14l0.21-1.12l2.13-3.06
		l0.26-0.57l0.11-0.57l0.32-0.15l0.7-0.02l0.54,0.05v-0.01l0.55-0.97l1.59-1.81l-0.21-0.37l0.05-0.29l0.34-0.61l0.18-0.71l-0.02-0.5
		l-0.1-0.45l-0.06-0.57l-0.05-0.21l-0.26-0.46l-0.06-0.31l0.05-0.35l0.26-0.62l0.08-0.31l-0.13-0.71l-0.39-0.44l-0.41-0.38
		l-0.19-0.48l-0.1-1.38l0.09-0.6l0.38-0.7l0.65-0.82l0.21-0.42l0.07-0.58l-0.03-0.25l-0.34-0.94l0.02-0.03l-0.02-0.61l-0.07-0.14
		l-0.21-0.14l-0.08-0.16l0.01-0.62l0.24-0.55l0.41-0.39l0.53-0.15l0.06-0.33l0.39-1.55l0.22-0.48l0.93-0.74l0.26-0.45l0.22-1.49
		l0.98-1.81l0.15-0.52l0.04-0.28l0.01-0.38l-0.03-0.35l-0.14-0.6l-0.03-0.34l0.1-0.33l0.24-0.26l0.42-0.37l0.17-0.33l0.04-0.14
		l-0.21-0.41l-0.2-0.23l-0.43-0.68l-0.23-0.71l0.4-0.33l0.25-0.04l0.74-0.23l0.21-0.15l0.11-0.31L597.92,305.62z"/>
</g>
<g id="copyright">
</g>
</svg>
